<svg xmlns="http://www.w3.org/2000/svg" viewBox="0 0 40.46 39.85"><g id="Layer_2" data-name="Layer 2"><g id="Layer_1-2" data-name="Layer 1"><g id="user"><path id="Path_11194" data-name="Path 11194" d="M24.14,32.84l-23.27,0c0-8.34,6.2-14.46,13.87-14.47A13.63,13.63,0,0,1,24,22,8.69,8.69,0,0,0,24.14,32.84Z" fill="#feaf2a"/><path id="Path_11195" data-name="Path 11195" d="M14.75,1.8a7.41,7.41,0,1,1-7.4,7.41,7.41,7.41,0,0,1,7.4-7.41Z" fill="#feaf2a"/><path id="Path_11198" data-name="Path 11198" d="M24,22a8.71,8.71,0,1,1,1.5,12.22,7.34,7.34,0,0,1-1-.88c-.14-.14-.27-.3-.4-.45A8.71,8.71,0,0,1,24,22Z" fill="#17a651"/><g id="Group_6929" data-name="Group 6929"><path id="Path_11199" data-name="Path 11199" d="M30.87,20.68a9.49,9.49,0,0,0-7,3,14.54,14.54,0,0,0-9.14-3.18h0A14.45,14.45,0,0,0,4.3,24.88a15.5,15.5,0,0,0-4.3,11,.9.9,0,0,0,.25.62.86.86,0,0,0,.62.25l22.87,0,.16.17a9.59,9.59,0,1,0,7-16.17ZM5.54,26.09a12.66,12.66,0,0,1,9.2-3.85h0A12.88,12.88,0,0,1,22.82,25a9.49,9.49,0,0,0-1.54,5.22,9.67,9.67,0,0,0,1.21,4.67L1.75,35a13.8,13.8,0,0,1,3.79-8.88Zm25.33,12a7.78,7.78,0,0,1-5.7-2.45l-.35-.4a7.82,7.82,0,0,1-.13-9.8v0a7.84,7.84,0,1,1,6.18,12.68Z" fill="none"/><path id="Path_11200" data-name="Path 11200" d="M14.75,18.42A9.21,9.21,0,1,0,5.54,9.21h0A9.21,9.21,0,0,0,14.75,18.42Zm0-16.68A7.47,7.47,0,1,1,7.29,9.21a7.47,7.47,0,0,1,7.46-7.47Z" fill="none"/><path id="Path_11201" data-name="Path 11201" d="M33.8,24.65l-4.21,3.42-1.53-1.8a.88.88,0,0,0-1.33,1.14l2.09,2.45a.89.89,0,0,0,.67.3A.87.87,0,0,0,30,30l4.87-4A.88.88,0,0,0,35,24.77a.87.87,0,0,0-1.23-.12Z" fill="#fff"/></g></g></g></g></svg>