<?xml version="1.0" encoding="utf-8"?>
<!-- Generator: Adobe Illustrator 24.0.0, SVG Export Plug-In . SVG Version: 6.00 Build 0)  -->
<svg version="1.2" baseProfile="tiny" id="Layer_1" xmlns="http://www.w3.org/2000/svg" xmlns:xlink="http://www.w3.org/1999/xlink"
	 x="0px" y="0px" viewBox="0 0 413 106" xml:space="preserve">
<g id="Group_7103" transform="translate(0.238 -344.358)" display="none">
	<g id="Group_7100" display="inline">
		<g id="Group_7095" transform="translate(23.458 343.316)">
			<g id="Group_7099">
				<path id="Path_13645" fill="#FAAF4A" d="M-24.4,0.9h163.3v106.4H-24.4V0.9z"/>
				<g id="Group_7098" transform="translate(-23.696 7.041)">
					<path id="Path_13630" fill="#FFD398" d="M29,100.3l16.4-41.6L-0.7,88.4v11.9L29,100.3z"/>
					<path id="Path_13631" fill="#E3A044" d="M136.9-6.1L77.5,22.1l29.7-28.2H136.9z"/>
					<path id="Path_13632" fill="#C1873A" d="M14.5-6.1l16.7,17.9L-0.7,4.2V-6.1H14.5z"/>
					<path id="Path_13633" fill="#E3A044" d="M61.2-6.1l-1.9,17.9l-6-17.9H61.2z"/>
					<path id="Path_13634" fill="#C3893B" d="M102.6,100.3L89.2,70.4l26.2,9.1l-6.5,2.8l4.1,7.3l-7.7,3.3l4.1,7.3L102.6,100.3z"/>
					<path id="Path_13635" fill="#FFD295" d="M115.3,68.4l-3.2,1.3L93.1,49.9l25.9,7.8l-7.7,3.3L115.3,68.4z"/>
					<path id="Path_13636" fill="#FFDA3C" d="M-0.7,50.8l27-7.8l-27-7.8L-0.7,50.8z"/>
					<path id="Path_13637" fill="#E09C41" d="M84.2,100.3L66.9,69.6l2.9,30.7H84.2z"/>
					<path id="Path_13638" fill="#E69E3D" d="M129.9,25.8l-36.8,7.9l38.4-22.2l2,3.6l-7.7,3.4L129.9,25.8z"/>
					<path id="Path_13639" fill="#BA7C27" d="M-0.7,78.6L15.2,69l-15.9,3V78.6z"/>
					<path id="Path_13640" fill="#C3893B" d="M52.3,100.3l-5.5-18.9v19.1L52.3,100.3z"/>
					<path id="Path_13641" fill="#FFF081" d="M46.9-6.1l-3.3,18.8L28.6-6.1L46.9-6.1z"/>
					<path id="Path_13642" fill="#FFF081" d="M94.8,100.3L84.7,81.4l4,18.9H94.8z"/>
				</g>
			</g>
			<g transform="matrix(1, 0, 0, 1, -23.7, 1.04)">
				<path id="Path_13644-2" fill="#FFFFFF" d="M98.2,88.3l5,7.3v0L93.8,99l5,7.3H413V-0.1H143.4l0,0L134,3.2l5,7.3l0,0.1l-9.4,3.3
					l5,7.3l0,0.1l-9.4,3.3l5,7.3l0,0.1l-9.4,3.3l5,7.3l0,0.1l-9.4,3.3l5,7.3l0,0l-9.4,3.3l5,7.3l0,0l-9.4,3.3l5,7.3l0,0l-9.5,3.3
					l5,7.3l0,0L98.2,88.3z"/>
			</g>
		</g>
	</g>
	<g id="christmas-present_1_" transform="translate(15.083 367.373)" display="inline">
		<g id="effect" transform="translate(5.046 5.349)">
			<g id="Group_7108" transform="translate(0 5.632)">
				<g id="Group_7105" transform="translate(8.796 0.382)">
					<path id="Path_13652" fill="#FFFFFF" d="M-0.7-3.1l3.1-3.1l1.5,1.5L0.8-1.5L-0.7-3.1z"/>
				</g>
				<g id="Group_7106" transform="translate(0 9.175)">
					<path id="Path_13653" fill="#FFFFFF" d="M-0.7-3.1l3.1-3.1l1.5,1.5L0.8-1.5L-0.7-3.1z"/>
				</g>
				<g id="Group_7107" transform="translate(0.002 0)">
					<path id="Path_13654" fill="#FFFFFF" d="M-0.7-4.6l1.5-1.5l3.1,3.1L2.3-1.5L-0.7-4.6z"/>
				</g>
			</g>
		</g>
		<g id="color" transform="translate(14.446 12.217)">
			<g id="Group_7110" transform="translate(0 11.088)">
				<path id="Path_13656" fill="#2FDF84" d="M45.8,5.8H1.4c-1.2,0-2.2-1-2.2-2.2c0,0,0,0,0,0V-4c0-1.2,1-2.2,2.2-2.2h44.3
					c1.2,0,2.2,1,2.2,2.2v7.6C47.9,4.8,47,5.8,45.8,5.8C45.8,5.8,45.8,5.8,45.8,5.8z"/>
			</g>
			<g id="Group_7111" transform="translate(4.327 22.944)">
				<path id="Path_13657" fill="#F3F3F1" d="M-0.7-6.1v21.7c0,2.4,1.9,4.3,4.3,4.3h31.4c2.4,0,4.3-1.9,4.3-4.3V-6.1H-0.7z"/>
			</g>
			<g id="Group_7112" transform="translate(14.06)">
				<path id="Path_13658" fill="#2FDF84" d="M6.3-4.9c1.6,1.6,3.3,9.1,3.3,9.1S2.1,2.5,0.5,0.9c-1.6-1.6-1.6-4.2,0.1-5.8
					C2.1-6.5,4.7-6.5,6.3-4.9z"/>
			</g>
			<g id="Group_7113" transform="translate(24.337)">
				<path id="Path_13659" fill="#2FDF84" d="M2.5-4.9C0.9-3.3-0.7,4.1-0.7,4.1s7.5-1.7,9.1-3.3c1.6-1.6,1.6-4.2-0.1-5.8
					C6.7-6.5,4.1-6.5,2.5-4.9z"/>
			</g>
			<g id="Group_7114" transform="translate(19.469 22.944)">
				<path id="Path_13660" fill="#2FDF84" d="M-0.7-6.1v17.3L4.1,8L9,11.2V-6.1L-0.7-6.1z"/>
			</g>
			<g id="Group_7115" transform="translate(0 11.088)">
				<path id="Path_13661" fill="#00B871" d="M4.1,3.6V-4c0-1.2,1-2.2,2.2-2.2H1.4c-1.2,0-2.2,1-2.2,2.2v7.6c0,1.2,1,2.2,2.2,2.2
					c0,0,0,0,0,0h4.9C5.1,5.8,4.1,4.8,4.1,3.6L4.1,3.6z"/>
			</g>
			<g id="Group_7116" transform="translate(4.327 22.944)">
				<path id="Path_13662" fill="#D5DBE1" d="M4.1,15.5V-6.1h-4.9v21.7c0,2.4,1.9,4.3,4.3,4.3h4.9C6.1,19.9,4.1,17.9,4.1,15.5z"/>
			</g>
			<g id="Group_7117" transform="translate(14.062 0.008)">
				<path id="Path_13663" fill="#00B871" d="M5.3,0.9c-1.6-1.6-1.6-4.2,0-5.8c0,0,0,0,0,0c0.1-0.1,0.3-0.3,0.5-0.4
					C4-6.7,1.4-6.3,0.1-4.5c-1.2,1.6-1.1,4,0.4,5.4c1.6,1.6,9.1,3.3,9.1,3.3S9.4,3.6,9.2,2.7C7.8,2.3,6.5,1.7,5.3,0.9z"/>
			</g>
			<g id="Group_7118" transform="translate(24.337 0.008)">
				<path id="Path_13664" fill="#00B871" d="M7.4-4.9c0.1-0.1,0.3-0.3,0.5-0.4c-1.6-1.2-3.9-1-5.3,0.4C0.9-3.3-0.7,4.1-0.7,4.1
					S2,3.5,4.5,2.7C5,0.5,6.2-3.8,7.4-4.9z"/>
			</g>
			<g id="Group_7121" transform="translate(19.469 22.944)">
				<g id="Group_7119" transform="translate(0)">
					<path id="Path_13665" fill="#00B871" d="M4.1-6.1l4.9,0v0l-9.7,0v17.3L4.1,8L4.1-6.1z"/>
				</g>
				<g id="Group_7120" transform="translate(7.301 14.102)">
					<path id="Path_13666" fill="#00B871" d="M1.7-2.9v-3.2l-2.4,1.6L1.7-2.9z"/>
				</g>
			</g>
		</g>
		<g id="_x31_.5" transform="translate(12.823 10.65)">
			<g id="Group_7122" transform="translate(0 11.032)">
				<path id="Path_13667" d="M47.4,9H3C0.9,9-0.7,7.3-0.7,5.2v-7.6c0-2.1,1.7-3.8,3.8-3.8h44.3c2.1,0,3.8,1.7,3.8,3.8v7.6
					C51.2,7.3,49.5,9,47.4,9z M3-2.9c-0.3,0-0.5,0.2-0.5,0.5v0v7.6c0,0.3,0.2,0.5,0.5,0.5h0h44.3c0.3,0,0.5-0.2,0.5-0.5l0,0v-7.6
					c0-0.3-0.2-0.5-0.5-0.5l0,0H3z"/>
			</g>
			<g id="Group_7123" transform="translate(4.327 25.093)">
				<path id="Path_13668" d="M36.6,20.9H5.2c-3.3,0-5.9-2.7-5.9-5.9V-6.1h3.2V15c0,1.5,1.2,2.7,2.7,2.7h31.4c1.5,0,2.7-1.2,2.7-2.7
					V-6.1h3.2V15C42.5,18.2,39.9,20.9,36.6,20.9z"/>
			</g>
			<g id="Group_7124" transform="translate(14.061)">
				<path id="Path_13669" d="M11.2,7.3c-0.1,0-0.2,0-0.4,0C8.9,6.9,2.7,5.4,0.9,3.6c-2.2-2.2-2.2-5.9,0-8.1c2.3-2.2,5.8-2.2,8.1,0
					c1.8,1.8,3.3,8,3.7,9.9c0.2,0.9-0.4,1.7-1.2,1.9C11.4,7.3,11.3,7.3,11.2,7.3z M5-2.9c-1.4,0-2.5,1.1-2.5,2.5
					c0,0.7,0.3,1.3,0.7,1.8c0.6,0.6,3.1,1.5,5.7,2.2C8.2,0.8,7.3-1.6,6.7-2.2C6.3-2.7,5.6-2.9,5-2.9L5-2.9z"/>
			</g>
			<g id="Group_7125" transform="translate(24.336 0.002)">
				<path id="Path_13670" d="M0.9,7.3C0,7.3-0.7,6.6-0.7,5.7c0-0.1,0-0.2,0-0.3C-0.3,3.5,1.2-2.7,3-4.5c2.3-2.2,5.8-2.2,8.1,0
					c2.2,2.2,2.2,5.9,0,8.1c-1.8,1.8-8,3.3-9.9,3.7C1.1,7.3,1,7.3,0.9,7.3L0.9,7.3z M7-2.9c-0.7,0-1.3,0.3-1.8,0.7
					C4.7-1.6,3.8,0.8,3.1,3.5c2.6-0.7,5.1-1.6,5.7-2.2c1-1,1-2.5,0-3.5C8.3-2.7,7.7-2.9,7-2.9L7-2.9z"/>
			</g>
			<g id="Group_7126" transform="translate(19.469 25.093)">
				<path id="Path_13671" d="M10.6,12.3c-0.3,0-0.6-0.1-0.9-0.3l-4-2.6l-4,2.6C1,12.5,0,12.3-0.5,11.5c-0.2-0.3-0.3-0.6-0.3-0.9
					V-6.1h3.2V7.6L4.8,6c0.5-0.4,1.3-0.4,1.8,0L9,7.6V-6.1h3.2v16.8C12.2,11.5,11.5,12.3,10.6,12.3L10.6,12.3z"/>
			</g>
		</g>
	</g>
</g>
<g id="Group_8003" transform="translate(0.238 -101.358)" display="none">
	<g id="Group_7998" display="inline">
		<g id="Group_7103_1_" transform="translate(0 -243)">
			<g id="Group_7100_1_">
				<g id="Group_7095_1_" transform="translate(23.458 343.316)">
					<g id="Group_7099_1_">
						<path id="Path_13645_1_" fill="#4A94FA" d="M-24.4,0.9h163.3v106.4H-24.4V0.9z"/>
						<g id="Group_7098_1_" transform="translate(-23.696 7.041)">
							<path id="Path_13630_1_" fill="#67A7FF" d="M29,100.3l16.4-41.6L-0.7,88.4v11.9L29,100.3z"/>
							<path id="Path_13631_1_" fill="#418AED" d="M136.9-6.1L77.5,22.1l29.7-28.2H136.9z"/>
							<path id="Path_13632_1_" fill="#3077D8" d="M14.5-6.1l16.7,17.9L-0.7,4.2V-6.1H14.5z"/>
							<path id="Path_13633_1_" fill="#267EF7" d="M61.2-6.1l-1.9,17.9l-6-17.9H61.2z"/>
							<path id="Path_13634_1_" fill="#2868C1" d="M102.6,100.3L89.2,70.4l26.2,9.1l-6.5,2.8l4.1,7.3l-7.7,3.3l4.1,7.3L102.6,100.3z
								"/>
							<path id="Path_13635_1_" fill="#73ADFD" d="M115.3,68.4l-3.2,1.3L93.1,49.9l25.9,7.8l-7.7,3.3L115.3,68.4z"/>
							<path id="Path_13636_1_" fill="#9AC4FF" d="M-0.7,50.8l27-7.8l-27-7.8L-0.7,50.8z"/>
							<path id="Path_13637_1_" fill="#337EE5" d="M84.2,100.3L66.9,69.6l2.9,30.7H84.2z"/>
							<path id="Path_13638_1_" fill="#3375D0" d="M129.9,25.8l-36.8,7.9l38.4-22.2l2,3.6l-7.7,3.4L129.9,25.8z"/>
							<path id="Path_13639_1_" fill="#2A7EF2" d="M-0.7,78.6L15.2,69l-15.9,3V78.6z"/>
							<path id="Path_13640_1_" fill="#2179F4" d="M52.3,100.3l-5.5-18.9v19.1L52.3,100.3z"/>
							<path id="Path_13641_1_" fill="#A2C9FF" d="M46.9-6.1l-3.3,18.8L28.6-6.1L46.9-6.1z"/>
							<path id="Path_13642_1_" fill="#AACEFF" d="M94.8,100.3L84.7,81.4l4,18.9H94.8z"/>
						</g>
					</g>
					<g transform="matrix(1, 0, 0, 1, -23.7, 1.04)">
						<path id="Path_13644-2_1_" fill="#FFFFFF" d="M98.2,88.3l5,7.3v0L93.8,99l5,7.3H413V-0.1H143.4l0,0L134,3.2l5,7.3l0,0.1
							l-9.4,3.3l5,7.3l0,0.1l-9.4,3.3l5,7.3l0,0.1l-9.4,3.3l5,7.3l0,0.1l-9.4,3.3l5,7.3l0,0l-9.4,3.3l5,7.3l0,0l-9.4,3.3l5,7.3l0,0
							l-9.5,3.3l5,7.3l0,0L98.2,88.3z"/>
					</g>
				</g>
			</g>
		</g>
		<g id="money" transform="translate(35.061 135.102)">
			<circle id="Ellipse_1655" fill="#FFE14D" cx="25.2" cy="19.8" r="26"/>
			<path id="Path_15080" fill="#FFBB33" d="M51.1,19.8c0-14.3-11.6-25.9-25.9-25.9v51.8C39.5,45.7,51.1,34.1,51.1,19.8z"/>
			<g id="Group_7997" transform="translate(6.254 6.171)">
				<g id="Group_7996">
					<path id="Path_15081" fill="#FFBB33" d="M19,33.3c-10.9,0-19.7-8.8-19.7-19.7S8.1-6.1,19-6.1s19.7,8.8,19.7,19.7c0,0,0,0,0,0
						C38.7,24.5,29.9,33.3,19,33.3z"/>
				</g>
			</g>
			<path id="Path_15082" fill="#E68A2E" d="M45,19.8C44.9,8.9,36.1,0.1,25.2,0v39.5C36.1,39.5,44.9,30.7,45,19.8z"/>
		</g>
	</g>
</g>
<g id="Group_7103_2_" transform="translate(0.238 -344.358)">
	<g id="Group_7100_2_">
		<g id="Group_7095_2_" transform="translate(23.458 343.316)">
			<g id="Group_7099_2_">
				<path id="Path_13645_2_" fill="#009688" d="M-24.4,0.9h163.3v106.4H-24.4V0.9z"/>
				<g id="Group_7098_2_" transform="translate(-23.696 7.041)">
					<path id="Path_13630_2_" fill="#05C7B5" d="M29,100.3l16.4-41.6L-0.7,88.4v11.9L29,100.3z"/>
					<path id="Path_13631_2_" fill="#038478" d="M136.9-6.1L77.5,22.1l29.7-28.2H136.9z"/>
					<path id="Path_13632_2_" fill="#007166" d="M14.5-6.1l16.7,17.9L-0.7,4.2V-6.1H14.5z"/>
					<path id="Path_13633_2_" fill="#0C807B" d="M61.2-6.1l-1.9,17.9l-6-17.9H61.2z"/>
					<path id="Path_13634_2_" fill="#008074" d="M102.6,100.3L89.2,70.4l26.2,9.1l-6.5,2.8l4.1,7.3l-7.7,3.3l4.1,7.3L102.6,100.3z"
						/>
					<path id="Path_13635_2_" fill="#19D9C7" d="M115.3,68.4l-3.2,1.3L93.1,49.9l25.9,7.8l-7.7,3.3L115.3,68.4z"/>
					<path id="Path_13636_2_" fill="#4FDDDD" d="M-0.7,50.8l27-7.8l-27-7.8L-0.7,50.8z"/>
					<path id="Path_13637_2_" fill="#03AD9D" d="M84.2,100.3L66.9,69.6l2.9,30.7H84.2z"/>
					<path id="Path_13638_2_" fill="#04AD9E" d="M129.9,25.8l-36.8,7.9l38.4-22.2l2,3.6l-7.7,3.4L129.9,25.8z"/>
					<path id="Path_13639_2_" fill="#06F5DA" d="M-0.7,78.6L15.2,69l-15.9,3V78.6z"/>
					<path id="Path_13640_2_" fill="#017268" d="M52.3,100.3l-5.5-18.9v19.1L52.3,100.3z"/>
					<path id="Path_13641_2_" fill="#00CEB6" d="M46.9-6.1l-3.3,18.8L28.6-6.1L46.9-6.1z"/>
					<path id="Path_13642_2_" fill="#04CEBB" d="M94.8,100.3L84.7,81.4l4,18.9H94.8z"/>
				</g>
			</g>
			<g transform="matrix(1, 0, 0, 1, -23.7, 1.04)">
				<path id="Path_13644-2_2_" fill="#FFFFFF" d="M98.2,88.3l5,7.3v0L93.8,99l5,7.3H413V-0.1H143.4l0,0L134,3.2l5,7.3l0,0.1
					l-9.4,3.3l5,7.3l0,0.1l-9.4,3.3l5,7.3l0,0.1l-9.4,3.3l5,7.3l0,0.1l-9.4,3.3l5,7.3l0,0l-9.4,3.3l5,7.3l0,0l-9.4,3.3l5,7.3l0,0
					l-9.5,3.3l5,7.3l0,0L98.2,88.3z"/>
			</g>
		</g>
	</g>
	<g id="christmas-present_2_" transform="translate(15.083 367.373)">
		<g id="effect_1_" transform="translate(5.046 5.349)">
			<g id="Group_7108_1_" transform="translate(0 5.632)">
				<g id="Group_7105_1_" transform="translate(8.796 0.382)">
					<path id="Path_13652_1_" fill="#F8F86B" d="M-0.7-3.1l3.1-3.1l1.5,1.5L0.8-1.5L-0.7-3.1z"/>
				</g>
				<g id="Group_7106_1_" transform="translate(0 9.175)">
					<path id="Path_13653_1_" fill="#F8F86B" d="M-0.7-3.1l3.1-3.1l1.5,1.5L0.8-1.5L-0.7-3.1z"/>
				</g>
				<g id="Group_7107_1_" transform="translate(0.002 0)">
					<path id="Path_13654_1_" fill="#F8F86B" d="M-0.7-4.6l1.5-1.5l3.1,3.1L2.3-1.5L-0.7-4.6z"/>
				</g>
			</g>
		</g>
		<g id="color_1_" transform="translate(14.446 12.217)">
			<g id="Group_7110_1_" transform="translate(0 11.088)">
				<path id="Path_13656_1_" fill="#2FDF84" d="M45.8,5.8H1.4c-1.2,0-2.2-1-2.2-2.2c0,0,0,0,0,0V-4c0-1.2,1-2.2,2.2-2.2h44.3
					c1.2,0,2.2,1,2.2,2.2v7.6C47.9,4.8,47,5.8,45.8,5.8C45.8,5.8,45.8,5.8,45.8,5.8z"/>
			</g>
			<g id="Group_7111_1_" transform="translate(4.327 22.944)">
				<path id="Path_13657_1_" fill="#F3F3F1" d="M-0.7-6.1v21.7c0,2.4,1.9,4.3,4.3,4.3h31.4c2.4,0,4.3-1.9,4.3-4.3V-6.1H-0.7z"/>
			</g>
			<g id="Group_7112_1_" transform="translate(14.06)">
				<path id="Path_13658_1_" fill="#2FDF84" d="M6.3-4.9c1.6,1.6,3.3,9.1,3.3,9.1S2.1,2.5,0.5,0.9c-1.6-1.6-1.6-4.2,0.1-5.8
					C2.1-6.5,4.7-6.5,6.3-4.9z"/>
			</g>
			<g id="Group_7113_1_" transform="translate(24.337)">
				<path id="Path_13659_1_" fill="#2FDF84" d="M2.5-4.9C0.9-3.3-0.7,4.1-0.7,4.1s7.5-1.7,9.1-3.3c1.6-1.6,1.6-4.2-0.1-5.8
					C6.7-6.5,4.1-6.5,2.5-4.9z"/>
			</g>
			<g id="Group_7114_1_" transform="translate(19.469 22.944)">
				<path id="Path_13660_1_" fill="#2FDF84" d="M-0.7-6.1v17.3L4.1,8L9,11.2V-6.1L-0.7-6.1z"/>
			</g>
			<g id="Group_7115_1_" transform="translate(0 11.088)">
				<path id="Path_13661_1_" fill="#00B871" d="M4.1,3.6V-4c0-1.2,1-2.2,2.2-2.2H1.4c-1.2,0-2.2,1-2.2,2.2v7.6c0,1.2,1,2.2,2.2,2.2
					c0,0,0,0,0,0h4.9C5.1,5.8,4.1,4.8,4.1,3.6L4.1,3.6z"/>
			</g>
			<g id="Group_7116_1_" transform="translate(4.327 22.944)">
				<path id="Path_13662_1_" fill="#D5DBE1" d="M4.1,15.5V-6.1h-4.9v21.7c0,2.4,1.9,4.3,4.3,4.3h4.9C6.1,19.9,4.1,17.9,4.1,15.5z"/>
			</g>
			<g id="Group_7117_1_" transform="translate(14.062 0.008)">
				<path id="Path_13663_1_" fill="#00B871" d="M5.3,0.9c-1.6-1.6-1.6-4.2,0-5.8c0,0,0,0,0,0c0.1-0.1,0.3-0.3,0.5-0.4
					C4-6.7,1.4-6.3,0.1-4.5c-1.2,1.6-1.1,4,0.4,5.4c1.6,1.6,9.1,3.3,9.1,3.3S9.4,3.6,9.2,2.7C7.8,2.3,6.5,1.7,5.3,0.9z"/>
			</g>
			<g id="Group_7118_1_" transform="translate(24.337 0.008)">
				<path id="Path_13664_1_" fill="#00B871" d="M7.4-4.9c0.1-0.1,0.3-0.3,0.5-0.4c-1.6-1.2-3.9-1-5.3,0.4C0.9-3.3-0.7,4.1-0.7,4.1
					S2,3.5,4.5,2.7C5,0.5,6.2-3.8,7.4-4.9z"/>
			</g>
			<g id="Group_7121_1_" transform="translate(19.469 22.944)">
				<g id="Group_7119_1_" transform="translate(0)">
					<path id="Path_13665_1_" fill="#00B871" d="M4.1-6.1l4.9,0v0l-9.7,0v17.3L4.1,8L4.1-6.1z"/>
				</g>
				<g id="Group_7120_1_" transform="translate(7.301 14.102)">
					<path id="Path_13666_1_" fill="#00B871" d="M1.7-2.9v-3.2l-2.4,1.6L1.7-2.9z"/>
				</g>
			</g>
		</g>
		<g id="_x31_.5_1_" transform="translate(12.823 10.65)">
			<g id="Group_7122_1_" transform="translate(0 11.032)">
				<path id="Path_13667_1_" d="M47.4,9H3C0.9,9-0.7,7.3-0.7,5.2v-7.6c0-2.1,1.7-3.8,3.8-3.8h44.3c2.1,0,3.8,1.7,3.8,3.8v7.6
					C51.2,7.3,49.5,9,47.4,9z M3-2.9c-0.3,0-0.5,0.2-0.5,0.5v0v7.6c0,0.3,0.2,0.5,0.5,0.5h0h44.3c0.3,0,0.5-0.2,0.5-0.5l0,0v-7.6
					c0-0.3-0.2-0.5-0.5-0.5l0,0H3z"/>
			</g>
			<g id="Group_7123_1_" transform="translate(4.327 25.093)">
				<path id="Path_13668_1_" d="M36.6,20.9H5.2c-3.3,0-5.9-2.7-5.9-5.9V-6.1h3.2V15c0,1.5,1.2,2.7,2.7,2.7h31.4
					c1.5,0,2.7-1.2,2.7-2.7V-6.1h3.2V15C42.5,18.2,39.9,20.9,36.6,20.9z"/>
			</g>
			<g id="Group_7124_1_" transform="translate(14.061)">
				<path id="Path_13669_1_" d="M11.2,7.3c-0.1,0-0.2,0-0.4,0C8.9,6.9,2.7,5.4,0.9,3.6c-2.2-2.2-2.2-5.9,0-8.1
					c2.3-2.2,5.8-2.2,8.1,0c1.8,1.8,3.3,8,3.7,9.9c0.2,0.9-0.4,1.7-1.2,1.9C11.4,7.3,11.3,7.3,11.2,7.3z M5-2.9
					c-1.4,0-2.5,1.1-2.5,2.5c0,0.7,0.3,1.3,0.7,1.8c0.6,0.6,3.1,1.5,5.7,2.2C8.2,0.8,7.3-1.6,6.7-2.2C6.3-2.7,5.6-2.9,5-2.9L5-2.9z"
					/>
			</g>
			<g id="Group_7125_1_" transform="translate(24.336 0.002)">
				<path id="Path_13670_1_" d="M0.9,7.3C0,7.3-0.7,6.6-0.7,5.7c0-0.1,0-0.2,0-0.3C-0.3,3.5,1.2-2.7,3-4.5c2.3-2.2,5.8-2.2,8.1,0
					c2.2,2.2,2.2,5.9,0,8.1c-1.8,1.8-8,3.3-9.9,3.7C1.1,7.3,1,7.3,0.9,7.3L0.9,7.3z M7-2.9c-0.7,0-1.3,0.3-1.8,0.7
					C4.7-1.6,3.8,0.8,3.1,3.5c2.6-0.7,5.1-1.6,5.7-2.2c1-1,1-2.5,0-3.5C8.3-2.7,7.7-2.9,7-2.9L7-2.9z"/>
			</g>
			<g id="Group_7126_1_" transform="translate(19.469 25.093)">
				<path id="Path_13671_1_" d="M10.6,12.3c-0.3,0-0.6-0.1-0.9-0.3l-4-2.6l-4,2.6C1,12.5,0,12.3-0.5,11.5c-0.2-0.3-0.3-0.6-0.3-0.9
					V-6.1h3.2V7.6L4.8,6c0.5-0.4,1.3-0.4,1.8,0L9,7.6V-6.1h3.2v16.8C12.2,11.5,11.5,12.3,10.6,12.3L10.6,12.3z"/>
			</g>
		</g>
	</g>
</g>
</svg>
