<svg xmlns="http://www.w3.org/2000/svg" viewBox="0 0 414 107.02"><g id="Layer_2" data-name="Layer 2"><g id="Layer_1-2" data-name="Layer 1"><g id="Layer_2-2" data-name="Layer 2"><g id="Layer_1-2-2" data-name="Layer 1-2"><g id="Group_7608" data-name="Group 7608"><g id="Group_7600" data-name="Group 7600"><g id="Group_7597" data-name="Group 7597"><g id="Group_7570" data-name="Group 7570"><g id="Group_7561" data-name="Group 7561"><g id="Group_7180" data-name="Group 7180"><rect id="Rectangle_4672-2" data-name="Rectangle 4672-2" y="0.02" width="414" height="107" fill="#fff"/></g><g id="Group_7560" data-name="Group 7560" opacity="0.5"><g id="Group_7562" data-name="Group 7562" opacity="0.32"><g id="Group_7553" data-name="Group 7553"><g id="Group_6434" data-name="Group 6434"><circle id="Ellipse_1636" data-name="Ellipse 1636" cx="410.58" cy="2.97" r="2.97" fill="#009688"/><circle id="Ellipse_1637" data-name="Ellipse 1637" cx="400.2" cy="2.97" r="2.97" fill="#009688"/><circle id="Ellipse_1638" data-name="Ellipse 1638" cx="389.81" cy="2.97" r="2.97" fill="#009688"/><circle id="Ellipse_1639" data-name="Ellipse 1639" cx="379.42" cy="2.97" r="2.97" fill="#009688"/></g><g id="Group_6435" data-name="Group 6435"><circle id="Ellipse_1636-2" data-name="Ellipse 1636-2" cx="410.58" cy="11.87" r="2.97" fill="#009688"/><circle id="Ellipse_1637-2" data-name="Ellipse 1637-2" cx="400.2" cy="11.87" r="2.97" fill="#009688"/><circle id="Ellipse_1638-2" data-name="Ellipse 1638-2" cx="389.81" cy="11.87" r="2.97" fill="#009688"/><circle id="Ellipse_1639-2" data-name="Ellipse 1639-2" cx="379.42" cy="11.87" r="2.97" fill="#009688"/></g></g><g id="Group_7557" data-name="Group 7557"><g id="Group_6432" data-name="Group 6432"><circle id="Ellipse_1636-3" data-name="Ellipse 1636-3" cx="409" cy="60.94" r="4.57" fill="#009688"/></g><g id="Group_6433" data-name="Group 6433"><circle id="Ellipse_1636-4" data-name="Ellipse 1636-4" cx="409" cy="74.66" r="4.57" fill="#009688"/><circle id="Ellipse_1637-3" data-name="Ellipse 1637-3" cx="393" cy="74.66" r="4.57" fill="#009688"/></g><g id="Group_6434-2" data-name="Group 6434-2"><circle id="Ellipse_1636-5" data-name="Ellipse 1636-5" cx="409" cy="88.37" r="4.57" fill="#009688"/><circle id="Ellipse_1637-4" data-name="Ellipse 1637-4" cx="393" cy="88.37" r="4.57" fill="#009688"/><circle id="Ellipse_1638-3" data-name="Ellipse 1638-3" cx="377" cy="88.37" r="4.57" fill="#009688"/></g><g id="Group_6435-2" data-name="Group 6435-2"><circle id="Ellipse_1636-6" data-name="Ellipse 1636-6" cx="409" cy="102.09" r="4.57" fill="#009688"/><circle id="Ellipse_1637-5" data-name="Ellipse 1637-5" cx="393" cy="102.09" r="4.57" fill="#009688"/><circle id="Ellipse_1638-4" data-name="Ellipse 1638-4" cx="377" cy="102.09" r="4.57" fill="#009688"/><circle id="Ellipse_1639-3" data-name="Ellipse 1639-3" cx="361" cy="102.09" r="4.57" fill="#009688"/></g></g><g id="Group_7555" data-name="Group 7555"><g id="Group_6432-2" data-name="Group 6432-2"><circle id="Ellipse_1636-7" data-name="Ellipse 1636-7" cx="244.93" cy="13.15" r="2.08" fill="#009688"/><circle id="Ellipse_1637-6" data-name="Ellipse 1637-6" cx="237.64" cy="13.15" r="2.08" fill="#009688"/><circle id="Ellipse_1638-5" data-name="Ellipse 1638-5" cx="230.36" cy="13.15" r="2.08" fill="#009688"/><circle id="Ellipse_1639-4" data-name="Ellipse 1639-4" cx="223.07" cy="13.15" r="2.08" fill="#009688"/></g><g id="Group_6433-2" data-name="Group 6433-2"><circle id="Ellipse_1636-8" data-name="Ellipse 1636-8" cx="244.93" cy="19.39" r="2.08" fill="#009688"/><circle id="Ellipse_1637-7" data-name="Ellipse 1637-7" cx="237.64" cy="19.39" r="2.08" fill="#009688"/><circle id="Ellipse_1638-6" data-name="Ellipse 1638-6" cx="230.36" cy="19.39" r="2.08" fill="#009688"/><circle id="Ellipse_1639-5" data-name="Ellipse 1639-5" cx="223.07" cy="19.39" r="2.08" fill="#009688"/></g><g id="Group_6434-3" data-name="Group 6434-3"><circle id="Ellipse_1636-9" data-name="Ellipse 1636-9" cx="244.93" cy="25.64" r="2.08" fill="#009688"/><circle id="Ellipse_1637-8" data-name="Ellipse 1637-8" cx="237.64" cy="25.64" r="2.08" fill="#009688"/><circle id="Ellipse_1638-7" data-name="Ellipse 1638-7" cx="230.36" cy="25.64" r="2.08" fill="#009688"/><circle id="Ellipse_1639-6" data-name="Ellipse 1639-6" cx="223.07" cy="25.64" r="2.08" fill="#009688"/></g><g id="Group_6435-3" data-name="Group 6435-3"><circle id="Ellipse_1636-10" data-name="Ellipse 1636-10" cx="244.93" cy="31.88" r="2.08" fill="#009688"/><circle id="Ellipse_1637-9" data-name="Ellipse 1637-9" cx="237.64" cy="31.88" r="2.08" fill="#009688"/><circle id="Ellipse_1638-8" data-name="Ellipse 1638-8" cx="230.36" cy="31.88" r="2.08" fill="#009688"/><circle id="Ellipse_1639-7" data-name="Ellipse 1639-7" cx="223.07" cy="31.88" r="2.08" fill="#009688"/></g></g><g id="Group_7564" data-name="Group 7564"><g id="Group_6432-3" data-name="Group 6432-3"><circle id="Ellipse_1636-11" data-name="Ellipse 1636-11" cx="186.74" cy="52.31" r="3.38" fill="#009688"/><circle id="Ellipse_1637-10" data-name="Ellipse 1637-10" cx="174.91" cy="52.31" r="3.38" fill="#009688"/><circle id="Ellipse_1638-9" data-name="Ellipse 1638-9" cx="163.09" cy="52.31" r="3.38" fill="#009688"/><circle id="Ellipse_1639-8" data-name="Ellipse 1639-8" cx="151.26" cy="52.31" r="3.38" fill="#009688"/></g><g id="Group_6433-3" data-name="Group 6433-3"><circle id="Ellipse_1636-12" data-name="Ellipse 1636-12" cx="186.74" cy="62.45" r="3.38" fill="#009688"/><circle id="Ellipse_1637-11" data-name="Ellipse 1637-11" cx="174.91" cy="62.45" r="3.38" fill="#009688"/><circle id="Ellipse_1638-10" data-name="Ellipse 1638-10" cx="163.09" cy="62.45" r="3.38" fill="#009688"/><circle id="Ellipse_1639-9" data-name="Ellipse 1639-9" cx="151.26" cy="62.45" r="3.38" fill="#009688"/></g><g id="Group_6434-4" data-name="Group 6434-4"><circle id="Ellipse_1636-13" data-name="Ellipse 1636-13" cx="186.74" cy="72.58" r="3.38" fill="#009688"/><circle id="Ellipse_1637-12" data-name="Ellipse 1637-12" cx="174.91" cy="72.58" r="3.38" fill="#009688"/><circle id="Ellipse_1638-11" data-name="Ellipse 1638-11" cx="163.09" cy="72.58" r="3.38" fill="#009688"/><circle id="Ellipse_1639-10" data-name="Ellipse 1639-10" cx="151.26" cy="72.58" r="3.38" fill="#009688"/></g><g id="Group_6435-4" data-name="Group 6435-4"><circle id="Ellipse_1636-14" data-name="Ellipse 1636-14" cx="186.74" cy="82.72" r="3.38" fill="#009688"/><circle id="Ellipse_1637-13" data-name="Ellipse 1637-13" cx="174.91" cy="82.72" r="3.38" fill="#009688"/><circle id="Ellipse_1638-12" data-name="Ellipse 1638-12" cx="163.09" cy="82.72" r="3.38" fill="#009688"/><circle id="Ellipse_1639-11" data-name="Ellipse 1639-11" cx="151.26" cy="82.72" r="3.38" fill="#009688"/></g></g><g id="Group_7556" data-name="Group 7556"><g id="Group_6432-4" data-name="Group 6432-4"><circle id="Ellipse_1636-15" data-name="Ellipse 1636-15" cx="328.93" cy="72.58" r="1.32" fill="#009688"/><circle id="Ellipse_1637-14" data-name="Ellipse 1637-14" cx="324.31" cy="72.58" r="1.32" fill="#009688"/><circle id="Ellipse_1638-13" data-name="Ellipse 1638-13" cx="319.69" cy="72.58" r="1.32" fill="#009688"/><circle id="Ellipse_1639-12" data-name="Ellipse 1639-12" cx="315.07" cy="72.58" r="1.32" fill="#009688"/></g><g id="Group_6433-4" data-name="Group 6433-4"><circle id="Ellipse_1636-16" data-name="Ellipse 1636-16" cx="328.93" cy="76.54" r="1.32" fill="#009688"/><circle id="Ellipse_1637-15" data-name="Ellipse 1637-15" cx="324.31" cy="76.54" r="1.32" fill="#009688"/><circle id="Ellipse_1638-14" data-name="Ellipse 1638-14" cx="319.69" cy="76.54" r="1.32" fill="#009688"/><circle id="Ellipse_1639-13" data-name="Ellipse 1639-13" cx="315.07" cy="76.54" r="1.32" fill="#009688"/></g><g id="Group_6434-5" data-name="Group 6434-5"><circle id="Ellipse_1636-17" data-name="Ellipse 1636-17" cx="328.93" cy="80.49" r="1.32" fill="#009688"/><circle id="Ellipse_1637-16" data-name="Ellipse 1637-16" cx="324.31" cy="80.49" r="1.32" fill="#009688"/><circle id="Ellipse_1638-15" data-name="Ellipse 1638-15" cx="319.69" cy="80.49" r="1.32" fill="#009688"/><circle id="Ellipse_1639-14" data-name="Ellipse 1639-14" cx="315.07" cy="80.49" r="1.32" fill="#009688"/></g><g id="Group_6435-5" data-name="Group 6435-5"><circle id="Ellipse_1636-18" data-name="Ellipse 1636-18" cx="328.93" cy="84.45" r="1.32" fill="#009688"/><circle id="Ellipse_1637-17" data-name="Ellipse 1637-17" cx="324.31" cy="84.45" r="1.32" fill="#009688"/><circle id="Ellipse_1638-16" data-name="Ellipse 1638-16" cx="319.69" cy="84.45" r="1.32" fill="#009688"/><circle id="Ellipse_1639-15" data-name="Ellipse 1639-15" cx="315.07" cy="84.45" r="1.32" fill="#009688"/></g></g><g id="Group_7558" data-name="Group 7558"><g id="Group_6432-5" data-name="Group 6432-5"><circle id="Ellipse_1636-19" data-name="Ellipse 1636-19" cx="235.93" cy="65.58" r="1.32" fill="#009688"/><circle id="Ellipse_1637-18" data-name="Ellipse 1637-18" cx="231.31" cy="65.58" r="1.32" fill="#009688"/><circle id="Ellipse_1638-17" data-name="Ellipse 1638-17" cx="226.69" cy="65.58" r="1.32" fill="#009688"/><circle id="Ellipse_1639-16" data-name="Ellipse 1639-16" cx="222.07" cy="65.58" r="1.32" fill="#009688"/></g><g id="Group_6433-5" data-name="Group 6433-5"><circle id="Ellipse_1636-20" data-name="Ellipse 1636-20" cx="235.93" cy="69.54" r="1.32" fill="#009688"/><circle id="Ellipse_1637-19" data-name="Ellipse 1637-19" cx="231.31" cy="69.54" r="1.32" fill="#009688"/><circle id="Ellipse_1638-18" data-name="Ellipse 1638-18" cx="226.69" cy="69.54" r="1.32" fill="#009688"/><circle id="Ellipse_1639-17" data-name="Ellipse 1639-17" cx="222.07" cy="69.54" r="1.32" fill="#009688"/></g><g id="Group_6434-6" data-name="Group 6434-6"><circle id="Ellipse_1636-21" data-name="Ellipse 1636-21" cx="235.93" cy="73.49" r="1.32" fill="#009688"/><circle id="Ellipse_1637-20" data-name="Ellipse 1637-20" cx="231.31" cy="73.49" r="1.32" fill="#009688"/><circle id="Ellipse_1638-19" data-name="Ellipse 1638-19" cx="226.69" cy="73.49" r="1.32" fill="#009688"/><circle id="Ellipse_1639-18" data-name="Ellipse 1639-18" cx="222.07" cy="73.49" r="1.32" fill="#009688"/></g><g id="Group_6435-6" data-name="Group 6435-6"><circle id="Ellipse_1636-22" data-name="Ellipse 1636-22" cx="235.93" cy="77.45" r="1.32" fill="#009688"/><circle id="Ellipse_1637-21" data-name="Ellipse 1637-21" cx="231.31" cy="77.45" r="1.32" fill="#009688"/><circle id="Ellipse_1638-20" data-name="Ellipse 1638-20" cx="226.69" cy="77.45" r="1.32" fill="#009688"/><circle id="Ellipse_1639-19" data-name="Ellipse 1639-19" cx="222.07" cy="77.45" r="1.32" fill="#009688"/></g></g></g></g></g><g id="Group_7568" data-name="Group 7568"><path id="Path_13863" data-name="Path 13863" d="M0,0H107.08l31,107H0Z" fill="#1fc9b7"/></g></g><g opacity="0.5"><rect x="299.92" y="59.42" width="37.7" height="37.7" transform="translate(38.02 248.33) rotate(-45)" fill="#009688" opacity="0.25" style="isolation:isolate"/><rect x="337.52" y="59.4" width="37.7" height="37.7" transform="translate(49.05 274.91) rotate(-45)" fill="#009688" opacity="0.25" style="isolation:isolate"/><rect x="318.86" y="13.08" width="37.7" height="37.7" transform="translate(76.34 248.15) rotate(-45)" fill="#009688" opacity="0.25" style="isolation:isolate"/><rect x="341.3" y="23.51" width="37.7" height="37.7" transform="translate(75.53 267.07) rotate(-45)" fill="#009688" opacity="0.25" style="isolation:isolate"/><rect x="370.19" y="33.26" width="36" height="36" transform="translate(77.45 289.51) rotate(-45)" fill="#009688" opacity="0.25" style="isolation:isolate"/><rect x="362.01" y="10.73" width="36" height="36" transform="translate(90.99 277.12) rotate(-45)" fill="#009688" opacity="0.25" style="isolation:isolate"/></g></g><g id="Group_7596" data-name="Group 7596"><g id="Group_7593" data-name="Group 7593"><circle id="Ellipse_1651" data-name="Ellipse 1651" cx="56" cy="52.02" r="42" fill="#fff"/></g></g></g><g id="Group_7607" data-name="Group 7607"><ellipse id="Ellipse_1654" data-name="Ellipse 1654" cx="56.5" cy="75.02" rx="25.5" ry="3" fill="#dbdbdb"/><g id="Group_7606" data-name="Group 7606"><g id="coins"><path id="Path_13881" data-name="Path 13881" d="M55.91,69.63v3.26a1.62,1.62,0,0,1-1.62,1.61H35a1.62,1.62,0,0,1-1.62-1.61V69.63A1.61,1.61,0,0,1,35,68H54.29a1.63,1.63,0,0,1,1.62,1.62Z" fill="#dd9f3a"/><path id="Path_13882" data-name="Path 13882" d="M55.9,69.63v3.26a1.61,1.61,0,0,1-1.44,1.6H39a1.61,1.61,0,0,1-1.61-1.61h0V69.63A1.61,1.61,0,0,1,39,68H54.29a1.61,1.61,0,0,1,1.61,1.61h0Z" fill="#f4b74a"/><g id="Group_7585" data-name="Group 7585"><path id="Path_13883" data-name="Path 13883" d="M55.91,69.63v3.26a1.64,1.64,0,0,1-1.44,1.6H54a11.21,11.21,0,0,1-7.3-2.69c-.23-.19-.45-.4-.66-.61A10.86,10.86,0,0,1,43.83,68H54.3a1.63,1.63,0,0,1,1.61,1.63Z" fill="#dd9f3a"/><path id="Path_13884" data-name="Path 13884" d="M57,63.14V66.4A1.61,1.61,0,0,1,55.38,68H36.09a1.61,1.61,0,0,1-1.61-1.61h0V63.14a1.61,1.61,0,0,1,1.61-1.61H55.38A1.61,1.61,0,0,1,57,63.13Z" fill="#dd9f3a"/></g><path id="Path_13885" data-name="Path 13885" d="M55.9,63.14v3.27A1.62,1.62,0,0,1,54.29,68H39a1.61,1.61,0,0,1-1.61-1.61h0V63.14A1.61,1.61,0,0,1,39,61.53H54.29a1.61,1.61,0,0,1,1.61,1.61Z" fill="#f4b74a"/><g id="Group_7586" data-name="Group 7586"><path id="Path_13886" data-name="Path 13886" d="M55.91,63.14v3.27A1.63,1.63,0,0,1,54.29,68H44.91A11.33,11.33,0,0,1,44,61.53H54.29A1.62,1.62,0,0,1,55.91,63.14Z" fill="#dd9f3a"/><path id="Path_13887" data-name="Path 13887" d="M55.91,43.7V47a1.62,1.62,0,0,1-1.62,1.61H35A1.62,1.62,0,0,1,33.39,47h0V43.7A1.61,1.61,0,0,1,35,42.09H54.29A1.62,1.62,0,0,1,55.91,43.7Z" fill="#dd9f3a"/></g><path id="Path_13888" data-name="Path 13888" d="M55.9,43.7V47a1.61,1.61,0,0,1-1.61,1.61H39A1.61,1.61,0,0,1,37.36,47v0h0V43.7A1.61,1.61,0,0,1,39,42.09H54.29A1.61,1.61,0,0,1,55.9,43.7Z" fill="#f4b74a"/><g id="Group_7587" data-name="Group 7587"><rect id="Rectangle_4913" data-name="Rectangle 4913" x="50.89" y="42.08" width="2.36" height="6.48" fill="#f9c662"/><rect id="Rectangle_4914" data-name="Rectangle 4914" x="47.98" y="42.08" width="1.18" height="6.48" fill="#f9c662"/></g><path id="Path_13889" data-name="Path 13889" d="M58.8,50.18v3.26a1.61,1.61,0,0,1-1.61,1.61H37.9a1.61,1.61,0,0,1-1.61-1.61h0V50.18a1.61,1.61,0,0,1,1.61-1.61H57.19a1.61,1.61,0,0,1,1.61,1.61Z" fill="#dd9f3a"/><path id="Path_13890" data-name="Path 13890" d="M58.8,50.18v3.26a1.61,1.61,0,0,1-1.61,1.61H41.86a1.61,1.61,0,0,1-1.61-1.61h0V50.18a1.61,1.61,0,0,1,1.61-1.61H57.19a1.61,1.61,0,0,1,1.61,1.61Z" fill="#f4b74a"/><g id="Group_7588" data-name="Group 7588"><rect id="Rectangle_4915" data-name="Rectangle 4915" x="53.74" y="48.57" width="2.36" height="6.48" fill="#f9c662"/><rect id="Rectangle_4916" data-name="Rectangle 4916" x="50.82" y="48.57" width="1.18" height="6.48" fill="#f9c662"/></g><g id="Group_7589" data-name="Group 7589"><path id="Path_13891" data-name="Path 13891" d="M58.8,52.38v1.06a1.61,1.61,0,0,1-1.61,1.61H48.12A11.25,11.25,0,0,1,58.8,52.38Z" fill="#dd9f3a"/><path id="Path_13892" data-name="Path 13892" d="M55.91,56.66v3.26a1.62,1.62,0,0,1-1.62,1.61H35a1.62,1.62,0,0,1-1.62-1.61V56.66A1.61,1.61,0,0,1,35,55.05h19.3A1.62,1.62,0,0,1,55.91,56.66Z" fill="#dd9f3a"/></g><path id="Path_13893" data-name="Path 13893" d="M55.9,56.66v3.27a1.61,1.61,0,0,1-1.61,1.61H39a1.61,1.61,0,0,1-1.61-1.61h0V56.66A1.62,1.62,0,0,1,39,55.05H54.29A1.62,1.62,0,0,1,55.9,56.66Z" fill="#f4b74a"/><path id="Path_13894" data-name="Path 13894" d="M55.9,56.66v3.27a1.61,1.61,0,0,1-1.61,1.61H42.89a11.18,11.18,0,0,1,3.17-6.25l.24-.23h8a1.59,1.59,0,0,1,1.61,1.57v0Z" fill="#dd9f3a"/><path id="Path_13895" data-name="Path 13895" d="M65.31,71.2a11.24,11.24,0,0,1-15.26.61,7.57,7.57,0,0,1-.66-.61A11.26,11.26,0,0,1,65.31,55.28c.21.22.42.44.61.66A11.25,11.25,0,0,1,65.31,71.2Z" fill="#f4b74a"/><path id="Path_13896" data-name="Path 13896" d="M67.64,58.68,52.79,73.54a11,11,0,0,1-2.74-1.73L65.92,55.94A11.49,11.49,0,0,1,67.64,58.68Z" fill="#f9c662"/><path id="Path_13897" data-name="Path 13897" d="M65.31,63.24a8,8,0,1,1-2.91-6.15A8,8,0,0,1,65.31,63.24Z" fill="#ffd488"/><path id="Path_13898" data-name="Path 13898" d="M62.4,57.09,51.2,68.29h0a8,8,0,0,1,11.2-11.2Z" fill="#f9c662"/><path id="Path_13899" data-name="Path 13899" d="M61.1,56.22,50.33,67a7,7,0,0,1-.66-1.66l9.76-9.77A8.26,8.26,0,0,1,61.1,56.22Z" fill="#ffd488"/><path id="Path_13900" data-name="Path 13900" d="M51.55,74H35a1.05,1.05,0,0,1-1.06-1.06h0v-3.3A1.05,1.05,0,0,1,35,68.56h10.5a.56.56,0,0,0,0-1.11h-9.4a1.07,1.07,0,0,1-1-1h0V63.14a1.05,1.05,0,0,1,1.06-1.06h8.43a.55.55,0,0,0,.54-.55.54.54,0,0,0-.54-.54H35a1.07,1.07,0,0,1-1.07-1.07V56.66A1.07,1.07,0,0,1,35,55.59H47.58a.54.54,0,0,0,0-1.08H37.9a1.07,1.07,0,0,1-1.07-1.07V50.18a1.07,1.07,0,0,1,1.07-1.07H57.19a1.05,1.05,0,0,1,1.06,1.06h0v.4a.54.54,0,0,0,.54.54h0a.55.55,0,0,0,.55-.54v-.4A2.17,2.17,0,0,0,57.18,48h-1a2.08,2.08,0,0,0,.27-1V43.69a2.16,2.16,0,0,0-2.16-2.15H35a2.16,2.16,0,0,0-2.15,2.15V47A2.16,2.16,0,0,0,35,49.11h1a2.1,2.1,0,0,0-.29,1.07v3.26A2.12,2.12,0,0,0,36,54.51H35a2.15,2.15,0,0,0-2.15,2.15h0v3.26a2.18,2.18,0,0,0,1.45,2,2.08,2.08,0,0,0-.36,1.18v3.27a2.11,2.11,0,0,0,.36,1.19,2.13,2.13,0,0,0-1.45,2v3.26A2.15,2.15,0,0,0,35,75H51.55a.54.54,0,0,0,0-1.08ZM33.94,47V43.69a1,1,0,0,1,1-1.06H54.29a1.05,1.05,0,0,1,1.07,1h0V47a1.05,1.05,0,0,1-1.07,1H35A1.06,1.06,0,0,1,33.94,47Z"/><path id="Path_13901" data-name="Path 13901" d="M63.78,53.35a.54.54,0,0,0-.59.91,10.63,10.63,0,1,1-1.4-.77.55.55,0,0,0,.45-1,11.76,11.76,0,1,0,1.54.84Z"/><path id="Path_13902" data-name="Path 13902" d="M50.81,66.74a.55.55,0,0,0-.74-.23.55.55,0,0,0-.22.74,8.49,8.49,0,1,0-.71-1.78.55.55,0,0,0,.74.18.56.56,0,0,0,.26-.47A7.42,7.42,0,1,1,52,68.47a7.25,7.25,0,0,1-1.28-1.73Z"/><path id="Path_13903" data-name="Path 13903" d="M55.44,65.29a.54.54,0,0,0-.54-.54h0a.55.55,0,0,0-.55.54,2.74,2.74,0,0,0,2.46,2.54v.32a.54.54,0,0,0,1.08,0h0v-.32a2.55,2.55,0,0,0,0-5.09v-3a1.59,1.59,0,0,1,1.37,1.44.55.55,0,1,0,1.09,0,2.72,2.72,0,0,0-2.46-2.54v-.32a.54.54,0,0,0-1.08,0v.32a2.55,2.55,0,0,0,0,5.09v3A1.59,1.59,0,0,1,55.44,65.29Zm3.82,0a1.59,1.59,0,0,1-1.37,1.44V63.85A1.59,1.59,0,0,1,59.26,65.29ZM55.44,61.2a1.59,1.59,0,0,1,1.37-1.44v2.88A1.59,1.59,0,0,1,55.44,61.2Z"/></g><g id="down-arrow"><g id="Group_7206" data-name="Group 7206"><path id="Path_13807" data-name="Path 13807" d="M78.27,40.85a.46.46,0,0,0-.42-.28h-5V29.19a.45.45,0,0,0-.45-.45H65.13a.45.45,0,0,0-.46.44h0V40.57h-5a.46.46,0,0,0-.45.46.48.48,0,0,0,.13.32l9.08,9.11a.46.46,0,0,0,.65,0l9.1-9.11A.46.46,0,0,0,78.27,40.85Z" fill="#02b9a8"/></g></g></g></g></g></g></g></g></g></svg>