<svg xmlns="http://www.w3.org/2000/svg" xmlns:xlink="http://www.w3.org/1999/xlink" viewBox="0 0 414 97"><defs><linearGradient id="linear-gradient" x1="-148.67" y1="653.32" x2="-149.67" y2="653.31" gradientTransform="matrix(50.66, 0, 0, -60.45, 7599.06, 39547.45)" gradientUnits="userSpaceOnUse"><stop offset="0" stop-color="#00a651"/><stop offset="1" stop-color="#54b948"/></linearGradient></defs><g id="Layer_2" data-name="Layer 2"><g id="Layer_1-2" data-name="Layer 1"><g id="Group_8176" data-name="Group 8176"><g id="Group_3856" data-name="Group 3856"><g id="Group_3535" data-name="Group 3535"><g id="Group_1275" data-name="Group 1275"><g id="Group_1263" data-name="Group 1263"><g id="Group_1253" data-name="Group 1253"><rect id="Rectangle_398" data-name="Rectangle 398" width="414" height="97" fill="#fff"/></g></g></g><path id="Intersection_28-2" data-name="Intersection 28-2" d="M24.89,88a18.78,18.78,0,0,1-1.49-1.47C18.79,81.59,16,74.36,16,65.26a46,46,0,0,1,4.88-19.88c3-6,7-11.18,11.37-14.39a15.71,15.71,0,0,1,9.08-3.44A15.68,15.68,0,0,1,50.41,31a35,35,0,0,1,8.08,8.69,47.2,47.2,0,0,1,8.17,25.57c0,9.1-2.79,16.34-7.4,21.28A18.78,18.78,0,0,1,57.77,88Z" fill-opacity="0" fill="url(#linear-gradient)"/></g></g><g id="Group_5761" data-name="Group 5761"><path id="Union_12" data-name="Union 12" d="M0,97V0H78V11.12l9,6.38-9,6.38V97Z" fill="#faaf4a"/><g id="Group_5759" data-name="Group 5759"><path id="Path_3853" data-name="Path 3853" d="M40,19.77A28.23,28.23,0,1,1,11.77,48h0A28.23,28.23,0,0,1,40,19.77Z" fill="#fff"/><g id="Group_3719" data-name="Group 3719"><g id="Path_3854" data-name="Path 3854"><path d="M20.32,60.62h-.21c.13-.16.38-.41.63-.66l.7-.7.13-.13v-.19A24.56,24.56,0,0,0,21.34,55a31.61,31.61,0,0,1-.28-5.51A50.61,50.61,0,0,1,23,39.45l.06-.19-.09-.18-1.57-3.35,22.35.75-1.2,2.1-.11.2.08.22a45.55,45.55,0,0,1,2.16,10.5,63.61,63.61,0,0,1-.13,7.43c0,.75-.08,1.4-.1,2v.18l.1.14a4.61,4.61,0,0,0,.91.84c.14.11.34.26.47.38a3.33,3.33,0,0,1-.87.09A9.4,9.4,0,0,1,44,60.44H21.72A8.43,8.43,0,0,1,20.32,60.62Z" fill="#ffcb86"/><path d="M22.17,36.26l1.23,2.61.16.35-.11.38a50,50,0,0,0-1.89,9.95A31.55,31.55,0,0,0,21.83,55a24.46,24.46,0,0,1,.25,4l0,.37-.26.27-.4.4.21,0,.11,0H44s.25,0,.57,0a3.1,3.1,0,0,1-.46-.5l-.21-.28v-.34c0-.57.06-1.22.1-2a62.66,62.66,0,0,0,.13-7.37A44,44,0,0,0,42,39.16l-.15-.43.23-.39L42.88,37l-20.71-.69m-1.6-1.06,24,.8L43,38.83a45.28,45.28,0,0,1,2.19,10.64,89.88,89.88,0,0,1-.23,9.43c.51.69,2,1.31,1.5,1.8A2.21,2.21,0,0,1,45,61a10,10,0,0,1-1.14-.07H21.83a8.85,8.85,0,0,1-1.51.18c-.33,0-.61,0-.71-.18-.32-.42.25-.78,1.47-2,.14-2.35-.76-6.11-.51-9.43A50.76,50.76,0,0,1,22.49,39.3Z" fill="#707070"/></g><path id="Path_3855" data-name="Path 3855" d="M24.35,38.44s9.52,2.6,18.39.47" fill="none" stroke="#707070"/><path id="Path_3856" data-name="Path 3856" d="M21.36,58.74s15.84,1.71,21.48.65" fill="none" stroke="#707070"/><g id="Path_3857" data-name="Path 3857"><path d="M38.44,52.18l-4.9-.31h-.06l-5.2.31.42-1.76,0-.11,0-.11L28.26,48l5.21.37h.08L38.46,48l-.18,2.54v.09Z" fill="#f4f4f4"/><path d="M37.92,48.58l-4.33.33h-.15l-4.56-.32.31,1.51,0,.22,0,.22-.27,1.1,4.53-.26h.12l4.31.27-.1-.93v-.18l.14-2M27.63,47.49l5.88.42L39,47.49l-.22,3.12L39,52.72l-5.49-.35-5.88.35.59-2.42Z" fill="#707070"/></g></g><g id="Group_3853" data-name="Group 3853"><g id="Path_3854-2" data-name="Path 3854-2"><path d="M26,64.38a1.66,1.66,0,0,1-.52-.06,6.94,6.94,0,0,1,.95-1l.91-.91.12-.13,0-.18a32.5,32.5,0,0,0-.32-5,41.21,41.21,0,0,1-.35-7.13,65.92,65.92,0,0,1,2.46-13l.06-.19-.08-.18L27.09,32,56.4,33l-1.66,2.93-.11.19.08.22A58.13,58.13,0,0,1,57.5,49.88a82.87,82.87,0,0,1-.16,9.61c-.06,1-.1,1.79-.13,2.51v.17l.11.14a5.82,5.82,0,0,0,1.14,1.06,4.86,4.86,0,0,1,.77.67,3.08,3.08,0,0,1-1.37.19,13.94,13.94,0,0,1-1.41-.08H27.86l-.05,0A11.15,11.15,0,0,1,26,64.38Z" fill="#ffcb86"/><path d="M27.89,32.5l1.79,3.8.17.35-.12.38a64.91,64.91,0,0,0-2.44,12.89,40.28,40.28,0,0,0,.35,7A32.11,32.11,0,0,1,28,62.08l0,.36-.25.27-.91.92-.23.22c.59-.06,1.16-.18,1.16-.18l.11,0H56.5a13,13,0,0,0,1.35.08h.25a6.38,6.38,0,0,1-1.2-1.12l-.2-.28V62c0-.72.07-1.56.13-2.52A81.91,81.91,0,0,0,57,49.91a57.13,57.13,0,0,0-2.77-13.46L54.08,36l.23-.4,1.25-2.21L27.89,32.5m-1.6-1.05,31,1-2.06,3.64A58,58,0,0,1,58,49.85,114.77,114.77,0,0,1,57.71,62c.66.89,2.53,1.69,1.94,2.32a2.89,2.89,0,0,1-1.8.39,13,13,0,0,1-1.47-.09H27.92a11,11,0,0,1-1.94.24c-.43,0-.79-.06-.92-.24-.41-.53.32-1,1.9-2.62.18-3-1-7.88-.67-12.17a65.72,65.72,0,0,1,2.49-13.12Z" fill="#707070"/></g><path id="Path_3855-2" data-name="Path 3855-2" d="M31.17,35.62S43.46,39,54.9,36.23" fill="none" stroke="#707070"/><path id="Path_3856-2" data-name="Path 3856-2" d="M27.32,61.81S47.75,64,55,62.65" fill="none" stroke="#707070"/><g id="Path_3857-2" data-name="Path 3857-2"><path d="M49.51,53.5,43,53.1H43l-6.91.4.6-2.46,0-.11,0-.11-.62-3,6.92.49H43l6.5-.5-.24,3.45v.09Z" fill="#f4f4f4"/><path d="M49,48.39l-5.92.45h-.15l-6.26-.45.48,2.33,0,.22,0,.22L36.7,53l6.23-.36h.12L49,53l-.16-1.54v-.18l.2-2.86M35.41,47.3l7.58.54,7.08-.54-.28,4L50.07,54,43,53.59,35.41,54l.75-3.12Z" fill="#707070"/></g></g></g></g></g></g></g></svg>