<svg xmlns="http://www.w3.org/2000/svg" viewBox="0 0 414 107.1"><g id="Layer_2" data-name="Layer 2"><g id="Layer_1-2" data-name="Layer 1"><rect width="414" height="107.1" fill="#fff"/><g id="Layer_2-2" data-name="Layer 2"><g id="Layer_1-2-2" data-name="Layer 1-2"><g id="Layer_2-2-2" data-name="Layer 2-2"><g id="Layer_1-2-2-2" data-name="Layer 1-2-2"><g id="Group_7570" data-name="Group 7570"><g id="Group_7561" data-name="Group 7561"><rect width="414" height="107" fill="#fff"/><g id="Group_7560" data-name="Group 7560" opacity="0.5"><g id="Group_7562" data-name="Group 7562" opacity="0.32"><g id="Group_7553" data-name="Group 7553"><g id="Group_6434" data-name="Group 6434"><circle id="Ellipse_1636" data-name="Ellipse 1636" cx="410.5" cy="3" r="3" fill="#009688"/><circle id="Ellipse_1637" data-name="Ellipse 1637" cx="400.2" cy="3" r="3" fill="#009688"/><circle id="Ellipse_1638" data-name="Ellipse 1638" cx="389.8" cy="3" r="3" fill="#009688"/><circle id="Ellipse_1639" data-name="Ellipse 1639" cx="379.4" cy="3" r="3" fill="#009688"/></g><g id="Group_6435" data-name="Group 6435"><circle id="Ellipse_1636-2" data-name="Ellipse 1636-2" cx="410.5" cy="11.9" r="3" fill="#009688"/><circle id="Ellipse_1637-2" data-name="Ellipse 1637-2" cx="400.2" cy="11.9" r="3" fill="#009688"/><circle id="Ellipse_1638-2" data-name="Ellipse 1638-2" cx="389.8" cy="11.9" r="3" fill="#009688"/><circle id="Ellipse_1639-2" data-name="Ellipse 1639-2" cx="379.4" cy="11.9" r="3" fill="#009688"/></g></g><g id="Group_7557" data-name="Group 7557"><g id="Group_6432" data-name="Group 6432"><circle id="Ellipse_1636-3" data-name="Ellipse 1636-3" cx="409" cy="61" r="4.6" fill="#009688"/></g><g id="Group_6433" data-name="Group 6433"><circle id="Ellipse_1636-4" data-name="Ellipse 1636-4" cx="409" cy="74.7" r="4.6" fill="#009688"/><circle id="Ellipse_1637-3" data-name="Ellipse 1637-3" cx="393" cy="74.7" r="4.6" fill="#009688"/></g><g id="Group_6434-2" data-name="Group 6434-2"><circle id="Ellipse_1636-5" data-name="Ellipse 1636-5" cx="409" cy="88.4" r="4.6" fill="#009688"/><circle id="Ellipse_1637-4" data-name="Ellipse 1637-4" cx="393" cy="88.4" r="4.6" fill="#009688"/><circle id="Ellipse_1638-3" data-name="Ellipse 1638-3" cx="377" cy="88.4" r="4.6" fill="#009688"/></g><g id="Group_6435-2" data-name="Group 6435-2"><circle id="Ellipse_1636-6" data-name="Ellipse 1636-6" cx="409" cy="102.2" r="4.6" fill="#009688"/><circle id="Ellipse_1637-5" data-name="Ellipse 1637-5" cx="393" cy="102.2" r="4.6" fill="#009688"/><circle id="Ellipse_1638-4" data-name="Ellipse 1638-4" cx="377" cy="102.2" r="4.6" fill="#009688"/><circle id="Ellipse_1639-3" data-name="Ellipse 1639-3" cx="361" cy="102.2" r="4.6" fill="#009688"/></g></g><g id="Group_7555" data-name="Group 7555"><g id="Group_6432-2" data-name="Group 6432-2"><circle id="Ellipse_1636-7" data-name="Ellipse 1636-7" cx="244.9" cy="13.2" r="2.1" fill="#009688"/><circle id="Ellipse_1637-6" data-name="Ellipse 1637-6" cx="237.6" cy="13.2" r="2.1" fill="#009688"/><circle id="Ellipse_1638-5" data-name="Ellipse 1638-5" cx="230.3" cy="13.2" r="2.1" fill="#009688"/><circle id="Ellipse_1639-4" data-name="Ellipse 1639-4" cx="223" cy="13.2" r="2.1" fill="#009688"/></g><g id="Group_6433-2" data-name="Group 6433-2"><circle id="Ellipse_1636-8" data-name="Ellipse 1636-8" cx="244.9" cy="19.5" r="2.1" fill="#009688"/><circle id="Ellipse_1637-7" data-name="Ellipse 1637-7" cx="237.6" cy="19.5" r="2.1" fill="#009688"/><circle id="Ellipse_1638-6" data-name="Ellipse 1638-6" cx="230.3" cy="19.5" r="2.1" fill="#009688"/><circle id="Ellipse_1639-5" data-name="Ellipse 1639-5" cx="223" cy="19.5" r="2.1" fill="#009688"/></g><g id="Group_6434-3" data-name="Group 6434-3"><circle id="Ellipse_1636-9" data-name="Ellipse 1636-9" cx="244.9" cy="25.7" r="2.1" fill="#009688"/><circle id="Ellipse_1637-8" data-name="Ellipse 1637-8" cx="237.6" cy="25.7" r="2.1" fill="#009688"/><circle id="Ellipse_1638-7" data-name="Ellipse 1638-7" cx="230.3" cy="25.7" r="2.1" fill="#009688"/><circle id="Ellipse_1639-6" data-name="Ellipse 1639-6" cx="223" cy="25.7" r="2.1" fill="#009688"/></g><g id="Group_6435-3" data-name="Group 6435-3"><circle id="Ellipse_1636-10" data-name="Ellipse 1636-10" cx="244.9" cy="31.9" r="2.1" fill="#009688"/><circle id="Ellipse_1637-9" data-name="Ellipse 1637-9" cx="237.6" cy="31.9" r="2.1" fill="#009688"/><circle id="Ellipse_1638-8" data-name="Ellipse 1638-8" cx="230.3" cy="31.9" r="2.1" fill="#009688"/><circle id="Ellipse_1639-7" data-name="Ellipse 1639-7" cx="223" cy="31.9" r="2.1" fill="#009688"/></g></g><g id="Group_7564" data-name="Group 7564"><g id="Group_6432-3" data-name="Group 6432-3"><circle id="Ellipse_1636-11" data-name="Ellipse 1636-11" cx="186.7" cy="52.4" r="3.4" fill="#009688"/><circle id="Ellipse_1637-10" data-name="Ellipse 1637-10" cx="174.9" cy="52.4" r="3.4" fill="#009688"/><circle id="Ellipse_1638-9" data-name="Ellipse 1638-9" cx="163" cy="52.4" r="3.4" fill="#009688"/><circle id="Ellipse_1639-8" data-name="Ellipse 1639-8" cx="151.2" cy="52.4" r="3.4" fill="#009688"/></g><g id="Group_6433-3" data-name="Group 6433-3"><circle id="Ellipse_1636-12" data-name="Ellipse 1636-12" cx="186.7" cy="62.5" r="3.4" fill="#009688"/><circle id="Ellipse_1637-11" data-name="Ellipse 1637-11" cx="174.9" cy="62.5" r="3.4" fill="#009688"/><circle id="Ellipse_1638-10" data-name="Ellipse 1638-10" cx="163" cy="62.5" r="3.4" fill="#009688"/><circle id="Ellipse_1639-9" data-name="Ellipse 1639-9" cx="151.2" cy="62.5" r="3.4" fill="#009688"/></g><g id="Group_6434-4" data-name="Group 6434-4"><circle id="Ellipse_1636-13" data-name="Ellipse 1636-13" cx="186.7" cy="72.6" r="3.4" fill="#009688"/><circle id="Ellipse_1637-12" data-name="Ellipse 1637-12" cx="174.9" cy="72.6" r="3.4" fill="#009688"/><circle id="Ellipse_1638-11" data-name="Ellipse 1638-11" cx="163" cy="72.6" r="3.4" fill="#009688"/><circle id="Ellipse_1639-10" data-name="Ellipse 1639-10" cx="151.2" cy="72.6" r="3.4" fill="#009688"/></g><g id="Group_6435-4" data-name="Group 6435-4"><circle id="Ellipse_1636-14" data-name="Ellipse 1636-14" cx="186.7" cy="82.8" r="3.4" fill="#009688"/><circle id="Ellipse_1637-13" data-name="Ellipse 1637-13" cx="174.9" cy="82.8" r="3.4" fill="#009688"/><circle id="Ellipse_1638-12" data-name="Ellipse 1638-12" cx="163" cy="82.8" r="3.4" fill="#009688"/><circle id="Ellipse_1639-11" data-name="Ellipse 1639-11" cx="151.2" cy="82.8" r="3.4" fill="#009688"/></g></g><g id="Group_7556" data-name="Group 7556"><g id="Group_6432-4" data-name="Group 6432-4"><circle id="Ellipse_1636-15" data-name="Ellipse 1636-15" cx="328.9" cy="72.6" r="1.3" fill="#009688"/><circle id="Ellipse_1637-14" data-name="Ellipse 1637-14" cx="324.3" cy="72.6" r="1.3" fill="#009688"/><circle id="Ellipse_1638-13" data-name="Ellipse 1638-13" cx="319.6" cy="72.6" r="1.3" fill="#009688"/><circle id="Ellipse_1639-12" data-name="Ellipse 1639-12" cx="315" cy="72.6" r="1.3" fill="#009688"/></g><g id="Group_6433-4" data-name="Group 6433-4"><circle id="Ellipse_1636-16" data-name="Ellipse 1636-16" cx="328.9" cy="76.6" r="1.3" fill="#009688"/><circle id="Ellipse_1637-15" data-name="Ellipse 1637-15" cx="324.3" cy="76.6" r="1.3" fill="#009688"/><circle id="Ellipse_1638-14" data-name="Ellipse 1638-14" cx="319.6" cy="76.6" r="1.3" fill="#009688"/><circle id="Ellipse_1639-13" data-name="Ellipse 1639-13" cx="315" cy="76.6" r="1.3" fill="#009688"/></g><g id="Group_6434-5" data-name="Group 6434-5"><circle id="Ellipse_1636-17" data-name="Ellipse 1636-17" cx="328.9" cy="80.6" r="1.3" fill="#009688"/><circle id="Ellipse_1637-16" data-name="Ellipse 1637-16" cx="324.3" cy="80.6" r="1.3" fill="#009688"/><circle id="Ellipse_1638-15" data-name="Ellipse 1638-15" cx="319.6" cy="80.6" r="1.3" fill="#009688"/><circle id="Ellipse_1639-14" data-name="Ellipse 1639-14" cx="315" cy="80.6" r="1.3" fill="#009688"/></g><g id="Group_6435-5" data-name="Group 6435-5"><circle id="Ellipse_1636-18" data-name="Ellipse 1636-18" cx="328.9" cy="84.5" r="1.3" fill="#009688"/><circle id="Ellipse_1637-17" data-name="Ellipse 1637-17" cx="324.3" cy="84.5" r="1.3" fill="#009688"/><circle id="Ellipse_1638-16" data-name="Ellipse 1638-16" cx="319.6" cy="84.5" r="1.3" fill="#009688"/><circle id="Ellipse_1639-15" data-name="Ellipse 1639-15" cx="315" cy="84.5" r="1.3" fill="#009688"/></g></g><g id="Group_7558" data-name="Group 7558"><g id="Group_6432-5" data-name="Group 6432-5"><circle id="Ellipse_1636-19" data-name="Ellipse 1636-19" cx="235.9" cy="65.6" r="1.3" fill="#009688"/><circle id="Ellipse_1637-18" data-name="Ellipse 1637-18" cx="231.3" cy="65.6" r="1.3" fill="#009688"/><circle id="Ellipse_1638-17" data-name="Ellipse 1638-17" cx="226.6" cy="65.6" r="1.3" fill="#009688"/><circle id="Ellipse_1639-16" data-name="Ellipse 1639-16" cx="222" cy="65.6" r="1.3" fill="#009688"/></g><g id="Group_6433-5" data-name="Group 6433-5"><circle id="Ellipse_1636-20" data-name="Ellipse 1636-20" cx="235.9" cy="69.6" r="1.3" fill="#009688"/><circle id="Ellipse_1637-19" data-name="Ellipse 1637-19" cx="231.3" cy="69.6" r="1.3" fill="#009688"/><circle id="Ellipse_1638-18" data-name="Ellipse 1638-18" cx="226.6" cy="69.6" r="1.3" fill="#009688"/><circle id="Ellipse_1639-17" data-name="Ellipse 1639-17" cx="222" cy="69.6" r="1.3" fill="#009688"/></g><g id="Group_6434-6" data-name="Group 6434-6"><circle id="Ellipse_1636-21" data-name="Ellipse 1636-21" cx="235.9" cy="73.6" r="1.3" fill="#009688"/><circle id="Ellipse_1637-20" data-name="Ellipse 1637-20" cx="231.3" cy="73.6" r="1.3" fill="#009688"/><circle id="Ellipse_1638-19" data-name="Ellipse 1638-19" cx="226.6" cy="73.6" r="1.3" fill="#009688"/><circle id="Ellipse_1639-18" data-name="Ellipse 1639-18" cx="222" cy="73.6" r="1.3" fill="#009688"/></g><g id="Group_6435-6" data-name="Group 6435-6"><circle id="Ellipse_1636-22" data-name="Ellipse 1636-22" cx="235.9" cy="77.5" r="1.3" fill="#009688"/><circle id="Ellipse_1637-21" data-name="Ellipse 1637-21" cx="231.3" cy="77.5" r="1.3" fill="#009688"/><circle id="Ellipse_1638-20" data-name="Ellipse 1638-20" cx="226.6" cy="77.5" r="1.3" fill="#009688"/><circle id="Ellipse_1639-19" data-name="Ellipse 1639-19" cx="222" cy="77.5" r="1.3" fill="#009688"/></g></g></g></g></g><g id="Group_7568" data-name="Group 7568"><path id="Path_13863" data-name="Path 13863" d="M0,.1H107.1l31,107H0Z" fill="#ff6060"/></g></g><g id="Group_7593" data-name="Group 7593"><circle id="Ellipse_1651" data-name="Ellipse 1651" cx="56" cy="52.1" r="42" fill="#fff"/></g><g id="Group_7595" data-name="Group 7595"><ellipse id="Ellipse_1653" data-name="Ellipse 1653" cx="56.5" cy="77.1" rx="25.5" ry="3" fill="#dbdbdb"/><g id="Group_7594" data-name="Group 7594"><g id="coins"><path id="Path_13881" data-name="Path 13881" d="M55.9,71.7V75a1.58,1.58,0,0,1-1.6,1.6H35A1.58,1.58,0,0,1,33.4,75h0V71.7A1.58,1.58,0,0,1,35,70.1H54.3A1.58,1.58,0,0,1,55.9,71.7Z" fill="#dd9f3a"/><path id="Path_13882" data-name="Path 13882" d="M55.9,71.7V75a1.62,1.62,0,0,1-1.4,1.6H39A1.58,1.58,0,0,1,37.4,75h0V71.7A1.58,1.58,0,0,1,39,70.1H54.3A1.58,1.58,0,0,1,55.9,71.7Z" fill="#f4b74a"/><g id="Group_7585" data-name="Group 7585"><path id="Path_13883" data-name="Path 13883" d="M55.9,71.7V75a1.62,1.62,0,0,1-1.4,1.6H54a10.82,10.82,0,0,1-7.3-2.7,4.35,4.35,0,0,0-.7-.6,10.16,10.16,0,0,1-2.2-3.2H54.3A1.72,1.72,0,0,1,55.9,71.7Z" fill="#dd9f3a"/><path id="Path_13884" data-name="Path 13884" d="M57,65.2v3.3a1.58,1.58,0,0,1-1.6,1.6H36a1.58,1.58,0,0,1-1.6-1.6h0V65.2A1.58,1.58,0,0,1,36,63.6H55.3A1.73,1.73,0,0,1,57,65.2Z" fill="#dd9f3a"/></g><path id="Path_13885" data-name="Path 13885" d="M55.9,65.2v3.3a1.58,1.58,0,0,1-1.6,1.6H39a1.58,1.58,0,0,1-1.6-1.6h0V65.2A1.58,1.58,0,0,1,39,63.6H54.3A1.58,1.58,0,0,1,55.9,65.2Z" fill="#f4b74a"/><g id="Group_7586" data-name="Group 7586"><path id="Path_13886" data-name="Path 13886" d="M55.9,65.2v3.3a1.58,1.58,0,0,1-1.6,1.6H44.9a11.16,11.16,0,0,1-.9-6.5H54.3A1.58,1.58,0,0,1,55.9,65.2Z" fill="#dd9f3a"/><path id="Path_13887" data-name="Path 13887" d="M55.9,45.8V49a1.58,1.58,0,0,1-1.6,1.6H35A1.58,1.58,0,0,1,33.4,49h0V45.8A1.58,1.58,0,0,1,35,44.2H54.3a1.58,1.58,0,0,1,1.6,1.6Z" fill="#dd9f3a"/></g><path id="Path_13888" data-name="Path 13888" d="M55.9,45.8V49a1.58,1.58,0,0,1-1.6,1.6H39A1.58,1.58,0,0,1,37.4,49h0V45.8A1.58,1.58,0,0,1,39,44.2H54.3a1.58,1.58,0,0,1,1.6,1.6Z" fill="#f4b74a"/><g id="Group_7587" data-name="Group 7587"><rect id="Rectangle_4913" data-name="Rectangle 4913" x="50.8" y="44.1" width="2.4" height="6.5" fill="#f9c662"/><rect id="Rectangle_4914" data-name="Rectangle 4914" x="47.9" y="44.1" width="1.2" height="6.5" fill="#f9c662"/></g><path id="Path_13889" data-name="Path 13889" d="M58.8,52.2v3.3a1.58,1.58,0,0,1-1.6,1.6H37.9a1.58,1.58,0,0,1-1.6-1.6h0V52.2a1.58,1.58,0,0,1,1.6-1.6H57.2A1.72,1.72,0,0,1,58.8,52.2Z" fill="#dd9f3a"/><path id="Path_13890" data-name="Path 13890" d="M58.8,52.2v3.3a1.58,1.58,0,0,1-1.6,1.6H41.8a1.58,1.58,0,0,1-1.6-1.6h0V52.2a1.58,1.58,0,0,1,1.6-1.6H57.1A1.73,1.73,0,0,1,58.8,52.2Z" fill="#f4b74a"/><g id="Group_7588" data-name="Group 7588"><rect id="Rectangle_4915" data-name="Rectangle 4915" x="53.7" y="50.6" width="2.4" height="6.5" fill="#f9c662"/><rect id="Rectangle_4916" data-name="Rectangle 4916" x="50.8" y="50.6" width="1.2" height="6.5" fill="#f9c662"/></g><g id="Group_7589" data-name="Group 7589"><path id="Path_13891" data-name="Path 13891" d="M58.8,54.4v1A1.58,1.58,0,0,1,57.2,57H48.1A11.59,11.59,0,0,1,58.8,54.4Z" fill="#dd9f3a"/><path id="Path_13892" data-name="Path 13892" d="M55.9,58.7V62a1.58,1.58,0,0,1-1.6,1.6H35A1.58,1.58,0,0,1,33.4,62h0V58.7A1.58,1.58,0,0,1,35,57.1H54.3A1.58,1.58,0,0,1,55.9,58.7Z" fill="#dd9f3a"/></g><path id="Path_13893" data-name="Path 13893" d="M55.9,58.7V62a1.58,1.58,0,0,1-1.6,1.6H39A1.58,1.58,0,0,1,37.4,62h0V58.7A1.58,1.58,0,0,1,39,57.1H54.3A1.58,1.58,0,0,1,55.9,58.7Z" fill="#f4b74a"/><path id="Path_13894" data-name="Path 13894" d="M55.9,58.7V62a1.58,1.58,0,0,1-1.6,1.6H42.8A11.27,11.27,0,0,1,46,57.4l.2-.2h8a1.58,1.58,0,0,1,1.7,1.5Z" fill="#dd9f3a"/><path id="Path_13895" data-name="Path 13895" d="M65.3,73.3a11.26,11.26,0,0,1-15.3.6c-.2-.2-.5-.4-.7-.6a11.23,11.23,0,0,1,.3-15.9,11.36,11.36,0,0,1,15.7,0,4.35,4.35,0,0,1,.6.7A11.23,11.23,0,0,1,65.3,73.3Z" fill="#f4b74a"/><path id="Path_13896" data-name="Path 13896" d="M67.6,60.7,52.8,75.6a9.48,9.48,0,0,1-2.7-1.7L66,58A12,12,0,0,1,67.6,60.7Z" fill="#f9c662"/><path id="Path_13897" data-name="Path 13897" d="M65.3,65.3a8,8,0,1,1-8-8h.1a7.68,7.68,0,0,1,5,1.8A8.3,8.3,0,0,1,65.3,65.3Z" fill="#ffd488"/><path id="Path_13898" data-name="Path 13898" d="M62.4,59.2,51.2,70.4h0a8,8,0,0,1,1.6-11.2h0A7.81,7.81,0,0,1,62.4,59.2Z" fill="#f9c662"/><path id="Path_13899" data-name="Path 13899" d="M61.1,58.3,50.3,69.1a8.65,8.65,0,0,1-.7-1.7l9.8-9.8A8.65,8.65,0,0,1,61.1,58.3Z" fill="#ffd488"/><path id="Path_13900" data-name="Path 13900" d="M51.5,76H35a1,1,0,0,1-1.1-1V71.7a1.09,1.09,0,0,1,1-1.1H45.4a.5.5,0,1,0,0-1H36a1.09,1.09,0,0,1-1.1-1h0V65.3A1.11,1.11,0,0,1,36,64.2h8.4a.5.5,0,0,0,0-1H34.9a1.11,1.11,0,0,1-1.1-1.1V58.8a1.11,1.11,0,0,1,1.1-1.1H47.5a.46.46,0,0,0,.5-.4v-.1h0a.46.46,0,0,0-.4-.5H37.8a1.09,1.09,0,0,1-1.1-1h0V52.4a1.11,1.11,0,0,1,1.1-1.1H57.1a1.11,1.11,0,0,1,1.1,1.1v.4a.46.46,0,0,0,.4.5h.1a.46.46,0,0,0,.5-.4v-.5A2.22,2.22,0,0,0,57,50.2H56a2,2,0,0,0,.3-1.1V45.9a2.22,2.22,0,0,0-2.2-2.2H35a2.2,2.2,0,0,0-2.2,2.1h0V49a2.14,2.14,0,0,0,2.1,2.2h1a2,2,0,0,0-.3,1.1v3.3a2,2,0,0,0,.3,1.1h-1a2.22,2.22,0,0,0-2.2,2.2v3.3a2.13,2.13,0,0,0,1.5,2,2.84,2.84,0,0,0-.4,1.2v3.3a1.75,1.75,0,0,0,.4,1.2,2.27,2.27,0,0,0-1.5,2v3.4a2.14,2.14,0,0,0,2.2,2.1H51.4a.56.56,0,0,0,.5-.6C51.9,76.2,51.7,76.1,51.5,76ZM33.9,49V45.8a1.09,1.09,0,0,1,1-1.1H54.2a1.11,1.11,0,0,1,1.1,1.1V49a1.11,1.11,0,0,1-1.1,1.1H35A1.11,1.11,0,0,1,33.9,49Z"/><path id="Path_13901" data-name="Path 13901" d="M63.7,55.4a.38.38,0,0,0-.6.1l-.1.1h0a.62.62,0,0,0,.1.8h.1a10.42,10.42,0,1,1-1.4-.8.57.57,0,0,0,.7-.4.42.42,0,0,0-.3-.6h0a11.63,11.63,0,1,0,1.5.8Z"/><path id="Path_13902" data-name="Path 13902" d="M50.8,68.8a.51.51,0,0,0-.9.5,8.52,8.52,0,1,0,3.6-11.5,8.6,8.6,0,0,0-4.3,9.7.57.57,0,0,0,1.1-.3h0a7.41,7.41,0,1,1,9.1,5.2,7.37,7.37,0,0,1-7.2-1.9A3.91,3.91,0,0,1,50.8,68.8Z"/><path id="Path_13903" data-name="Path 13903" d="M55.4,67.4a.63.63,0,0,0-.5-.6c-.3,0-.5.2-.5.6h0a2.77,2.77,0,0,0,2.5,2.5v.3a.5.5,0,0,0,1,0v-.3a2.55,2.55,0,0,0,0-5.1v-3a1.7,1.7,0,0,1,1.4,1.4.56.56,0,0,0,.6.5.46.46,0,0,0,.5-.4v-.1h0a2.77,2.77,0,0,0-2.5-2.5v-.3a.5.5,0,0,0-1,0v.3a2.5,2.5,0,1,0,0,5v3A1.43,1.43,0,0,1,55.4,67.4Zm3.8,0a1.7,1.7,0,0,1-1.4,1.4V65.9A1.52,1.52,0,0,1,59.2,67.4Zm-3.8-4.1a1.7,1.7,0,0,1,1.4-1.4v2.9A2,2,0,0,1,55.4,63.3Z"/></g><g id="down-arrow"><g id="Group_7206" data-name="Group 7206"><path id="Path_13807" data-name="Path 13807" d="M59.2,40.5c.1.2.2.3.4.3h5V52.2a.46.46,0,0,0,.4.5h7.4a.46.46,0,0,0,.5-.4v-.1h0V40.8h5a.46.46,0,0,0,.5-.4v-.1c0-.1-.1-.2-.1-.3l-9.2-9.1c-.2-.2-.5-.2-.6,0h0L59.4,40C59.2,40.2,59.1,40.4,59.2,40.5Z" fill="#ff6060"/></g></g></g></g></g></g><g opacity="0.5"><rect x="299.79" y="59.43" width="37.7" height="37.7" transform="translate(37.97 248.24) rotate(-45)" fill="#009688" opacity="0.25" style="isolation:isolate"/><rect x="337.4" y="59.42" width="37.7" height="37.7" transform="translate(49 274.83) rotate(-45)" fill="#009688" opacity="0.25" style="isolation:isolate"/><rect x="318.8" y="13.07" width="37.7" height="37.7" transform="translate(76.32 248.11) rotate(-45)" fill="#009688" opacity="0.25" style="isolation:isolate"/><rect x="341.19" y="23.52" width="37.7" height="37.7" transform="translate(75.5 266.99) rotate(-45)" fill="#009688" opacity="0.25" style="isolation:isolate"/><rect x="370.12" y="33.3" width="36" height="36" transform="translate(77.4 289.47) rotate(-45)" fill="#009688" opacity="0.25" style="isolation:isolate"/><rect x="361.88" y="10.73" width="36" height="36" transform="translate(90.95 277.03) rotate(-45)" fill="#009688" opacity="0.25" style="isolation:isolate"/></g></g></g></g></g></svg>