<svg xmlns="http://www.w3.org/2000/svg" width="18.321" height="18.359" viewBox="0 0 18.321 18.359">
  <g id="phone-call" transform="translate(-0.539)">
    <g id="Group_8484" data-name="Group 8484" transform="translate(0.539 0)">
      <path id="Path_15140" data-name="Path 15140" d="M18.38,13.474l-2.562-2.562a1.7,1.7,0,0,0-2.837.641,1.744,1.744,0,0,1-2.013,1.1A7.9,7.9,0,0,1,6.21,7.892a1.658,1.658,0,0,1,1.1-2.013,1.7,1.7,0,0,0,.641-2.837L5.386.48a1.828,1.828,0,0,0-2.471,0L1.177,2.219C-.562,4.049,1.36,8.9,5.661,13.2s9.15,6.314,10.98,4.484l1.739-1.739A1.827,1.827,0,0,0,18.38,13.474Z" transform="translate(-0.539 0)" fill="#008af6"/>
    </g>
  </g>
</svg>
