<svg xmlns="http://www.w3.org/2000/svg" width="16.203" height="16.203" viewBox="0 0 16.203 16.203">
  <g id="future" transform="translate(-0.002 0)">
    <g id="Group_7031" data-name="Group 7031" transform="translate(0.002 0)">
      <g id="Group_7030" data-name="Group 7030" transform="translate(0)">
        <path id="Path_13518" data-name="Path 13518" d="M15.731,7.627a.475.475,0,0,0-.475.475A7.149,7.149,0,1,1,11.52,1.817l-.593.593a.475.475,0,0,0,.336.81h2.271a.475.475,0,0,0,.475-.475V.475A.475.475,0,0,0,13.2.139l-.982.982A8.1,8.1,0,0,0,2.375,13.83,8.1,8.1,0,0,0,16.205,8.1.475.475,0,0,0,15.731,7.627Z" transform="translate(-0.002 0)" fill="#fff"/>
      </g>
    </g>
    <g id="Group_7033" data-name="Group 7033" transform="translate(7.629 4.576)">
      <g id="Group_7032" data-name="Group 7032">
        <path id="Path_13519" data-name="Path 13519" d="M244.528,147.652h-2.576v-2.576a.475.475,0,1,0-.949,0v3.051a.475.475,0,0,0,.475.475h3.051a.475.475,0,0,0,0-.949Z" transform="translate(-241.003 -144.601)" fill="#fff"/>
      </g>
    </g>
  </g>
</svg>
