<svg xmlns="http://www.w3.org/2000/svg" width="20" height="20" viewBox="0 0 20 20">
  <g id="Group_8514" data-name="Group 8514" transform="translate(-5402.185 -366.184)">
    <circle id="Ellipse_1669" data-name="Ellipse 1669" cx="10" cy="10" r="10" transform="translate(5402.185 366.184)" fill="#25d366"/>
    <path id="whatsapp" d="M10.476,1.748A5.961,5.961,0,0,0,1.1,8.939L.25,12.027,3.409,11.2a5.953,5.953,0,0,0,2.848.725h0A5.962,5.962,0,0,0,10.476,1.748ZM6.26,10.917h0a4.947,4.947,0,0,1-2.521-.69l-.181-.107-1.875.492.5-1.828L2.064,8.6a4.954,4.954,0,1,1,4.2,2.321Zm2.717-3.71c-.149-.075-.881-.435-1.018-.485s-.236-.074-.335.075-.385.484-.472.584-.174.112-.323.037a4.067,4.067,0,0,1-1.2-.739A4.492,4.492,0,0,1,4.8,5.648c-.087-.149,0-.222.065-.3a4.213,4.213,0,0,0,.372-.509.274.274,0,0,0-.012-.261c-.037-.075-.335-.807-.459-1.106s-.244-.251-.335-.256-.186-.005-.285-.005a.547.547,0,0,0-.4.186,1.67,1.67,0,0,0-.521,1.242,2.9,2.9,0,0,0,.608,1.54A6.638,6.638,0,0,0,6.384,8.425a8.524,8.524,0,0,0,.849.314A2.041,2.041,0,0,0,8.17,8.8,1.534,1.534,0,0,0,9.176,8.09a1.244,1.244,0,0,0,.087-.708C9.225,7.319,9.126,7.282,8.977,7.207Zm0,0" transform="translate(5406.317 370.171)" fill="#fff" fill-rule="evenodd"/>
  </g>
</svg>
