<svg xmlns="http://www.w3.org/2000/svg" viewBox="0 0 26.07 35.12"><g id="Layer_2" data-name="Layer 2"><g id="Layer_1-2" data-name="Layer 1"><g id="check-list"><g id="Group_5846" data-name="Group 5846"><path id="Path_11112" data-name="Path 11112" d="M24.44,34.61H1.63A1.12,1.12,0,0,1,.51,33.49V1.63A1.12,1.12,0,0,1,1.63.51H24.44a1.12,1.12,0,0,1,1.12,1.12h0V33.49a1.12,1.12,0,0,1-1.12,1.12Z" fill="#fbae2c"/></g><g id="Group_5848" data-name="Group 5848"><path id="Path_11114" data-name="Path 11114" d="M23,4.35V32.07h-20V4.35Z" fill="#f7f7f7"/></g><g id="Group_5850" data-name="Group 5850"><path id="Path_11116" data-name="Path 11116" d="M7.94,2.62H18.13V6.07H7.94Z" fill="#fff"/></g><g id="Group_5852" data-name="Group 5852"><path id="Path_11118" data-name="Path 11118" d="M10.82,13.92H7.4a1,1,0,0,1-1-.95V9.55a1,1,0,0,1,1-1h3.42a1,1,0,0,1,.95,1V13a1,1,0,0,1-.95.95Z" fill="#15a64f"/></g><g id="Group_5853" data-name="Group 5853"><path id="Path_11119" data-name="Path 11119" d="M10.82,21.65H7.4a1,1,0,0,1-1-.94V17.29a1,1,0,0,1,1-.95h3.42a1,1,0,0,1,.95.95v3.42A1,1,0,0,1,10.82,21.65Z" fill="#15a64f"/></g><g id="Group_5854" data-name="Group 5854"><path id="Path_11120" data-name="Path 11120" d="M10.82,29.39H7.4a1,1,0,0,1-1-.95V25a1,1,0,0,1,1-.95h3.42a1,1,0,0,1,.95.95v3.42A1,1,0,0,1,10.82,29.39Z" fill="#15a64f"/></g><g id="Group_5855" data-name="Group 5855"><path id="Path_11121" data-name="Path 11121" d="M24.44,0H1.63A1.63,1.63,0,0,0,0,1.63V12.19a.52.52,0,0,0,1,0V1.63a.6.6,0,0,1,.6-.6H24.44a.6.6,0,0,1,.6.6V33.49a.6.6,0,0,1-.6.6H1.63a.6.6,0,0,1-.6-.6V14.24a.52.52,0,0,0-1,0V33.49a1.63,1.63,0,0,0,1.63,1.63H24.44a1.63,1.63,0,0,0,1.63-1.63V1.63A1.63,1.63,0,0,0,24.44,0Z" fill="none"/><path id="Path_11122" data-name="Path 11122" d="M18.13,2.11H7.94a.51.51,0,0,0-.51.51V3.83H3.05a.51.51,0,0,0-.51.52V32.07a.51.51,0,0,0,.51.51H23a.52.52,0,0,0,.52-.51V22.31a.52.52,0,0,0-.52-.52.51.51,0,0,0-.51.52v9.25H3.57V4.86H7.43V6.07a.51.51,0,0,0,.51.52H18.13a.51.51,0,0,0,.51-.52V4.86H22.5V20.25a.52.52,0,0,0,1,0V4.35A.51.51,0,0,0,23,3.83H18.64V2.62A.51.51,0,0,0,18.13,2.11Zm-.52,3.45H8.46V3.14h9.15V5.56Z" fill="#573939"/><path id="Path_11123" data-name="Path 11123" d="M12.28,9.55a1.46,1.46,0,0,0-1.46-1.46H7.4A1.46,1.46,0,0,0,5.94,9.55V13A1.46,1.46,0,0,0,7.4,14.43h3.41A1.46,1.46,0,0,0,12.28,13Zm-1,3.42a.44.44,0,0,1-.43.44H7.4A.44.44,0,0,1,7,13V9.55a.43.43,0,0,1,.43-.43h3.41a.44.44,0,0,1,.44.43Z" fill="none"/><path id="Path_11124" data-name="Path 11124" d="M9.57,10.3l-.77.83L8.63,11a.52.52,0,0,0-.73.73l.55.55a.56.56,0,0,0,.37.15h0a.48.48,0,0,0,.37-.17L10.33,11a.52.52,0,0,0-.76-.7Z" fill="#fff"/><path id="Path_11125" data-name="Path 11125" d="M14.48,9.69h2.45a.52.52,0,0,0,0-1H14.48a.52.52,0,0,0,0,1Z"/><path id="Path_11126" data-name="Path 11126" d="M14.48,13.87h2.45a.52.52,0,0,0,0-1H14.48a.52.52,0,0,0,0,1Z"/><path id="Path_11127" data-name="Path 11127" d="M19.89,10.75H14.48a.52.52,0,0,0,0,1H19.9a.52.52,0,0,0,0-1Z"/><path id="Path_11128" data-name="Path 11128" d="M12.28,17.29a1.46,1.46,0,0,0-1.46-1.47H7.4a1.46,1.46,0,0,0-1.46,1.47V20.7A1.47,1.47,0,0,0,7.4,22.17h3.41a1.48,1.48,0,0,0,1.47-1.47Zm-1,3.41a.44.44,0,0,1-.43.44H7.4A.44.44,0,0,1,7,20.7V17.29a.44.44,0,0,1,.43-.44h3.41a.44.44,0,0,1,.44.44Z" fill="none"/><path id="Path_11129" data-name="Path 11129" d="M9.57,18l-.77.84-.17-.17a.51.51,0,0,0-.72,0,.5.5,0,0,0,0,.72l.55.55a.51.51,0,0,0,.37.15h0A.51.51,0,0,0,9.19,20l1.14-1.22A.52.52,0,0,0,9.57,18Z" fill="#fff"/><path id="Path_11130" data-name="Path 11130" d="M14.48,17.42h2.45a.52.52,0,0,0,0-1H14.48a.52.52,0,0,0,0,1Z"/><path id="Path_11131" data-name="Path 11131" d="M14.48,21.6h2.45a.52.52,0,0,0,0-1H14.48a.52.52,0,0,0,0,1Z"/><path id="Path_11132" data-name="Path 11132" d="M19.89,18.48H14.48a.52.52,0,0,0,0,1H19.9a.52.52,0,0,0,0-1Z"/><path id="Path_11133" data-name="Path 11133" d="M10.82,23.56H7.4A1.47,1.47,0,0,0,5.93,25v3.42A1.48,1.48,0,0,0,7.4,29.9h3.42a1.47,1.47,0,0,0,1.46-1.46V25A1.46,1.46,0,0,0,10.82,23.56Zm.43,4.88a.43.43,0,0,1-.43.43H7.4A.44.44,0,0,1,7,28.44V25a.44.44,0,0,1,.44-.44h3.42a.44.44,0,0,1,.43.44Z" fill="none"/><path id="Path_11134" data-name="Path 11134" d="M9.57,25.77l-.77.83-.17-.17a.52.52,0,0,0-.73.73h0l.55.55a.56.56,0,0,0,.37.15h0a.48.48,0,0,0,.37-.17l1.14-1.22a.52.52,0,0,0-.76-.7Z" fill="#fff"/><path id="Path_11135" data-name="Path 11135" d="M14.48,25.15h2.45a.52.52,0,0,0,0-1H14.48a.52.52,0,0,0,0,1Z"/><path id="Path_11136" data-name="Path 11136" d="M14.48,28.3a.52.52,0,0,0,0,1h2.45a.52.52,0,0,0,0-1Z"/><path id="Path_11137" data-name="Path 11137" d="M20.41,26.73a.52.52,0,0,0-.52-.52H14.48a.52.52,0,0,0,0,1H19.9A.51.51,0,0,0,20.41,26.73Z"/></g></g></g></g></svg>