<svg xmlns="http://www.w3.org/2000/svg" viewBox="0 0 33.25 30.97">
    <g id="Layer_2" data-name="Layer 2">
        <g id="Layer_1-2" data-name="Layer 1">
            <g id="repair-tool">
                <path id="Path_11138" data-name="Path 11138"
                    d="M25.12,11.59,21.67,8.14,3.56,24.79A3.49,3.49,0,1,0,8.22,30l.26-.26Z" fill="none" />
                <g id="Group_5857" data-name="Group 5857">
                    <path id="Path_11139" data-name="Path 11139"
                        d="M3.93,29.32a2.78,2.78,0,0,1,0-3.92L4,25.32,21.64,9.13l2.49,2.48L7.94,29.24A2.77,2.77,0,0,1,4,29.39l-.08-.07Z"
                        fill="#b7b7b7" />
                    <path id="Path_11140" data-name="Path 11140"
                        d="M31.16,12.24A7.17,7.17,0,1,1,27.63.17L24.51,3.29l1.15,4.3L30,8.74l3.12-3.13A7.19,7.19,0,0,1,31.16,12.24Z"
                        fill="#b7b7b7" />
                    <path id="Path_11141" data-name="Path 11141"
                        d="M4.81,2.78,1.37.71,0,2.08,2.07,5.52,5.51,7.59l0,0,6.84,6.85,1.32-1.33L6.85,6.24l0,0Z"
                        fill="#b7b7b7" />
                </g>
                <path id="Path_11142" data-name="Path 11142" d="M10.6,15.07l3.75-3.76,1.86,1.86-3.76,3.76Z"
                    fill="#00a64f" />
                <path id="Path_11143" data-name="Path 11143"
                    d="M15.62,11.88l-4.47,4.46a.65.65,0,0,0,0,.9l13,13a2.65,2.65,0,0,0,3.75,0h0l1.61-1.61a2.65,2.65,0,0,0,0-3.75h0L16.53,11.88a.62.62,0,0,0-.89,0Z"
                    fill="#fbae2c" />
                <path id="Path_11144" data-name="Path 11144"
                    d="M13.48,16.41a.63.63,0,0,0,0,.88h0l11,11a.63.63,0,0,0,.88-.89l-11-11a.63.63,0,0,0-.88,0Z"
                    fill="#fff" />
                <path id="Path_11145" data-name="Path 11145"
                    d="M15.7,14.19a.63.63,0,0,0,0,.88h0l11,11a.63.63,0,0,0,.88-.89l-11-11a.63.63,0,0,0-.88,0Z"
                    fill="#fff" />
            </g>
        </g>
    </g>
</svg>