<svg xmlns="http://www.w3.org/2000/svg" xmlns:xlink="http://www.w3.org/1999/xlink" width="83" height="81" viewBox="0 0 83 81">
  <defs>
    <filter id="Rectangle_4611" x="0" y="17" width="64" height="64" filterUnits="userSpaceOnUse">
      <feOffset dy="3" input="SourceAlpha"/>
      <feGaussianBlur stdDeviation="3" result="blur"/>
      <feFlood flood-opacity="0.161"/>
      <feComposite operator="in" in2="blur"/>
      <feComposite in="SourceGraphic"/>
    </filter>
    <filter id="Rectangle_4612" x="7" y="0" width="76" height="76" filterUnits="userSpaceOnUse">
      <feOffset dy="3" input="SourceAlpha"/>
      <feGaussianBlur stdDeviation="3" result="blur-2"/>
      <feFlood flood-opacity="0.161"/>
      <feComposite operator="in" in2="blur-2"/>
      <feComposite in="SourceGraphic"/>
    </filter>
  </defs>
  <g id="Group_8179" data-name="Group 8179" transform="translate(-2 -148)">
    <g id="Group_7083" data-name="Group 7083" transform="translate(3 74)">
      <g id="Group_7070" data-name="Group 7070">
        <g transform="matrix(1, 0, 0, 1, -1, 74)" filter="url(#Rectangle_4611)">
          <rect id="Rectangle_4611-2" data-name="Rectangle 4611" width="46" height="46" transform="translate(9 23)" fill="#fff"/>
        </g>
        <g transform="matrix(1, 0, 0, 1, -1, 74)" filter="url(#Rectangle_4612)">
          <rect id="Rectangle_4612-2" data-name="Rectangle 4612" width="58" height="58" transform="translate(16 6)" fill="#fff"/>
        </g>
      </g>
    </g>
    <g id="Group_8151" data-name="Group 8151" transform="translate(0 -2)">
      <g id="taxi-driver" transform="translate(26.625 163.05)">
        <g id="Group_8124" data-name="Group 8124" transform="translate(10.94 11.59)">
          <path id="Path_15090" data-name="Path 15090" d="M17,18.01H36.306v2.574H17Z" transform="translate(-17 -18.01)" fill="#545c66"/>
        </g>
        <g id="Group_8130" data-name="Group 8130" transform="translate(15.754 5.148)">
          <g id="Group_8125" data-name="Group 8125" transform="translate(7.722 1.931)">
            <path id="Path_15091" data-name="Path 15091" d="M36.48,11h1.931v1.931H36.48Z" transform="translate(-36.48 -11)" fill="#ffce54"/>
          </g>
          <g id="Group_8126" data-name="Group 8126" transform="translate(1.931)">
            <path id="Path_15092" data-name="Path 15092" d="M27.48,8h1.931V9.931H27.48Z" transform="translate(-27.48 -8)" fill="#ffce54"/>
          </g>
          <g id="Group_8127" data-name="Group 8127" transform="translate(0 1.931)">
            <path id="Path_15093" data-name="Path 15093" d="M24.48,11h1.931v1.931H24.48Z" transform="translate(-24.48 -11)" fill="#ffce54"/>
          </g>
          <g id="Group_8128" data-name="Group 8128" transform="translate(3.861 1.931)">
            <path id="Path_15094" data-name="Path 15094" d="M30.48,11h1.931v1.931H30.48Z" transform="translate(-30.48 -11)" fill="#ffce54"/>
          </g>
          <g id="Group_8129" data-name="Group 8129" transform="translate(5.792)">
            <path id="Path_15095" data-name="Path 15095" d="M33.48,8h1.931V9.931H33.48Z" transform="translate(-33.48 -8)" fill="#ffce54"/>
          </g>
        </g>
        <g id="Group_8131" data-name="Group 8131" transform="translate(9.01 1.287)">
          <path id="Path_15096" data-name="Path 15096" d="M16.561,4.574,25.571,2h.013l9.01,2.574.006.006,2.555,3.855L35.237,12.3H15.924L14,8.435ZM30.4,9.722V7.792H28.467V5.861H26.536V7.792H24.606V5.861H22.675V7.792H20.744V9.722h1.931V7.792h1.931V9.722h1.931V7.792h1.931V9.722Z" transform="translate(-14 -2)" fill="#656d78"/>
        </g>
        <g id="Group_8132" data-name="Group 8132" transform="translate(10.94 14.164)">
          <path id="Path_15097" data-name="Path 15097" d="M17,22.01H36.306a.559.559,0,0,1-.077.167c-.328.573-1.976,2.407-9.588,2.407-7.825,0-9.331-1.937-9.589-2.452A.772.772,0,0,1,17,22.01Z" transform="translate(-17 -22.01)" fill="#656d78"/>
        </g>
        <g id="Group_8133" data-name="Group 8133" transform="translate(18.663 28.959)">
          <path id="Path_15098" data-name="Path 15098" d="M32.861,46.062l-1.287,1.512H30.287L29,46.062,30.931,45Z" transform="translate(-29 -45)" fill="#ed5565"/>
        </g>
        <g id="Group_8134" data-name="Group 8134" transform="translate(6.435 29.603)">
          <path id="Path_15099" data-name="Path 15099" d="M18.366,51.148,22.227,56.3H10V51.148A5.147,5.147,0,0,1,15.148,46h3.218l-1.287,1.287,2.574,2.574Z" transform="translate(-10 -46)" fill="#545c66"/>
        </g>
        <g id="Group_8135" data-name="Group 8135" transform="translate(21.237 30.021)">
          <path id="Path_15100" data-name="Path 15100" d="M35.857,47.519l-1.5,3.861L33,48.162l1.287-1.512Z" transform="translate(-33 -46.65)" fill="#e6e9ed"/>
        </g>
        <g id="Group_8136" data-name="Group 8136" transform="translate(18.592 31.533)">
          <path id="Path_15101" data-name="Path 15101" d="M30.248,49h1.287l1.358,3.218-2,5.148-2-5.148Z" transform="translate(-28.89 -49)" fill="#da4453"/>
        </g>
        <g id="Group_8137" data-name="Group 8137" transform="translate(10.927 14.287)">
          <path id="Path_15102" data-name="Path 15102" d="M17.044,22.2c.257.515,1.763,2.452,9.589,2.452,7.612,0,9.261-1.834,9.588-2.407h.065v3.687a9.653,9.653,0,1,1-19.306,0V22.239Z" transform="translate(-16.98 -22.2)" fill="#eac6bb"/>
        </g>
        <g id="Group_8139" data-name="Group 8139" transform="translate(19.291 14.332)">
          <g id="Group_8138" data-name="Group 8138">
            <path id="Path_15103" data-name="Path 15103" d="M40.854,22.27a4.225,4.225,0,0,1-2.512,1.572v2.116a9.651,9.651,0,0,1-8.367,9.566,9.805,9.805,0,0,0,1.29.088,9.655,9.655,0,0,0,9.653-9.653V22.27Z" transform="translate(-29.976 -22.27)" fill="#d3b1a9"/>
          </g>
        </g>
        <g id="Group_8140" data-name="Group 8140" transform="translate(16.088 26.552)">
          <path id="Path_15104" data-name="Path 15104" d="M29.492,42.38A9.6,9.6,0,0,0,34,41.26l.006.013v1.75l-1,2.574-1.57-.869L29.5,43.667l-1.931,1.062L26,45.6l-1-2.574v-1.75a9.587,9.587,0,0,0,4.492,1.107Z" transform="translate(-25 -41.26)" fill="#f5f7fa"/>
        </g>
        <g id="Group_8141" data-name="Group 8141" transform="translate(17.092 30.021)">
          <path id="Path_15105" data-name="Path 15105" d="M28.13,46.65l1.287,1.512L28.059,51.38l-1.5-3.861Z" transform="translate(-26.56 -46.65)" fill="#e6e9ed"/>
        </g>
        <g id="Group_8142" data-name="Group 8142" transform="translate(20.593 28.316)">
          <path id="Path_15106" data-name="Path 15106" d="M37.792,45.287l1.287,1.287L36.5,49.148l1.287,1.287-3.861,5.148H32l2-5.148,1.5-3.861L36.5,44Z" transform="translate(-32 -44)" fill="#656d78"/>
        </g>
        <g id="Group_8143" data-name="Group 8143" transform="translate(22.524 29.603)">
          <path id="Path_15107" data-name="Path 15107" d="M47.227,51.148V56.3H35l3.861-5.148-1.287-1.287,2.574-2.574L38.861,46h3.218A5.147,5.147,0,0,1,47.227,51.148Z" transform="translate(-35 -46)" fill="#545c66"/>
        </g>
        <g id="Group_8144" data-name="Group 8144" transform="translate(27.026 29.603)">
          <path id="Path_15108" data-name="Path 15108" d="M44.573,46H42a5.147,5.147,0,0,1,5.148,5.148V56.3h2.577V51.148A5.147,5.147,0,0,0,44.573,46Z" transform="translate(-41.996 -46)" fill="#434a54"/>
        </g>
        <g id="Group_8145" data-name="Group 8145" transform="translate(13.514 28.316)">
          <path id="Path_15109" data-name="Path 15109" d="M24.578,46.574l1.5,3.861,2,5.148H26.148l-3.861-5.148,1.287-1.287L21,46.574l1.287-1.287L23.574,44Z" transform="translate(-21 -44)" fill="#656d78"/>
        </g>
        <g id="Group_8146" data-name="Group 8146">
          <path id="Path_15110" data-name="Path 15110" fill="none" stroke="#000" stroke-linecap="round" stroke-linejoin="round" stroke-miterlimit="10" stroke-width="2"/>
        </g>
        <g id="Group_8147" data-name="Group 8147">
          <path id="Path_15111" data-name="Path 15111" fill="none" stroke="#000" stroke-linecap="round" stroke-linejoin="round" stroke-miterlimit="10" stroke-width="2"/>
        </g>
        <g id="Group_8148" data-name="Group 8148" transform="translate(11.163 3.681)">
          <path id="Path_15112" data-name="Path 15112" d="M17.346,6.516l1.133,2.248a.643.643,0,1,0,1.148-.579L18.385,5.72l-.631.18Z" transform="translate(-17.346 -5.72)" fill="#545c66"/>
          <path id="Path_15113" data-name="Path 15113" d="M44.934,5.908,44.928,5.9,44.3,5.723,43.062,8.186a.643.643,0,1,0,1.149.579l1.131-2.243Z" transform="translate(-26.488 -5.721)" fill="#545c66"/>
        </g>
      </g>
      <g id="car-steering-wheel" transform="translate(39.057 194.057)">
        <g id="steering_x5F_wheel">
          <path id="Path_15131" data-name="Path 15131" d="M7.943,0a7.943,7.943,0,1,0,7.943,7.943A7.943,7.943,0,0,0,7.943,0Zm0,1.986a5.952,5.952,0,0,1,5.593,3.971H2.35A5.952,5.952,0,0,1,7.943,1.986Zm0,6.95a.993.993,0,1,1,.993-.993A.993.993,0,0,1,7.943,8.936ZM1.986,7.943c2.713,0,4.91,2.614,4.956,5.856A5.956,5.956,0,0,1,1.986,7.943ZM8.944,13.8c.046-3.242,2.243-5.856,4.956-5.856A5.956,5.956,0,0,1,8.944,13.8Z" fill="#009688"/>
        </g>
      </g>
    </g>
  </g>
</svg>
