<svg xmlns="http://www.w3.org/2000/svg" width="142" height="74" viewBox="0 0 142 74">
  <g id="Group_7056" data-name="Group 7056" transform="translate(-335.46 -67)" opacity="0.298">
    <rect id="Rectangle_4577" data-name="Rectangle 4577" width="12" height="12" transform="translate(425.46 114)" fill="#009688"/>
    <rect id="Rectangle_4587" data-name="Rectangle 4587" width="12" height="12" transform="translate(454.46 98)" fill="#009688"/>
    <rect id="Rectangle_4580" data-name="Rectangle 4580" width="12" height="12" transform="translate(465.46 129)" fill="#009688"/>
    <rect id="Rectangle_4581" data-name="Rectangle 4581" width="12" height="12" transform="translate(465.46 114)" fill="#009688"/>
    <rect id="Rectangle_4582" data-name="Rectangle 4582" width="12" height="12" transform="translate(432.46 129)" fill="#009688" opacity="0.747"/>
    <rect id="Rectangle_4579" data-name="Rectangle 4579" width="8" height="8" transform="translate(445.46 111)" fill="#009688" opacity="0.804"/>
    <rect id="Rectangle_4595" data-name="Rectangle 4595" width="8" height="8" transform="translate(394.46 116)" fill="#009688" opacity="0.804"/>
    <rect id="Rectangle_4588" data-name="Rectangle 4588" width="8" height="8" transform="translate(469.46 93)" fill="#009688" opacity="0.804"/>
    <rect id="Rectangle_4583" data-name="Rectangle 4583" width="8" height="8" transform="translate(404.46 133)" fill="#009688" opacity="0.804"/>
    <rect id="Rectangle_4591" data-name="Rectangle 4591" width="8" height="8" transform="translate(375.46 129)" fill="#009688" opacity="0.804"/>
    <rect id="Rectangle_4584" data-name="Rectangle 4584" width="8" height="8" transform="translate(469.46 108)" fill="#009688" opacity="0.804"/>
    <rect id="Rectangle_4585" data-name="Rectangle 4585" width="6" height="6" transform="translate(464.46 104)" fill="#009688" opacity="0.303"/>
    <rect id="Rectangle_4589" data-name="Rectangle 4589" width="6" height="6" transform="translate(442.46 104)" fill="#009688" opacity="0.303"/>
    <rect id="Rectangle_4602" data-name="Rectangle 4602" width="6" height="6" transform="translate(469.46 71)" fill="#009688" opacity="0.303"/>
    <rect id="Rectangle_4592" data-name="Rectangle 4592" width="6" height="6" transform="translate(471.46 84)" fill="#009688" opacity="0.303"/>
    <rect id="Rectangle_4586" data-name="Rectangle 4586" width="6" height="6" transform="translate(410.46 124)" fill="#009688" opacity="0.303"/>
    <rect id="Rectangle_4594" data-name="Rectangle 4594" width="6" height="6" transform="translate(361.46 135)" fill="#009688" opacity="0.303"/>
    <rect id="Rectangle_4603" data-name="Rectangle 4603" width="6" height="6" transform="translate(354.46 125)" fill="#009688" opacity="0.303"/>
    <rect id="Rectangle_4597" data-name="Rectangle 4597" width="4" height="4" transform="translate(348.46 137)" fill="#009688" opacity="0.81"/>
    <rect id="Rectangle_4604" data-name="Rectangle 4604" width="4" height="4" transform="translate(335.46 137)" fill="#009688" opacity="0.81"/>
    <rect id="Rectangle_4598" data-name="Rectangle 4598" width="4" height="4" transform="translate(398.46 127)" fill="#009688" opacity="0.81"/>
    <rect id="Rectangle_4599" data-name="Rectangle 4599" width="4" height="4" transform="translate(420.46 104)" fill="#009688" opacity="0.81"/>
    <rect id="Rectangle_4600" data-name="Rectangle 4600" width="4" height="4" transform="translate(449.46 93)" fill="#009688" opacity="0.81"/>
    <rect id="Rectangle_4601" data-name="Rectangle 4601" width="4" height="4" transform="translate(473.46 75)" fill="#009688" opacity="0.81"/>
    <rect id="Rectangle_4606" data-name="Rectangle 4606" width="4" height="4" transform="translate(464.46 88)" fill="#009688" opacity="0.81"/>
    <rect id="Rectangle_4605" data-name="Rectangle 4605" width="4" height="4" transform="translate(473.46 67)" fill="#009688" opacity="0.81"/>
    <rect id="Rectangle_4593" data-name="Rectangle 4593" width="6" height="6" transform="translate(409.46 112)" fill="#009688" opacity="0.303"/>
    <rect id="Rectangle_4596" data-name="Rectangle 4596" width="6" height="6" transform="translate(383.46 114)" fill="#009688" opacity="0.303"/>
    <rect id="Rectangle_4590" data-name="Rectangle 4590" width="6" height="6" transform="translate(392.46 135)" fill="#009688" opacity="0.303"/>
    <rect id="Rectangle_4578" data-name="Rectangle 4578" width="12" height="12" transform="translate(445.46 124)" fill="#009688" opacity="0.566"/>
  </g>
</svg>
