<svg xmlns="http://www.w3.org/2000/svg" xmlns:xlink="http://www.w3.org/1999/xlink" width="83" height="81" viewBox="0 0 83 81">
  <defs>
    <filter id="Rectangle_4611" x="0" y="17" width="64" height="64" filterUnits="userSpaceOnUse">
      <feOffset dy="3" input="SourceAlpha"/>
      <feGaussianBlur stdDeviation="3" result="blur"/>
      <feFlood flood-opacity="0.161"/>
      <feComposite operator="in" in2="blur"/>
      <feComposite in="SourceGraphic"/>
    </filter>
    <filter id="Rectangle_4612" x="7" y="0" width="76" height="76" filterUnits="userSpaceOnUse">
      <feOffset dy="3" input="SourceAlpha"/>
      <feGaussianBlur stdDeviation="3" result="blur-2"/>
      <feFlood flood-opacity="0.161"/>
      <feComposite operator="in" in2="blur-2"/>
      <feComposite in="SourceGraphic"/>
    </filter>
  </defs>
  <g id="Group_7083" data-name="Group 7083" transform="translate(1 -74)">
    <g id="Group_7070" data-name="Group 7070">
      <g transform="matrix(1, 0, 0, 1, -1, 74)" filter="url(#Rectangle_4611)">
        <rect id="Rectangle_4611-2" data-name="Rectangle 4611" width="46" height="46" transform="translate(9 23)" fill="#fff"/>
      </g>
      <g transform="matrix(1, 0, 0, 1, -1, 74)" filter="url(#Rectangle_4612)">
        <rect id="Rectangle_4612-2" data-name="Rectangle 4612" width="58" height="58" transform="translate(16 6)" fill="#fff"/>
      </g>
      <g id="toolbox_1_" data-name="toolbox (1)" transform="translate(24.979 68.157)">
        <path id="Path_13601" data-name="Path 13601" d="M295.809,124.059l-5.121-6.4a3.459,3.459,0,0,0-2.7-1.3h-.134a3.459,3.459,0,0,0-2.7,1.3l-5.121,6.4a3.459,3.459,0,0,0-.758,2.161v14.35a3.459,3.459,0,0,0,3.459,3.459h10.376a3.459,3.459,0,0,0,3.459-3.459h0V126.22a3.46,3.46,0,0,0-.758-2.161Z" transform="translate(-258.523 -86.167)" fill="#ce2478"/>
        <path id="Path_13602" data-name="Path 13602" d="M281.867,256h10.376a2.594,2.594,0,0,1,2.594,2.594h0a2.594,2.594,0,0,1-2.594,2.594H281.867a2.594,2.594,0,0,1-2.594-2.594h0A2.594,2.594,0,0,1,281.867,256Z" transform="translate(-258.522 -215.43)" fill="#aa0d61"/>
        <path id="Path_13603" data-name="Path 13603" d="M94.821,139.634h20.751a1.729,1.729,0,0,1,1.729,1.729h0a1.729,1.729,0,0,1-1.729,1.729H94.821a1.729,1.729,0,0,1-1.729-1.729h0A1.729,1.729,0,0,1,94.821,139.634Z" transform="translate(-86.175 -107.712)" fill="#2b315b"/>
        <path id="Path_13604" data-name="Path 13604" d="M118.873,162.907H98.122a1.7,1.7,0,0,0-1.464.865,1.7,1.7,0,0,0,1.464.865h20.751a1.7,1.7,0,0,0,1.464-.865A1.7,1.7,0,0,0,118.873,162.907Z" transform="translate(-89.476 -129.256)" fill="#191f4c"/>
        <path id="Path_13605" data-name="Path 13605" d="M167.273,29.549a1.23,1.23,0,0,0-2.1-.686l-2.342,2.342a2.446,2.446,0,0,1-3.459-3.458l2.334-2.334a1.246,1.246,0,0,0-.827-2.119,6.832,6.832,0,0,0-2.169.19,6.906,6.906,0,0,0-5.066,8.261L139.636,45.756l5.188,5.188,14.011-14.011a6.905,6.905,0,0,0,8.261-5.066,6.812,6.812,0,0,0,.178-2.318Z" transform="translate(-129.26 0)" fill="#bfc3ec"/>
        <path id="Path_13606" data-name="Path 13606" d="M222.8,130.91c.054-.217.071-.428.1-.641a2.421,2.421,0,0,0-1.624.7l-1.729,1.729a2.446,2.446,0,0,1-3.459,0,2.445,2.445,0,0,0-3.458,0h0l-12.1,12.1a2.445,2.445,0,0,0,0,3.458h0a2.377,2.377,0,0,0,1.13.6l12.881-12.881a6.906,6.906,0,0,0,8.261-5.066Z" transform="translate(-184.968 -99.043)" fill="#9ea4e2"/>
        <path id="Path_13607" data-name="Path 13607" d="M223.8,203.987l3.459-3.459a2.446,2.446,0,0,1,3.459,0h0a2.446,2.446,0,0,1,0,3.459l-3.459,3.459a2.446,2.446,0,0,1-3.459,0h0A2.446,2.446,0,0,1,223.8,203.987Z" transform="translate(-206.511 -163.419)" fill="#8b92cf"/>
        <path id="Path_13608" data-name="Path 13608" d="M69.818,48.273l1.729-1.729,3.458,1.729V50l12.1,12.1-1.729,1.729-12.1-12.1H71.547Z" transform="translate(-64.63 -21.539)" fill="#e0e2ff"/>
        <path id="Path_13609" data-name="Path 13609" d="M92.216,89.1l-12.1-12.1a1.223,1.223,0,0,0-1.729,0h0a1.211,1.211,0,0,0-.247.371l1.111,2.223h1.729l11.24,11.24A1.223,1.223,0,0,0,92.216,89.1Z" transform="translate(-72.329 -49.391)" fill="#bfc3ec"/>
        <path id="Path_13610" data-name="Path 13610" d="M233.077,214.282l4.471-4.471a1.223,1.223,0,0,1,1.729,1.729l-.148.148a1.729,1.729,0,0,0,0,2.446h0a1.729,1.729,0,0,0,1.223.506h1.223a3.668,3.668,0,0,1,2.594,1.074l6.5,6.5a3.668,3.668,0,0,1,0,5.188h0a3.668,3.668,0,0,1-5.188,0h0l-6.5-6.5a3.668,3.668,0,0,1-1.074-2.594v-1.223a1.729,1.729,0,0,0-2.952-1.223h0l-.148.148a1.223,1.223,0,0,1-1.731-1.729Z" transform="translate(-215.427 -172.343)" fill="#0026ff"/>
        <path id="Path_13611" data-name="Path 13611" d="M263.175,213.784a1.223,1.223,0,0,0,1.729,0l2.087-2.087.148-.148a1.223,1.223,0,0,0-1.729-1.729l-2.236,2.236A1.223,1.223,0,0,0,263.175,213.784Z" transform="translate(-243.289 -172.351)" fill="#3b58ff"/>
        <path id="Path_13612" data-name="Path 13612" d="M186.181,279.271h22.48A1.729,1.729,0,0,1,210.391,281h0v10.376a3.459,3.459,0,0,1-3.459,3.459H186.181V279.271Z" transform="translate(-172.347 -236.973)" fill="#f32675"/>
        <path id="Path_13613" data-name="Path 13613" d="M206.934,291.376H193.965a2.594,2.594,0,0,1-2.594-2.594v-6.917a2.594,2.594,0,1,0-5.188,0v11.24a1.729,1.729,0,0,0,1.729,1.729h19.022a1.729,1.729,0,1,0,0-3.458Z" transform="translate(-172.349 -236.973)" fill="#d51e70"/>
        <path id="Path_13614" data-name="Path 13614" d="M16.535,124.059l-5.121-6.4a3.459,3.459,0,0,0-2.7-1.3H8.579a3.459,3.459,0,0,0-2.7,1.3l-5.121,6.4A3.459,3.459,0,0,0,0,126.22v14.35a3.459,3.459,0,0,0,3.459,3.459H13.834a3.459,3.459,0,0,0,3.459-3.459h0V126.22a3.46,3.46,0,0,0-.758-2.161Z" transform="translate(0 -86.167)" fill="#ff5794"/>
        <path id="Path_13615" data-name="Path 13615" d="M144.229,144.363a.865.865,0,0,0-.675,1.4l4.235,5.294a1.736,1.736,0,0,1,.379,1.08V153.4c0,.016,0,.032,0,.048s0,.032,0,.048v12.992a1.731,1.731,0,0,1-1.729,1.729h-2.325a.865.865,0,0,0,0,1.729h2.325a3.459,3.459,0,0,0,3.459-3.459h0V153.5c0-.016,0-.032,0-.048s0-.032,0-.048v-1.263a3.459,3.459,0,0,0-.758-2.161l-.047-.059h0l-.025-.031h0l0,0h0l0,0h0l-.007-.009h0l-.015-.019,0,0-.007-.009h0l-.008-.01v0l0,0h0l0,0-4.107-5.133a.863.863,0,0,0-.673-.321Z" transform="translate(-132.605 -112.09)" fill="#ff3f85"/>
        <circle id="Ellipse_1649" data-name="Ellipse 1649" cx="1.729" cy="1.729" r="1.729" transform="translate(6.917 31.922)" fill="#4a4f73"/>
        <g id="Group_7081" data-name="Group 7081" transform="translate(1.729 40.568)">
          <path id="Path_13616" data-name="Path 13616" d="M24.137,256h0a.865.865,0,0,1,.865.865v8.646a.865.865,0,0,1-.865.865h0a.865.865,0,0,1-.865-.865v-8.646A.865.865,0,0,1,24.137,256Z" transform="translate(-23.272 -255.998)" fill="#ff83b0"/>
          <path id="Path_13617" data-name="Path 13617" d="M24.137,418.907h0a.865.865,0,0,1,.865.865V421.5a.865.865,0,0,1-.865.865h0a.865.865,0,0,1-.865-.865v-1.729A.865.865,0,0,1,24.137,418.907Z" transform="translate(-23.272 -406.802)" fill="#ff83b0"/>
        </g>
        <path id="Path_13618" data-name="Path 13618" d="M257.73,302.543h13.834a1.729,1.729,0,0,1,1.729,1.729h0A1.729,1.729,0,0,1,271.564,306H257.73A1.729,1.729,0,0,1,256,304.272h0A1.729,1.729,0,0,1,257.73,302.543Z" transform="translate(-236.979 -258.516)" fill="#f64689"/>
        <path id="Path_13619" data-name="Path 13619" d="M351.6,54.956a5.188,5.188,0,0,0-1.779,7.118h0l0,.007,0,0,0,0,0,0,0,0,0,0,0,0,0,0,0,0,0,0,0,0,0,0,0,0,0,0,0,0,0,0,0,0v0l0,.005v0l0,.006h0l0,.007h0q.08.127.166.248h0l0,.006h0l0,.005v0l0,0,0,0,0,0,0,0,0,0,0,0,0,0,0,0h0l.027.037a.865.865,0,0,0,1.14.229q.035-.021.069-.046a.865.865,0,0,0,.183-1.209q-.1-.133-.185-.277a3.463,3.463,0,0,1,1.186-4.745.865.865,0,0,0-.889-1.483Z" transform="translate(-323.142 -29.211)" fill="#dddff5"/>
      </g>
    </g>
  </g>
</svg>
