<svg xmlns="http://www.w3.org/2000/svg" width="84.577" height="27.193" viewBox="0 0 84.577 27.193">
  <g id="Group_6798" data-name="Group 6798" transform="translate(-260.646 -263.125)">
    <g id="Group_7023" data-name="Group 7023">
      <path id="Path_3666" data-name="Path 3666" d="M0,13.176V26.353l34.357.015c18.872.015,34.167.046,33.978.091q-.694.137-.063.5c.231.137.316.137.316.015s.21-.091.631.061c.778.289,1.136.168.989-.32l-.084-.366H84.577V5.8l-.484-.046c-.316-.03-.484-.167-.5-.426-.063-.381-.063-.381.147-.046.4.7.736.4.8-.7.042-.853-.021-1.066-.295-1.143-.5-.137-.568-.03-.316.609.274.7.168.807-.421.427l-.442-.289L83.1,5.636c.042.792.042,5.545.021,10.541L83.1,25.287H67.725l.231-.32c.21-.259.295-.274.568-.107.295.168.316.168.231-.03a1.1,1.1,0,0,0-.568-.4c-1.346-.487-1.01-.518,6.038-.518h6.985V7.769l-.568-.015-.589-.015.526-.122.526-.122-.463-.107c-.274-.061-.484-.168-.484-.244,0-.2.5-.168.8.046.189.137.252-.015.252-.685,0-.7-.084-.884-.421-1.021-.526-.213-.547-.457-.021-.457.337,0,.4-.122.4-.746.021-.609-.063-.762-.4-.823a.452.452,0,0,1-.4-.4c0-.426.568-.411.694.015.063.259.105.213.126-.152.021-.381-.063-.487-.379-.487a.736.736,0,0,0-.526.183c-.105.152-.147.152-.252,0-.084-.137-3.261-.183-14.854-.183-13.381,0-14.685.015-14.391.244.4.289.4.244.042.731-.231.335-.316.366-.421.168a.292.292,0,0,0-.379-.137c-.168.076-.189,0-.105-.228.273-.792.442-.777-7.532-.777-7.364,0-7.427,0-7.532.32a.289.289,0,0,1-.568-.107c0-.183-2.146-.213-15.464-.213H3.366V23.916H60.593l.21.381a.59.59,0,0,0,1.031.122c.168-.228.231-.228.568-.046.316.2.358.2.252,0-.063-.152-.337-.213-.778-.183-.358.015-.652-.03-.652-.122a22.4,22.4,0,0,1,5.155-.015c.063.076.021.183-.105.244a.4.4,0,0,0-.21.32c0,.168.126.2.463.137.358-.091.421-.061.316.152a1.2,1.2,0,0,0-.147.32c0,.03-14.727.061-32.716.061H1.262V1.066H23.416c17.441,0,22.217-.046,22.428-.2.231-.152.295-.152.379,0,.147.3,3.093.259,3.45-.046.231-.213.273-.213.442,0s1.725.244,13.717.244c11.782,0,13.57-.03,13.8-.229.21-.183.21-.229-.042-.229A1.414,1.414,0,0,1,76.9.3c-.379-.289-.652-.3-9.425-.3H58.447l.105.427c.126.442.105.442-1.178.35-.105-.015-.126-.137-.042-.3.084-.213,0-.3-.358-.366-.8-.152-21.8-.122-21.923.015A1.367,1.367,0,0,1,33.957.107C33.873.046,26.194,0,16.894,0H0ZM44.645,3.458a1.016,1.016,0,0,0,.568.2A2.184,2.184,0,0,1,46.5,5.042c0,.229.147.289.736.289a10.319,10.319,0,0,0,1.683-.183c.757-.152,1.052-.152,1.368,0,.484.213,1.052.244,1.052.046,0-.076.21-.168.484-.2.337-.03.442-.137.421-.366-.042-.229.105-.366.421-.427.842-.168.989-.107.989.366a.556.556,0,0,1-.463.609c-.295.076,4.25.137,11.782.137l12.245.015v15.69H73.658c-3.787,0-4.208-.076-3.955-.762.168-.487-.421-.366-1.178.228l-.673.533H7.364V5.332H24.826c14.5,0,17.441-.03,17.336-.2-.063-.122.042-.3.231-.411.273-.168.316-.137.316.213,0,.4.021.4,1.494.4H45.7l-.673-.579c-.358-.3-.9-.7-1.178-.883l-.526-.3.484-.442c.442-.411.484-.411.568-.152A1.143,1.143,0,0,0,44.645,3.458Zm34.041.533c0,.4-.5.274-.589-.152-.063-.244.021-.3.252-.244A.445.445,0,0,1,78.686,3.991Z" transform="translate(260.646 263.125)" fill="#ff5c5c"/>
      <g id="Component_7_44" data-name="Component 7 – 44" transform="translate(273.219 269.318)">
        <text id="Belum_Bayar" data-name="Belum Bayar" transform="translate(0 10)" fill="#fd5c5c" font-size="10" font-family="Roboto-Bold, Roboto" font-weight="700"><tspan x="0" y="0">Belum Bayar</tspan></text>
      </g>
    </g>
  </g>
</svg>
