<svg xmlns="http://www.w3.org/2000/svg" viewBox="0 0 501.64 286.76"><g id="Layer_2" data-name="Layer 2"><g id="Layer_1-2" data-name="Layer 1"><g id="Group_5853" data-name="Group 5853"><g id="Layer_2-2" data-name="Layer 2"><g id="Isolation_Mode" data-name="Isolation Mode"><rect id="Rectangle_4551" data-name="Rectangle 4551" width="501.64" height="243.63" fill="#fff" fill-opacity="0"/><path id="Path_11144" data-name="Path 11144" d="M489.27,120.65l-26.44,86H40.14A29.07,29.07,0,0,1,12.38,169L38.9,83.08H461.5a29,29,0,0,1,27.77,37.57Z" fill="#009789" fill-rule="evenodd"/><path id="Path_11145" data-name="Path 11145" d="M72.86,37.14,63.12,68.47H43.35l7.51-23.76H60l.23-.73H50.91A11.47,11.47,0,0,1,40,37.14ZM116.44,51q-.7-6.69-12.3-6.44L78.69,45,71.36,68.47H87.63l.86-2.32c2.74-7.28,5.18-11.71,7.28-13.3a8.16,8.16,0,0,1,5-1.4c-.71,1.72-1.25,3.19-1.63,4.36L95.22,68.47h16.52l4-12.66a11.69,11.69,0,0,0,.67-4.84ZM162,57.72q-1,4.71-6.44,7.79Q149.32,69,139.39,69h-2.76A31.93,31.93,0,0,1,125.8,66.8q-6.43-2.77-7-8a10,10,0,0,1,.25-3.31c1-4,4-6.9,9.06-8.85a37.35,37.35,0,0,1,13.41-2.24h2.71a31.67,31.67,0,0,1,10.92,2.28q6.39,2.74,6.94,8a9.54,9.54,0,0,1-.16,2.92Zm-16.61-1.9a9.56,9.56,0,0,0,.15-2.5c-.21-2-1.44-3-3.75-3q-4.55,0-6,6.36a11.15,11.15,0,0,0-.3,3.36,3.19,3.19,0,0,0,3.25,3.11l.37,0q4.89,0,6.18-7.28Zm65-10.76-22,23.42H171.3L163.45,45h16.08l2.66,14.68L193.45,45Zm43.25,0q-9.49-.59-26.34-.59a24.87,24.87,0,0,0-13.09,3.42q-6.71,4.06-6.71,11a13.82,13.82,0,0,0,.09,1.58,8.26,8.26,0,0,0,3.91,6.47,14,14,0,0,0,7.51,1.9,15.89,15.89,0,0,0,13.3-6.5l-1.93,6.16h15.9L253.66,45ZM235.69,50.3,234.63,53a23.22,23.22,0,0,1-3.07,5.75c-1.7,2.27-3.44,3.39-5.24,3.39-1.25,0-1.95-.9-1.95-2.69a11.5,11.5,0,0,1,1.36-5c1.4-2.82,3.42-4.23,6-4.23Zm66.62-13.2L296,44.6h-8.76l-7.34,23.87h-19.7l7.34-23.76h8.65l.23-.73H265.36a11.49,11.49,0,0,1-10.86-6.8h47.8Zm26.27,15.35-.7-6.6q-.13-1.47-7.12-1.47-4.56,0-22.51.68L291,68.48h16.26l.87-2.33A47.32,47.32,0,0,1,312,57.67q4.36-6.75,10.15-6.73c3,0,5.15.51,6.33,1.51ZM373.94,45,366.63,68.5H350.72l1.94-6.16a15.89,15.89,0,0,1-13.31,6.46,13.9,13.9,0,0,1-7.5-1.9,8.24,8.24,0,0,1-3.93-6.47c-.05-.55-.08-1.08-.08-1.58q0-6.93,6.72-11a24.8,24.8,0,0,1,13.07-3.42q16.88,0,26.35.59ZM356,50.27H352c-2.6,0-4.62,1.4-6,4.23a11.39,11.39,0,0,0-1.38,5c0,1.79.65,2.69,2,2.69q2.68,0,5.24-3.39a23.86,23.86,0,0,0,3.07-5.74L356,50.32Zm52.22,2.1c-1.6-1.2-4-1.8-7.28-1.8-3.91,0-6.78.9-8.57,2.66a6.19,6.19,0,0,0-1.85,4.48v.85c.21,2.14,1.68,3.21,4.39,3.22a27.58,27.58,0,0,0,12.24-2.42l-2.58,7.15c-.09.25-.6.56-1.54.92a28.79,28.79,0,0,1-10.22,1.43,30.47,30.47,0,0,1-12.12-2.2c-4.11-1.78-6.34-4.32-6.69-7.59,0-.4-.06-.78-.06-1.15q0-5.3,5.44-9.05,6.5-4.48,17.86-4.48a29.43,29.43,0,0,1,10.25,1.37l.7,6.61Zm49.94-7.17-1.49,5.57a14,14,0,0,0-2.5-.2,13.17,13.17,0,0,0-7.23,1.82l-4.64,3,8.37,13H433.14l-4.43-11.68-3.64,11.68H408.66L418.47,37h16.46l-5.18,16.38a13.19,13.19,0,0,1,3.95-4.48q6.1-4.5,16.85-4.5a29.36,29.36,0,0,1,7.59.84Z" fill="#ea8a23" fill-rule="evenodd"/><path id="Path_11146" data-name="Path 11146" d="M425.83,139.21c-1.38-.62-2.8-1.25-4.35-1.86q-8.44-3.53-11-5.48a5.84,5.84,0,0,1-2.5-4.06q0-6.68,12.45-6.69a62.38,62.38,0,0,1,30.91,8.6l6.8-18.08c-2.28-.94-15-5.85-17.51-6.57a78.87,78.87,0,0,0-24.17-3.49h-1.38a72.18,72.18,0,0,0-21.14,3.2,43.19,43.19,0,0,0-8.75,3.92l-.43.22c-.39.24-.72.5-1.1.74a31.64,31.64,0,0,0-6.18,5,21.71,21.71,0,0,0-6.1,13.26c-.09.83-.14,1.67-.15,2.5a20.3,20.3,0,0,0,5.59,14.67c3.1,3.23,8,6.18,14.54,8.87,1.38.63,2.8,1.26,4.34,1.87q8.46,3.53,11,5.48a5.73,5.73,0,0,1,2.5,4.05q0,6.67-12.45,6.68a62.45,62.45,0,0,1-30.9-8.58l-5.6,19.17c2.9,1.56,14.06,5.35,16.55,6.07a76.1,76.1,0,0,0,23.87,2.87l1.25-.06a60,60,0,0,0,21.27-3.09,43.78,43.78,0,0,0,8.75-3.93l.43-.22c.39-.23.74-.5,1.1-.74a31.64,31.64,0,0,0,6.18-5,21.85,21.85,0,0,0,6.1-13.26c.09-.83.14-1.66.15-2.5a20.31,20.31,0,0,0-5.59-14.7Q435.69,143.24,425.83,139.21Z" fill="#fff"/><path id="Path_11147" data-name="Path 11147" d="M186.06,100.47l-17.51,20.74H144.44l-20.27,65.91H69.7L90,121.34h23.85l.61-2H84a33.51,33.51,0,0,1-21.74-7.65A33.07,33.07,0,0,1,54,100.52l132.06-.07Z" fill="#fff" fill-rule="evenodd"/><path id="Path_11148" data-name="Path 11148" d="M355.13,123.62q-1.85-17.5-32.09-16.8h-.62A91.08,91.08,0,0,0,289,114c-5-5-14.23-7.44-27.63-7.14l-66.44,1.39-24.76,79.16h42.53l7.91-24.13q10.74-28.52,19-34.73,4.91-3.63,13.08-3.65-2.78,6.79-4.24,11.4l-16.58,51.11h41.8l8.95-28.14a81.17,81.17,0,0,1,7.73-17.44c4-6.59,8-11,11-13.27q4.89-3.65,13.09-3.65c-1.86,4.52-3.28,8.33-4.25,11.4L294,187.38h43.16l16.26-51.11A31.29,31.29,0,0,0,355.13,123.62Z" fill="#fff" fill-rule="evenodd"/></g></g><g id="Driver" style="isolation:isolate"><text transform="translate(272.44 263.42)" font-size="62" fill="#159789" font-family="Arial-BoldItalicMT, Arial" font-weight="700" font-style="italic" style="isolation:isolate">Driver</text></g></g></g></g></svg>