<svg id="Layer_1" data-name="Layer 1" xmlns="http://www.w3.org/2000/svg" viewBox="0 0 62.46 59.89">
  <title>angkut_icon_menu_contacts</title>
  <g id="Layer_1-2" data-name="Layer 1-2">
    <g id="Group_2941" data-name="Group 2941">
      <g id="Group_2240" data-name="Group 2240">
        <g id="Group_2128" data-name="Group 2128">
          <path id="Path_1322-2" data-name="Path 1322-2" d="M27.13,0C47,0,62.46,15.51,62.46,34S47,59.89,27.13,59.89,0,46.63,0,28.13C0,17.42,1.71,11.55,7.86,6.59A31.21,31.21,0,0,1,27.13,0Z" transform="translate(0 0)" fill="#008af6"/>
          <g id="Group_2102" data-name="Group 2102">
            <path id="path330" d="M17.82,6.41C1.15,23.55,10,50.47,35.28,51.55a28.11,28.11,0,0,0,15.2-3.3c-.22.25-.46.5-.7.74,9.12-9.25,9.4-25.33,1-35.28C39.48.38,24.54,2.87,17.82,6.41" transform="translate(0 0)" fill="#fff"/>
            <path id="path364" d="M35.28,51.55C10,50.47,1.15,23.55,17.82,6.41h0l-.54.3h-.07L16.76,7l-.18.12-.32.21-.46.33C7.73,14,3.86,22.17,3.6,30.06A24.69,24.69,0,0,0,3.76,34c.08.64.18,1.28.3,1.91A24,24,0,0,0,13,50.43a26.62,26.62,0,0,0,9.46,4.64,32.57,32.57,0,0,0,7.08,1.06h2.79c.59,0,1.16-.06,1.72-.11h.41c.66-.07,1.3-.16,1.94-.26l.56-.1c.46-.09.92-.19,1.37-.3l.58-.14c.57-.15,1.12-.32,1.66-.5.19-.06.37-.14.56-.21q.55-.19,1.08-.42l.69-.3,1-.47,1-.55.78-.46c.25-.17.5-.32.74-.49l.57-.41q.73-.52,1.41-1.11l.3-.25c.25-.22.49-.46.73-.69l.36-.36c.24-.24.48-.48.71-.74a28,28,0,0,1-15.2,3.3" transform="translate(0 0)" fill="#d1d1d1"/>
          </g>
        </g>
      </g>
    </g>
  </g>
  <g id="Layer_1-2-2" data-name="Layer 1-2">
    <g id="headphones">
      <g id="Group_3757" data-name="Group 3757">
        <g id="Group_3756" data-name="Group 3756">
          <path id="Path_3899" data-name="Path 3899" d="M30.91,13.57A15.82,15.82,0,0,0,15.13,29.44v7.41a2.78,2.78,0,0,0,2.77,2.79h.93v-9.3H17.9a3,3,0,0,0-.92.18V29.44a14,14,0,1,1,27.92,0V30.5a2.64,2.64,0,0,0-.92-.18h-.93v9.32H44a2.78,2.78,0,0,0,2.77-2.79V29.44A15.82,15.82,0,0,0,31,13.57Z" transform="translate(0 0)" fill="#f8f86b" stroke="#231f20" stroke-width="0.5"/>
        </g>
      </g>
      <g id="Group_3759" data-name="Group 3759">
        <g id="Group_3758" data-name="Group 3758">
          <path id="Path_3900" data-name="Path 3900" d="M23.47,28.48h-.93a1.85,1.85,0,0,0-1.86,1.85h0v9.32a1.85,1.85,0,0,0,1.85,1.86h.94a.93.93,0,0,0,.93-.93h0V29.44a.94.94,0,0,0-.93-.93Z" transform="translate(0 0)" fill="#f8f86b" stroke="#231f20" stroke-width="0.5"/>
        </g>
      </g>
      <g id="Group_3761" data-name="Group 3761">
        <g id="Group_3760" data-name="Group 3760">
          <path id="Path_3901" data-name="Path 3901" d="M39.33,28.48H38.4a.94.94,0,0,0-.94.93h0V40.59a.93.93,0,0,0,.93.93h.94a1.85,1.85,0,0,0,1.85-1.86h0V30.34a1.85,1.85,0,0,0-1.85-1.86Z" transform="translate(0 0)" fill="#f8f86b" stroke="#231f20" stroke-width="0.5"/>
        </g>
      </g>
    </g>
  </g>
</svg>
