<svg id="Layer_1" data-name="Layer 1" xmlns="http://www.w3.org/2000/svg" viewBox="0 0 43.7 41.87">
  <title>icon_contact</title>
  <g id="Group_2242" data-name="Group 2242">
    <g id="Group_2109" data-name="Group 2109">
      <g id="Group_2241" data-name="Group 2241">
        <path id="Path_1322" data-name="Path 1322" d="M19,0C32.9,0,43.7,10.85,43.7,23.78S32.87,41.87,19,41.87,0,32.6,0,19.67C0,12.18,1.2,8.07,5.49,4.6A21.88,21.88,0,0,1,19,0Z" transform="translate(0 0)" fill="#fff"/>
      </g>
      <g id="Group_2102" data-name="Group 2102">
        <path id="path330" d="M12.46,4.48C.8,16.46,7,35.29,24.67,36A19.64,19.64,0,0,0,35.3,33.73l-.5.51c6.38-6.46,6.58-17.7.69-24.66a18.72,18.72,0,0,0-23-5.1" transform="translate(0 0)" fill="#008af6"/>
        <path id="path364" d="M24.67,36C7,35.29.8,16.47,12.46,4.48h0l-.38.21H12l-.32.19L11.59,5l-.22.14L11,5.37C5.41,9.75,2.7,15.5,2.51,21a17.82,17.82,0,0,0,.12,2.73c.05.45.12.9.21,1.34A17,17,0,0,0,9.1,35.26a18.63,18.63,0,0,0,6.61,3.24,22.44,22.44,0,0,0,4.95.74h2a6.05,6.05,0,0,0,1.2-.08h.28A7.57,7.57,0,0,0,25.45,39l.4-.07,1-.2.4-.1c.4-.1.78-.22,1.16-.35l.4-.14.75-.3c.16-.07.33-.13.48-.21l.69-.33.7-.38c.18-.11.37-.21.55-.33l.51-.34.4-.28c.34-.25.67-.51,1-.78L34,35c.18-.15.35-.31.52-.48l.25-.25.49-.51A19.58,19.58,0,0,1,24.67,36" transform="translate(0 0)" fill="#007eba"/>
      </g>
    </g>
    <g id="Layer_1-2" data-name="Layer 1-2">
      <g id="headphones">
        <g id="Group_3757" data-name="Group 3757">
          <g id="Group_3756" data-name="Group 3756">
            <path id="Path_3899" data-name="Path 3899" d="M21.32,8.39C15,8.39,10,13.74,10,20.34v5.57A2.05,2.05,0,0,0,12,28h.67V21H12a1.86,1.86,0,0,0-.66.14v-.81A10.32,10.32,0,0,1,21.34,9.77,10.33,10.33,0,0,1,31.4,20.34v.79a2,2,0,0,0-.67-.13h-.67v7h.67a2.05,2.05,0,0,0,2-2.1V20.34c0-6.6-5.09-11.95-11.37-11.95Z" transform="translate(0 0)" fill="#fcaf17" stroke="#231f20" stroke-width="0.21"/>
          </g>
        </g>
        <g id="Group_3759" data-name="Group 3759">
          <g id="Group_3758" data-name="Group 3758">
            <path id="Path_3900" data-name="Path 3900" d="M16,19.61h-.67A1.38,1.38,0,0,0,14,21h0v7a1.37,1.37,0,0,0,1.34,1.4H16a.68.68,0,0,0,.67-.7h0V20.34a.71.71,0,0,0-.67-.71Z" transform="translate(0 0)" fill="#fcaf17" stroke="#231f20" stroke-width="0.1"/>
          </g>
        </g>
        <g id="Group_3761" data-name="Group 3761">
          <g id="Group_3760" data-name="Group 3760">
            <path id="Path_3901" data-name="Path 3901" d="M27.38,19.61h-.67a.68.68,0,0,0-.67.7h0v8.42a.68.68,0,0,0,.67.7h.67A1.36,1.36,0,0,0,28.71,28h0V21a1.36,1.36,0,0,0-1.33-1.4Z" transform="translate(0 0)" fill="#fcaf17" stroke="#231f20" stroke-width="0.1"/>
          </g>
        </g>
      </g>
    </g>
  </g>
</svg>
