<svg xmlns="http://www.w3.org/2000/svg" viewBox="0 0 688.5 82.61"><g id="Layer_2" data-name="Layer 2"><g id="Layer_1-2" data-name="Layer 1"><g id="InovaTrack_-_Logo_white_" data-name="InovaTrack - Logo white "><path id="Path_9252" data-name="Path 9252" d="M62.89,0,44.12,60.15h-38L20.61,14.46H38.23l.51-1.37H21A23.43,23.43,0,0,1,5.8,7.84,21.89,21.89,0,0,1,0,.16H62.89Zm83.65,26.57c-.83-8.51-8.66-12.74-23.67-12.42l-48.9,1-14.14,45H91.18l1.68-4.43c5.29-13.95,9.91-22.49,14-25.49a16.53,16.53,0,0,1,9.56-2.74c-1.37,3.41-2.39,6.15-3.19,8.35l-7.68,24.37h31.7l7.68-24.37a19.39,19.39,0,0,0,1.53-9.21Zm87.45,13a23.48,23.48,0,0,1-12.42,15c-7.84,4.62-18.26,6.81-31,6.81a49.12,49.12,0,0,1-5.29-.15,62.13,62.13,0,0,1-20.77-4.27c-8.19-3.41-12.74-8.51-13.48-15.17a20.09,20.09,0,0,1,.51-6.37c1.88-7.64,7.68-13.28,17.39-17a70.63,70.63,0,0,1,25.71-4.24,40.6,40.6,0,0,1,5.29.16,57.85,57.85,0,0,1,21,4.43c8.19,3.56,12.75,8.7,13.29,15.51a14.26,14.26,0,0,1,0,5.29Zm-31.86-3.76a24.82,24.82,0,0,0,.32-4.94q-.48-5.64-7.13-5.64c-5.8,0-9.56,4.11-11.44,12.26a23.57,23.57,0,0,0-.51,6.38,6.37,6.37,0,0,0,6.37,6h.57c6.15,0,10.07-4.78,11.79-14.14ZM327.05,15.16l-42.28,45H251.86l-15-45H267.6l5.1,28.1,21.63-28.1Zm83,0c-12.11-.7-29-1.21-50.63-1.21a46.46,46.46,0,0,0-25,6.66c-8.53,5.26-13,12.27-13,21.12a16.23,16.23,0,0,0,.19,3.19,15.91,15.91,0,0,0,7.48,12.45,27,27,0,0,0,14.5,3.57,30.33,30.33,0,0,0,25.49-12.42l-3.76,11.75h30.52l14.14-45Zm-34.44,10-2,5.29a43,43,0,0,1-6,11.08c-3.18,4.24-6.65,6.37-10.06,6.37-2.55,0-3.76-1.68-3.76-5.1a23.06,23.06,0,0,1,2.55-9.55,12.73,12.73,0,0,1,11.6-8.19Z" fill="#fff" fill-rule="evenodd"/></g><path id="Path_11086" data-name="Path 11086" d="M450.27,64.86a4.38,4.38,0,0,1-2.13-2.8,27.72,27.72,0,0,1-.93-6.66A27.73,27.73,0,0,0,446.8,51a11.84,11.84,0,0,0-.61-2.55,6,6,0,0,1-.57-2.42,4.72,4.72,0,0,1,1-2.93,3.49,3.49,0,0,0,.54-1,6.35,6.35,0,0,0,.38-1.56,16.67,16.67,0,0,1,.23-3c.22-1.31,0-3.19.16-5.23l.22-9.56,1.56-1.33a4.41,4.41,0,0,1,3-1.34,4.26,4.26,0,0,1,2.74,1.15,5.51,5.51,0,0,1,1.81,2.86,20.84,20.84,0,0,1,.54,5.67v8.8c0,.63,0,1,.19,1a5.66,5.66,0,0,0,1.25-.51l2.55-1.21q13.15-6.37,13.12-13.7c0-2.13-1.53-3.92-4.52-5.35a24.53,24.53,0,0,0-10.68-2.13,30.58,30.58,0,0,0-3.82.22,31.41,31.41,0,0,0-9.56,2.55q-3.81,1.82-4.33,4a5.21,5.21,0,0,1-1.53,2.68,3.4,3.4,0,0,1-2.32,1.14,4.87,4.87,0,0,1-3.92-1.81,6.43,6.43,0,0,1-1.47-4.3,7.42,7.42,0,0,1,.64-3,12,12,0,0,1,3.19-4,23.63,23.63,0,0,1,5.28-3.5A37,37,0,0,1,450.46,8a45.06,45.06,0,0,1,9.34-1,35,35,0,0,1,14.46,2.8A20.32,20.32,0,0,1,480,14a16.4,16.4,0,0,1,3.67,5.48,14.34,14.34,0,0,1,.92,5.06,19.66,19.66,0,0,1-6.37,13.64A50.6,50.6,0,0,1,460,49.25l-2.84,1.06v5.83a28.42,28.42,0,0,1-.54,6.37,3.54,3.54,0,0,1-2,2.39,4.83,4.83,0,0,1-2.13.63,4,4,0,0,1-2.17-.67Zm45.11-46.48a3.72,3.72,0,0,1,2.77,1.08,4.82,4.82,0,0,1,1.44,2.87,92.51,92.51,0,0,1,.44,9.85V51.1a61.65,61.65,0,0,1-.38,8.48,7.7,7.7,0,0,1-1.82,4.84,4.9,4.9,0,0,1-3.18,1.3,5.08,5.08,0,0,1-2.2-.73,5.42,5.42,0,0,1-2.2-3.76,39.38,39.38,0,0,1-.38-6.78V43.93c0-3.63.09-7.49.28-11.56a65.07,65.07,0,0,1,1-9.85,5.83,5.83,0,0,1,1.34-2.74,4.64,4.64,0,0,1,2.93-1.4Zm-.32-17.17A4.43,4.43,0,0,1,499.27,4a7.52,7.52,0,0,1,.8,3.19,6.35,6.35,0,0,1-1.47,4,5.58,5.58,0,0,1-3.6,1.43,4.4,4.4,0,0,1-2.32-.63,4.85,4.85,0,0,1-1.82-2,5.62,5.62,0,0,1-.57-2.58,7.13,7.13,0,0,1,1.3-4.24,4.54,4.54,0,0,1,3.47-1.94Zm18.7,63.72a12.92,12.92,0,0,1-8.38-8.54,23.86,23.86,0,0,1-.73-6.18,45,45,0,0,1,2.93-15.39,39.13,39.13,0,0,1,6-8.79A24.23,24.23,0,0,1,520.48,20a10.18,10.18,0,0,1,4-.93,8.38,8.38,0,0,1,7.71,8.19,6.48,6.48,0,0,1-.48,2.42,3.79,3.79,0,0,1-3.76,2.61,4.73,4.73,0,0,1-3.19-1.3l-1.5-1.31-1.65,1.88a33.74,33.74,0,0,0-4.24,5.7A21.9,21.9,0,0,0,515.22,43a32.1,32.1,0,0,0-.92,7c0,3.19.83,5,2.55,5.55H518a13.31,13.31,0,0,0,8.25-4.05A12.25,12.25,0,0,1,531,48.29a5.13,5.13,0,0,1,1,0,3.71,3.71,0,0,1,3.44,1.82,5,5,0,0,1,.57,2.33,8,8,0,0,1-.73,3.18,14.55,14.55,0,0,1-3.5,4.11,26,26,0,0,1-5.42,3.67,17.15,17.15,0,0,1-3.18,1.27,22.38,22.38,0,0,1-3.92.41H516a8.84,8.84,0,0,1-2.23-.22Zm29.76-.29a10.19,10.19,0,0,1-2.68-7.84c-.19-4-.25-6.82-.25-8.5q0-9.75,1.17-26.54c.2-3,.32-5.36.39-7V8.7a15.28,15.28,0,0,1,0-2.14c0-3.76,1.46-5.64,4.36-5.64h.35a4.77,4.77,0,0,1,4.24,3,28.07,28.07,0,0,1,1,9.3q0,4.26-.39,10.13l-.63,9.17,6-5.44c1.65-1.56,3.18-3,4.46-4.34a20,20,0,0,0,2.48-2.8c1.12-1.91,2.17-3,3.19-3.18a10.53,10.53,0,0,1,2-.38A4.71,4.71,0,0,1,572.6,18a4.64,4.64,0,0,1,1,1.5,5.81,5.81,0,0,1,.26,1.66v.47a7,7,0,0,1-1.56,3.95,58.47,58.47,0,0,1-6.22,6.37L561,36.7l2.17,3.64c.6,1,1.56,2.51,2.83,4.33s2.58,3.63,3.92,5.41,2.84,3.83,3.63,5a12,12,0,0,1,1.4,2.55,4.08,4.08,0,0,1,.19,1.25,3.42,3.42,0,0,1,0,1c-.51,1.82-1.27,2.84-2.26,3.19a8.15,8.15,0,0,1-2.13.38,5.55,5.55,0,0,1-3.5-1.4,38.35,38.35,0,0,1-2.8-3.18c-1.31-1.66-2.74-3.5-4.27-5.55s-2.87-3.91-4-5.67c-.57-.86-1.08-1.56-1.53-2.13a3.65,3.65,0,0,0-.82-.89l-.67.19-1.21.38a2.63,2.63,0,0,0-1.31.8,4.51,4.51,0,0,0-.32,1.82,26,26,0,0,0,.19,3.18c.19,1.56.29,3,.48,4.59s.38,2.87.45,3.89,0,1.72,0,2.16a6.49,6.49,0,0,1,0,1.08,3.68,3.68,0,0,1-2.27,2.8,9.21,9.21,0,0,1-2.32.48,4.84,4.84,0,0,1-3-1.11ZM646.1,67.22q-3.87-1.29-5.61-12.42l-.83-5-1.53,2.83A25.71,25.71,0,0,1,625.39,65a14.14,14.14,0,0,1-3.82.58,13.26,13.26,0,0,1-11-6.38,41.84,41.84,0,0,1-6.37-18.09c-.29-2.23-.55-5.51-.74-9.88s-.28-8.41-.28-12.1a52.46,52.46,0,0,1,.35-7.52c.67-2.71,2.13-4.05,4.36-4.05a4.4,4.4,0,0,1,3,1.21A6,6,0,0,1,612.68,12c0,.51,0,1.78.19,3.92s0,4.49,0,7.1a117.86,117.86,0,0,0,1,17.71,37.89,37.89,0,0,0,3.47,11.44c1.23,2.48,2.73,3.73,4.5,3.73a4.37,4.37,0,0,0,2.23-1.25,29.23,29.23,0,0,0,3-2.93,17.62,17.62,0,0,0,2.32-3.18A98.1,98.1,0,0,0,635.08,33a140.7,140.7,0,0,0,4.07-18,49.7,49.7,0,0,1,1.25-6.85A4.58,4.58,0,0,1,642,5.45a5.39,5.39,0,0,1,5.61-.26,3.87,3.87,0,0,1,1.53,1.72,12.48,12.48,0,0,1,.44,3.89c0,2.32-.07,4.64-.28,6.94-.32,5.83-.48,11.19-.48,16.12s.16,9.56.54,13.48a72,72,0,0,0,.76,7.17c.29,1.65.74,3.6,1.34,5.8a12.74,12.74,0,0,1,.58,3.18,3.65,3.65,0,0,1-.39,1.66,4.65,4.65,0,0,1-4.23,2.8,4.19,4.19,0,0,1-1.44-.28ZM662,18A4.49,4.49,0,0,1,665,19.53a5.34,5.34,0,0,1,1.33,1.85,10.9,10.9,0,0,1,.61,2.7l.32,3,1.94-2a13.3,13.3,0,0,1,9.3-4.36h0q9,0,10,13.19v2a33.21,33.21,0,0,1-2.33,11.82,32,32,0,0,1-6.82,10.74,20.25,20.25,0,0,1-10,5.92h-.51a3.24,3.24,0,0,0-1.5.48A1.7,1.7,0,0,0,667,66v1a15.09,15.09,0,0,0,.45,3.66,11,11,0,0,0,.19,1.4,38.19,38.19,0,0,1,.48,5.45v1.72a4.09,4.09,0,0,1-1.37,2.29,4.59,4.59,0,0,1-2.8,1.09h-.48a4.51,4.51,0,0,1-2.55-.7,3.93,3.93,0,0,1-1.18-1.22,6.62,6.62,0,0,1-.8-2.16c-.22-1-.51-2.36-.8-4.21a43.92,43.92,0,0,1-.54-5c0-1.94-.19-4.78-.25-8.53s0-9,0-15.93V40c0-2.58-.2-5.38-.2-8.31v-.83a67.91,67.91,0,0,1,.32-7.13,7.26,7.26,0,0,1,1.5-4.4,4.29,4.29,0,0,1,2.93-1.4Zm15.7,12.74c-.26,0-.73.35-1.47,1.05a33.35,33.35,0,0,0-2.32,2.58,28.3,28.3,0,0,0-2.26,3.19,14.41,14.41,0,0,0-2.68,7,5,5,0,0,1-.26,1.37,9.85,9.85,0,0,1-.7,1.72,10.07,10.07,0,0,0-.92,4.62v1.88c0,.38,0,.6.29.63h.73l1.18-.54a9.08,9.08,0,0,0,1.37-.83,18.91,18.91,0,0,0,5.8-7.42,24.17,24.17,0,0,0,2.42-9.88v-.38c0-3.18-.41-4.84-1.21-4.84Z" fill="#f89825"/></g></g></svg>