<svg xmlns="http://www.w3.org/2000/svg" viewBox="0 0 688.5 488.18"><g id="Layer_2" data-name="Layer 2"><g id="Layer_1-2" data-name="Layer 1"><g id="Layer_1-3" data-name="Layer 1"><g id="Group_6283" data-name="Group 6283"><g id="Group_6282" data-name="Group 6282"><g id="InovaTrack_-_Logo_white_" data-name="InovaTrack - Logo white "><path id="Path_9252" data-name="Path 9252" d="M62.89,405.58,44.12,465.72h-38L20.61,420H38.23l.51-1.37H21A23.49,23.49,0,0,1,5.8,413.41,21.8,21.8,0,0,1,0,405.73H62.89Zm83.65,26.56c-.83-8.5-8.66-12.74-23.67-12.42l-48.9,1-14.14,45H91.18l1.68-4.43c5.29-14,9.91-22.49,14-25.48a16.46,16.46,0,0,1,9.56-2.74c-1.37,3.41-2.39,6.15-3.19,8.35l-7.68,24.37h31.7l7.68-24.37a19.39,19.39,0,0,0,1.53-9.21Zm87.45,13a23.45,23.45,0,0,1-12.42,15c-7.84,4.62-18.26,6.82-31,6.82a49.12,49.12,0,0,1-5.29-.16,61.89,61.89,0,0,1-20.77-4.27c-8.19-3.4-12.74-8.5-13.48-15.16a20.07,20.07,0,0,1,.51-6.37c1.88-7.65,7.68-13.29,17.39-17.05a70.62,70.62,0,0,1,25.71-4.23,42.44,42.44,0,0,1,5.29.15,57.85,57.85,0,0,1,21,4.43c8.19,3.57,12.75,8.7,13.29,15.52a14.2,14.2,0,0,1,0,5.28Zm-31.86-3.76a24.72,24.72,0,0,0,.32-4.94q-.48-5.64-7.13-5.64c-5.8,0-9.56,4.11-11.44,12.27a23.49,23.49,0,0,0-.51,6.37,6.37,6.37,0,0,0,6.37,6h.57c6.15,0,10.07-4.78,11.79-14.15Zm124.92-20.61-42.28,45H251.86l-15-45H267.6l5.1,28.1,21.63-28.1Zm83,0c-12.11-.7-29-1.21-50.63-1.21a46.46,46.46,0,0,0-25,6.66c-8.53,5.25-13,12.26-13,21.12a16.13,16.13,0,0,0,.19,3.18A15.92,15.92,0,0,0,329.08,463a27.17,27.17,0,0,0,14.5,3.57,30.34,30.34,0,0,0,25.49-12.43l-3.76,11.76h30.52l14.14-45Zm-34.44,10-2,5.29a43,43,0,0,1-6,11.09c-3.18,4.24-6.65,6.37-10.06,6.37-2.55,0-3.76-1.69-3.76-5.1a23.15,23.15,0,0,1,2.55-9.56,12.72,12.72,0,0,1,11.6-8.18Z" fill="#fff" fill-rule="evenodd"/></g><path id="Path_11086" data-name="Path 11086" d="M450.27,470.44a4.4,4.4,0,0,1-2.13-2.8,27.79,27.79,0,0,1-.93-6.66,28,28,0,0,0-.41-4.37,11.76,11.76,0,0,0-.61-2.54,6,6,0,0,1-.57-2.43,4.74,4.74,0,0,1,1-2.93,3.44,3.44,0,0,0,.54-.95,6.58,6.58,0,0,0,.38-1.56,16.71,16.71,0,0,1,.23-3c.22-1.3,0-3.18.16-5.22l.22-9.56,1.56-1.34a4.46,4.46,0,0,1,3-1.34,4.26,4.26,0,0,1,2.74,1.15,5.54,5.54,0,0,1,1.81,2.87,20.8,20.8,0,0,1,.54,5.67v8.79c0,.64,0,1,.19,1a6.19,6.19,0,0,0,1.25-.51l2.55-1.21q13.15-6.37,13.12-13.7c0-2.14-1.53-3.92-4.52-5.35a24.69,24.69,0,0,0-10.68-2.14,32.62,32.62,0,0,0-3.82.22,31.41,31.41,0,0,0-9.56,2.55q-3.81,1.81-4.33,4a5.23,5.23,0,0,1-1.53,2.67,3.37,3.37,0,0,1-2.32,1.15,4.91,4.91,0,0,1-3.92-1.82,6.39,6.39,0,0,1-1.47-4.3,7.34,7.34,0,0,1,.64-3,11.87,11.87,0,0,1,3.19-3.95,23.29,23.29,0,0,1,5.28-3.5,37,37,0,0,1,8.57-2.77,45.76,45.76,0,0,1,9.34-1,35.37,35.37,0,0,1,14.46,2.8,20.52,20.52,0,0,1,5.73,4.17,16.5,16.5,0,0,1,3.67,5.48,14.39,14.39,0,0,1,.92,5.07,19.64,19.64,0,0,1-6.37,13.63A50.76,50.76,0,0,1,460,454.83l-2.84,1.05v5.83a28.32,28.32,0,0,1-.54,6.37,3.5,3.5,0,0,1-2,2.39,5,5,0,0,1-2.13.64,4.11,4.11,0,0,1-2.17-.67ZM495.38,424a3.72,3.72,0,0,1,2.77,1.08,4.77,4.77,0,0,1,1.44,2.87,92.32,92.32,0,0,1,.44,9.84v18.93a61.43,61.43,0,0,1-.38,8.47,7.65,7.65,0,0,1-1.82,4.84,4.91,4.91,0,0,1-3.18,1.31,5.36,5.36,0,0,1-2.2-.73,5.46,5.46,0,0,1-2.2-3.76,39.55,39.55,0,0,1-.38-6.79V449.51c0-3.64.09-7.49.28-11.57a64.94,64.94,0,0,1,1-9.84,5.79,5.79,0,0,1,1.34-2.74,4.54,4.54,0,0,1,2.93-1.4Zm-.32-17.17a4.4,4.4,0,0,1,4.21,2.8,7.48,7.48,0,0,1,.8,3.18,6.35,6.35,0,0,1-1.47,4,5.58,5.58,0,0,1-3.6,1.43,4.5,4.5,0,0,1-2.32-.64,4.85,4.85,0,0,1-1.82-2,5.59,5.59,0,0,1-.57-2.58,7.12,7.12,0,0,1,1.3-4.23,4.55,4.55,0,0,1,3.47-2Zm18.7,63.71a12.92,12.92,0,0,1-8.38-8.54,23.81,23.81,0,0,1-.73-6.18,44.9,44.9,0,0,1,2.93-15.38,39.19,39.19,0,0,1,6-8.8,24.38,24.38,0,0,1,6.94-6.05,10,10,0,0,1,4-.92,8.38,8.38,0,0,1,7.71,8.18,6.45,6.45,0,0,1-.48,2.42,3.79,3.79,0,0,1-3.76,2.62,4.74,4.74,0,0,1-3.19-1.31l-1.5-1.31-1.65,1.88a34.14,34.14,0,0,0-4.24,5.7,22.16,22.16,0,0,0-2.14,5.77,32.19,32.19,0,0,0-.92,7c0,3.18.83,5,2.55,5.54H518a13.26,13.26,0,0,0,8.25-4.05,12.33,12.33,0,0,1,4.71-3.18,5.13,5.13,0,0,1,1,0,3.7,3.7,0,0,1,3.44,1.81,5,5,0,0,1,.57,2.33,8,8,0,0,1-.73,3.19,14.69,14.69,0,0,1-3.5,4.11,25.93,25.93,0,0,1-5.42,3.66,16.49,16.49,0,0,1-3.18,1.27,23.39,23.39,0,0,1-3.92.42H516a9.33,9.33,0,0,1-2.23-.22Zm29.76-.29a10.17,10.17,0,0,1-2.68-7.83c-.19-4-.25-6.82-.25-8.51q0-9.75,1.17-26.54c.2-3,.32-5.36.39-7v-6.09a15.14,15.14,0,0,1,0-2.13c0-3.76,1.46-5.64,4.36-5.64h.35a4.76,4.76,0,0,1,4.24,3,28.1,28.1,0,0,1,1,9.3q0,4.27-.39,10.13l-.63,9.18,6-5.45c1.65-1.56,3.18-3,4.46-4.33a20.61,20.61,0,0,0,2.48-2.8c1.12-1.91,2.17-3,3.19-3.19a10.53,10.53,0,0,1,2-.38,4.71,4.71,0,0,1,3.38,1.59,4.64,4.64,0,0,1,1,1.5,5.87,5.87,0,0,1,.26,1.66v.48a7,7,0,0,1-1.56,3.95,58.47,58.47,0,0,1-6.22,6.37l-5.1,4.78,2.17,3.63c.6,1,1.56,2.52,2.83,4.33s2.58,3.64,3.92,5.42,2.84,3.82,3.63,5a11.71,11.71,0,0,1,1.4,2.55,4,4,0,0,1,.19,1.24,3.49,3.49,0,0,1,0,1c-.51,1.82-1.27,2.83-2.26,3.19a8.15,8.15,0,0,1-2.13.38,5.6,5.6,0,0,1-3.5-1.4,38.49,38.49,0,0,1-2.8-3.19c-1.31-1.66-2.74-3.5-4.27-5.54s-2.87-3.92-4-5.67c-.57-.86-1.08-1.56-1.53-2.14a3.65,3.65,0,0,0-.82-.89l-.67.19-1.21.38a2.78,2.78,0,0,0-1.31.8,4.54,4.54,0,0,0-.32,1.82,26.14,26.14,0,0,0,.19,3.19c.19,1.56.29,3,.48,4.58s.38,2.87.45,3.89,0,1.72,0,2.17a6.49,6.49,0,0,1,0,1.08,3.71,3.71,0,0,1-2.27,2.8,10.18,10.18,0,0,1-2.32.48,4.8,4.8,0,0,1-3-1.12Zm102.58,2.58q-3.87-1.29-5.61-12.42l-.83-5-1.53,2.84a25.71,25.71,0,0,1-12.74,12.36,14.13,14.13,0,0,1-3.82.57,13.27,13.27,0,0,1-11-6.37,41.89,41.89,0,0,1-6.37-18.09c-.29-2.23-.55-5.52-.74-9.88s-.28-8.41-.28-12.11a52.53,52.53,0,0,1,.35-7.52c.67-2.7,2.13-4,4.36-4a4.36,4.36,0,0,1,3,1.21,5.92,5.92,0,0,1,1.78,3.19c0,.51,0,1.78.19,3.91s0,4.5,0,7.1a117.92,117.92,0,0,0,1,17.72,37.83,37.83,0,0,0,3.47,11.43q1.85,3.73,4.5,3.73a4.35,4.35,0,0,0,2.23-1.24,29.23,29.23,0,0,0,3-2.93,18,18,0,0,0,2.32-3.19,97.63,97.63,0,0,0,5.68-15.54,140.85,140.85,0,0,0,4.07-18,49.84,49.84,0,0,1,1.25-6.84A4.61,4.61,0,0,1,642,411a5.37,5.37,0,0,1,5.61-.25,3.81,3.81,0,0,1,1.53,1.72,12.38,12.38,0,0,1,.44,3.88q0,3.48-.28,6.95c-.32,5.83-.48,11.18-.48,16.12s.16,9.56.54,13.47a71.39,71.39,0,0,0,.76,7.17c.29,1.66.74,3.6,1.34,5.8a12.9,12.9,0,0,1,.58,3.19,3.71,3.71,0,0,1-.39,1.66,4.59,4.59,0,0,1-1.72,2,4.69,4.69,0,0,1-2.51.77,4.2,4.2,0,0,1-1.44-.29ZM662,423.57A4.53,4.53,0,0,1,665,425.1a5.53,5.53,0,0,1,1.33,1.85,10.87,10.87,0,0,1,.61,2.71l.32,3,1.94-2a13.35,13.35,0,0,1,9.3-4.37h0q9,0,10,13.19v2a33.26,33.26,0,0,1-2.33,11.82A31.85,31.85,0,0,1,679.35,464a20.34,20.34,0,0,1-10,5.93h-.51a3.12,3.12,0,0,0-1.5.48,1.69,1.69,0,0,0-.35,1.21v.95a15.11,15.11,0,0,0,.45,3.67,11.2,11.2,0,0,0,.19,1.4,38.17,38.17,0,0,1,.48,5.44v1.72a4.11,4.11,0,0,1-1.37,2.3,4.64,4.64,0,0,1-2.8,1.08h-.48a4.43,4.43,0,0,1-2.55-.7,3.79,3.79,0,0,1-1.18-1.21,6.67,6.67,0,0,1-.8-2.17c-.22-1-.51-2.35-.8-4.2a44.41,44.41,0,0,1-.54-5c0-1.94-.19-4.78-.25-8.54s0-9.05,0-15.93v-4.84c0-2.58-.2-5.38-.2-8.31v-.83a68,68,0,0,1,.32-7.14,7.29,7.29,0,0,1,1.5-4.4,4.34,4.34,0,0,1,2.93-1.4Zm15.7,12.75c-.26,0-.73.35-1.47,1.05a31.6,31.6,0,0,0-2.32,2.58,28.19,28.19,0,0,0-2.26,3.18,14.41,14.41,0,0,0-2.68,7,4.89,4.89,0,0,1-.26,1.37,9.54,9.54,0,0,1-.7,1.72,10.09,10.09,0,0,0-.92,4.62v1.88c0,.38,0,.61.29.64h.73l1.18-.54a10,10,0,0,0,1.37-.83,19,19,0,0,0,5.8-7.42,24.21,24.21,0,0,0,2.42-9.88v-.38c0-3.19-.41-4.84-1.21-4.84Z" fill="#f89825"/></g><g id="InovaTrack_-_Logo_white_2" data-name="InovaTrack - Logo white 2"><path id="Path_9252-2" data-name="Path 9252-2" d="M501.69,0,408.57,298.82H219.82L291.79,72h87.32l2.54-6.76H293.47A116.71,116.71,0,0,1,218.13,39c-11-8.47-20.33-21.15-28.67-38.23h312.2Z" fill="#fff" fill-rule="evenodd"/></g></g></g></g></g></svg>