<svg xmlns="http://www.w3.org/2000/svg" viewBox="0 0 206.83 505.14"><g id="Layer_2" data-name="Layer 2"><g id="Capa_1" data-name="Capa 1"><g id="man"><path id="Path_17438" data-name="Path 17438" d="M162.88,123.19H43.94a40.45,40.45,0,0,0-40.4,40.4V310.34a14.23,14.23,0,0,0,28.46,0V190.16a7.9,7.9,0,1,1,15.8,0V477.74a23.85,23.85,0,0,0,47.67,0V313.5a7.91,7.91,0,1,1,15.81,0V477.74a23.85,23.85,0,0,0,47.67,0V190.16a7.91,7.91,0,1,1,15.81,0V310.34a14.23,14.23,0,0,0,28.46,0V163.6a40.44,40.44,0,0,0-40.34-40.4Z" style="fill:#008af6"/><path id="Path_17439" data-name="Path 17439" d="M135.15,505.14a27.44,27.44,0,0,1-27.4-27.4V313.5a4.35,4.35,0,1,0-8.7-.19V477.74a27.4,27.4,0,0,1-54.78,0V190.16a4.35,4.35,0,0,0-8.7,0V310.34a17.79,17.79,0,0,1-35.57,0H0V163.6a44,44,0,0,1,44-44H162.88a44,44,0,0,1,44,44V310.34a17.79,17.79,0,0,1-35.57,0h0V190.16a4.35,4.35,0,1,0-8.69,0V477.74a27.44,27.44,0,0,1-27.42,27.4ZM103.4,302a11.47,11.47,0,0,1,11.47,11.46V477.74a20.28,20.28,0,0,0,40.55,0V190.16a11.47,11.47,0,1,1,22.93,0h0V310.34a10.67,10.67,0,0,0,21.34,0V163.6a36.88,36.88,0,0,0-36.84-36.84H43.94A36.87,36.87,0,0,0,7.1,163.6V310.34a10.67,10.67,0,0,0,21.34,0V190.16a11.47,11.47,0,0,1,22.93,0V477.74a20.28,20.28,0,0,0,40.55,0V313.5A11.49,11.49,0,0,1,103.41,302h0Z" style="fill:#008af6"/><circle id="Ellipse_1683" data-name="Ellipse 1683" cx="103.41" cy="49.9" r="46.35" style="fill:#008af6"/><path id="Path_17440" data-name="Path 17440" d="M103.41,99.82A49.91,49.91,0,1,1,153.32,49.9a49.91,49.91,0,0,1-49.91,49.92Zm0-92.71A42.8,42.8,0,1,0,146.2,49.9h0A42.79,42.79,0,0,0,103.41,7.11Z" style="fill:#008af6"/></g></g></g></svg>