<svg id="Layer_1" data-name="Layer 1" xmlns="http://www.w3.org/2000/svg" viewBox="0 0 50 50"><title>voucher_icon</title><g id="Group_6296" data-name="Group 6296"><g id="Group_6294" data-name="Group 6294"><path id="Subtraction_58" data-name="Subtraction 58" d="M-25.14,50h-50V34a9,9,0,0,0,9-9,9,9,0,0,0-9-9V0h50V50Z" transform="translate(75.14)" style="fill:#fff"/><g id="Group_6283" data-name="Group 6283"><path id="Path_11530" data-name="Path 11530" d="M-42.84,40.88l-17.39-4.12,12.74-4.16L-30,35.89Z" transform="translate(75.14)" style="fill:#454058;opacity:0.36500000953674316;isolation:isolate"/><g id="Group_6279" data-name="Group 6279"><path id="Path_11531" data-name="Path 11531" d="M-56.34,22.63l10.55-2.12,11.68,1.74-9.2,2.29Z" transform="translate(75.14)" style="fill:#3e7cd9"/><path id="Path_11532" data-name="Path 11532" d="M-45.79,20.51l.3,13.65,10.16,1.73,1.22-13.64Z" transform="translate(75.14)" style="fill:#189dba"/><path id="Path_11533" data-name="Path 11533" d="M-43.31,38.9l-11.5-2.67-1.53-13.6,13,1.91Z" transform="translate(75.14)" style="fill:#21c9ea"/><path id="Path_11534" data-name="Path 11534" d="M-43.31,24.54l9.2-2.29-1.22,13.64-8,3Z" transform="translate(75.14)" style="fill:#1eb9d9"/><path id="Path_11535" data-name="Path 11535" d="M-40.11,37.69l2-.74,1.55-14.1-2,.52Z" transform="translate(75.14)" style="fill:#fdb003"/><path id="Path_11536" data-name="Path 11536" d="M-51.21,37.07l-1.48-13.9,2.5.36,1,14Z" transform="translate(75.14)" style="fill:#fdb003"/></g><g id="Group_6282" data-name="Group 6282"><path id="Path_11537" data-name="Path 11537" d="M-41.55,18" transform="translate(75.14)" style="fill:#00335c"/><path id="Path_11538" data-name="Path 11538" d="M-36,17.78l-8.61,3.28.16,3.1,8.3-3.47Z" transform="translate(75.14)" style="fill:#1eb9d9"/><path id="Path_11539" data-name="Path 11539" d="M-36,17.78l-9-.6-3-.2-11.41,3.58,14.84.5Z" transform="translate(75.14)" style="fill:#65dbf1"/><path id="Path_11540" data-name="Path 11540" d="M-58.83,23.31l14.35.85-.17-3.1-14.84-.5Z" transform="translate(75.14)" style="fill:#21c9ea"/><path id="Path_11541" data-name="Path 11541" d="M-55.93,20.68l3,.13.64,2.89-2.65-.15Z" transform="translate(75.14)" style="fill:#fdb003"/><path id="Path_11542" data-name="Path 11542" d="M-55.93,20.68l10.86-3.5,2.52.17-10.38,3.46Z" transform="translate(75.14)" style="fill:#ffbb43"/><path id="Path_11543" data-name="Path 11543" d="M-40.42,19.48l-.18,3.05,1.86-.77.2-3Z" transform="translate(75.14)" style="fill:#fdb003"/><path id="Path_11544" data-name="Path 11544" d="M-38.54,18.73l-13.25-.59-2.14.67,13.51.67Z" transform="translate(75.14)" style="fill:#ffbb43"/><g id="Group_6280" data-name="Group 6280"><path id="Path_11545" data-name="Path 11545" d="M-56.2,14.68s3.37,3.89,7.43,4a3.26,3.26,0,0,0,1.37-.37l-5.86-3.8h0a6.71,6.71,0,0,1,1.84-3.33h0a.5.5,0,0,0,0-.71.5.5,0,0,0-.52-.11l-1.68.67-1.72,1.68Z" transform="translate(75.14)" style="fill:#ff9a00"/><path id="Path_11546" data-name="Path 11546" d="M-47.83,18.61l-3.3-5.93a.46.46,0,0,0-.33-.23,5.06,5.06,0,0,0-2.52.34,4.63,4.63,0,0,0-2.22,1.88l.85-1.94a4.33,4.33,0,0,1,1-1.46h0A5.72,5.72,0,0,1-51.4,9.8l1-.18a.83.83,0,0,1,.94.57L-46.94,18Z" transform="translate(75.14)" style="fill:#ffbb43"/></g><g id="Group_6281" data-name="Group 6281"><path id="Path_11547" data-name="Path 11547" d="M-39.58,12.91S-42,17.43-46,18.42a3.58,3.58,0,0,1-1.42-.08l4.93-4.95h0A6.75,6.75,0,0,0-45,10.52h0a.49.49,0,0,1-.13-.69.48.48,0,0,1,.48-.22l1.79.3,2,1.28Z" transform="translate(75.14)" style="fill:#ff9a00"/><path id="Path_11548" data-name="Path 11548" d="M-46.93,18.52l2-6.5a.42.42,0,0,1,.27-.28,5,5,0,0,1,2.54-.21,4.62,4.62,0,0,1,2.56,1.38l-1.23-1.72A4.33,4.33,0,0,0-42.12,10h0a5.69,5.69,0,0,0-3.17-.83l-1,0a.84.84,0,0,0-.8.75l-.82,8.21Z" transform="translate(75.14)" style="fill:#ffbb43"/></g></g></g></g></g></svg>