<svg xmlns="http://www.w3.org/2000/svg" width="86.67" height="95.882" viewBox="0 0 86.67 95.882">
  <g id="Group_8497" data-name="Group 8497" transform="translate(-346.606 -241.128)">
    <g id="Group_8496" data-name="Group 8496" transform="translate(346.606 318.469)">
      <path id="Path_15142" data-name="Path 15142" d="M357.769,344.074a15.51,15.51,0,0,1-.669-2.218,2.6,2.6,0,0,1,1.417-3.006c.9-.25,1.245.2,1.591,1.245a21.735,21.735,0,0,1,.347,6.661c-.2,4.078-2.236,9-7.307,8.9-4.378-.1-6.315-2.931-6.516-7.257a19.833,19.833,0,0,1,.9-6.961c.448-1.543.848-2.092,2.238-2.388,1.093-.2,1,.942.747,2.289a26.494,26.494,0,0,0-.6,7.805c.195,3.581,1.839,4.974,3.63,4.974,2.686.052,3.877-2.186,4.377-5.422A9.435,9.435,0,0,0,357.769,344.074Zm57.258,3.532c1.046,0,1.346,1.237,1.1,1.986a3.192,3.192,0,0,1-2.536,1.841C413.288,350.685,413.138,347.606,415.027,347.606Zm-19.44,1.686c0-.842-.45-1.54-.993-1.54-.453,0-1.493.5-1.493,2.088a3.085,3.085,0,0,0,.646,2.092A2.578,2.578,0,0,0,395.587,349.292ZM380.12,339.149a1.459,1.459,0,0,0-1.541-1.341,1.974,1.974,0,0,0-1.738,2.234,1.458,1.458,0,0,0,1.494,1.495A2.112,2.112,0,0,0,380.12,339.149Zm8.087,2.921c-.086-1.391-.423-2.018-1.17-1.968-.99.06-1.448,3.176-1.246,6.451.129,2.137.447,2.466.744,2.445C387.083,348.966,388.4,345.149,388.207,342.07Zm32.987,5.235c-.616,2.557-2.485,6.318-5.273,6.318-.645,0-1.79-.251-1.79-.9,0-.7,4.379-.793,4.379-4.127a3.1,3.1,0,0,0-2.835-2.984c-2.237,0-4.42,2.44-4.42,5.82,0,3.031,1.883,4.026,3.772,4.026,3.284,0,5.273-2.687,6.316-4.923.5,1.491.794,4.923,2.041,4.923.5,0,.846-.249,1.443-1.59,1.488-3.333,2.932-7.162,4.923-7.162.744,0,.3,1.346,2.088,1.346a1.453,1.453,0,0,0,1.438-1.5c0-1.145-1.043-2.037-2.632-2.037-4.676,0-5.667,7.012-6.414,7.012-1.244,0-.846-5.62-1.743-5.62C421.691,345.912,421.3,346.861,421.194,347.3Zm-39.781,5.966a3.487,3.487,0,0,0,3.035-1.857A18.566,18.566,0,0,1,383.4,346.6c-.3-4.822,1.561-9.356,3.594-9.481,1.491-.09,2.683,1.321,2.82,3.606.367,6.007-1.634,8.514-2.636,10.678a3.556,3.556,0,0,0,2.934,2.266,1.923,1.923,0,0,0,1.246-.45,4.926,4.926,0,0,1-.2-1.441c0-3.482,2.239-6.416,4.179-6.416,1.541,0,2.437,2.038,2.437,3.384,0,1.588-1.344,2.884-3.331,4.128a2.385,2.385,0,0,0,1.542.6c2.836,0,4.321-3.432,5.419-6.567.2-.6.549-1.441,1.243-1.441,1.194,0,1.693,7.857,3.677,7.857.848,0,1.543-1.742,1.543-3.081,0-1-.348-1.1-.348-2.538,0-1.59.846-2.931,1.993-2.931.7,0,.946.694.946,1.536,0,3.184-2.29,9.1-5.668,9.1-2.54,0-2.342-4.376-3.236-4.376-1,0-2.391,4.426-7.31,4.426a3.155,3.155,0,0,1-2.337-1.2,5.715,5.715,0,0,1-3.333,1.146c-1.838,0-2.635-1.889-3.379-1.889-.9,0-1.889,1.939-4.875,1.939-2.387,0-2.785-3.18-3.628-3.18-.747,0-1.89,3.18-3.133,3.18-2.092,0-2.536-5.518-4.378-5.518-1.441,0-6,5.6-7.235,5.477-.5-.052-.707-.423-.654-.92a35.1,35.1,0,0,1,.9-3.4c.4-1.512.771-3.17.977-3.7a1.321,1.321,0,0,1,1.2-.873c.224.021.291.437.36.782.251,1.23.6,2.483,1,2.483.7,0,3.005-4.427,4.347-4.427,1.644,0,1.841,6.963,4.077,6.963.748,0,1.3-.894,1.792-1.991.051-1.843.547-4.472,2.039-4.472,1.045,0,1.543,2.335.794,4.376,0,2.434,1.59,3.031,2.636,3.031" transform="translate(-346.606 -337.117)" fill="#007bbe"/>
    </g>
    <path id="Path_15143" data-name="Path 15143" d="M432.361,259.682a1.145,1.145,0,0,1-1.188-.579c-.238-.475-.158-1.242-.607-1.584a4.6,4.6,0,0,0,1.293.131c1.188,0,2.325-.818,3.2-.818a.683.683,0,0,1,.76.738C435.816,258.733,433.471,259.682,432.361,259.682Zm.58,2.982c2.742,0,5.252-2.19,5.252-4.116a1.608,1.608,0,0,0-1.506-1.769,1.157,1.157,0,0,1,.263.844c0,1.452-2.212,3.062-4.615,3.062a1.009,1.009,0,0,0-1.136.923C431.2,262.348,431.913,262.664,432.941,262.664Zm-.21,1.109c.344,2.506,4.141,5.884,5.17,5.8.688-.058.952-3.272.952-5.8,0-1.451.079-2.586-.686-2.851-1.216,2.455-4.4,2.956-5.435,2.851" transform="translate(-16.311 -3.041)" fill="#007bbe"/>
    <path id="Path_15144" data-name="Path 15144" d="M359,284.6c.9,0,.711-5.489,2.163-5.489.343,0,.449.343.449.765,0,1.24-.608,3.062-.608,4.063,0,.5.132.661.37.661.634,0,1.742-6.044,2.823-6.044.343,0,.5.343.5.686,0,1.267-1.608,4.908-1.608,5.937,0,.159.052.29.185.29.66,0,1.979-2.849,2.4-4.274.238-.74.554-1.136.845-1.136.263,0,.5.291.5.9,0,1.425-1.321,4.776-2.482,7.02-.9,1.741-2.295,4.246-2.295,5.645a2.8,2.8,0,0,0,1.16,2.349c-1.689-.106-2.375-.263-3.008-1.582-2.824,5.62,5.2,5.066,2.453,10.052-.5-.9-4.459-1.819-4.459-7.044,0-4.512,3.957-7.151,3.957-9.024a1.2,1.2,0,0,0-.474-.976c-.872-.74-.9-1.346-1.583-1.346-.5,0-1.109,1.16-.475,2.189.211.343.4.554.4.871,0,.738-1.163,2.716-1.979,2.716s-1.45-2.029-1.45-5.3c0-2.9.658-5.831,1.477-5.831.237,0,.316.158.316.37,0,.343-.1,1.028-.1,2.189,0,1.241.29,1.347.528,1.347" transform="translate(-1.978 -7.271)" fill="#007bbe"/>
    <path id="Path_15145" data-name="Path 15145" d="M367.545,292.56c1.109,0,2.032-.819,2.032-2.637V287.23a4.616,4.616,0,0,1,.766-3.009,4.767,4.767,0,0,0-.079,1.056c0,2.27,1.266,3.827,1.266,6.016,0,.817-.238,1.267-.869,1.267-.608,0-.555-.554-.687-.554-.1,0-.263.342-.263.712a1.426,1.426,0,0,0,1.5,1.425,1.81,1.81,0,0,0,1.715-1.847c0-2.373-1.847-5.013-1.847-7.546a5.929,5.929,0,0,1,.529-2.428c0,5.252,4.459,9.077,4.459,11.267a.881.881,0,0,1-.923.9.862.862,0,0,1-.9-.846c0-.185-.027-.237-.106-.237a1.352,1.352,0,0,0-.633,1.215,1.975,1.975,0,0,0,2.031,1.926,2.337,2.337,0,0,0,2.321-2.4c0-2.769-5.409-6.966-5.409-11.45a6.2,6.2,0,0,1,.686-2.955,9.072,9.072,0,0,0-4.564,7.837c0,2.27-.079,3.4-1.24,3.4-.608,0-.765-.553-.977-.553-.158,0-.238.475-.238.606a1.446,1.446,0,0,0,1.425,1.531" transform="translate(-3.791 -7.501)" fill="#007bbe"/>
    <path id="Path_15146" data-name="Path 15146" d="M417.465,258.536c.335-.225,1.823.131,3.746-.82a1.432,1.432,0,0,1,.686-.183c.925,0,.686,1.055,1.533,1.055.659,0,1.505-.554,2.007-.554.786,0,1.922,2.481,1.922,3.642,0,1.346-2.027,2.164-4.431,2.164a5.634,5.634,0,0,1-5.62-5.041A.279.279,0,0,1,417.465,258.536Zm5.753,3.351c1.162,0,2.033-.528,2.033-.845,0-.1-.158-.184-.5-.184a14.439,14.439,0,0,1-2.324-.238c-1.11-.185-1.955-.607-2.271-.607-.106,0-.159.052-.159.131,0,.687,1.268,1.742,3.223,1.742" transform="translate(-13.735 -3.187)" fill="#007bbe"/>
    <path id="Path_15147" data-name="Path 15147" d="M368.03,307.775a3.841,3.841,0,0,0-2.27,3.748c0,2.584,2.771,6.571,7.335,6.571,3.851,0,4.8-2.665,4.8-4.461,0-3.984-2.453-6.781-5.645-6.781a3.182,3.182,0,0,0-3.3,3.138,4.368,4.368,0,0,0,4.459,4.355,2.224,2.224,0,0,0,2.348-2.267,2.919,2.919,0,0,0-2.665-2.823.772.772,0,0,0-.816.817c0,.632.869,1.267,1.952,1.267a1.424,1.424,0,0,0,.581-.106.64.64,0,0,1,.079.317c0,.607-.581.977-1.478.977a2.584,2.584,0,0,1-2.64-2.589c0-.948.819-1.634,2.006-1.634a3.923,3.923,0,0,1,3.746,4.17c0,1.872-1.027,2.955-3.138,2.955-4.224,0-6.28-3.8-5.357-7.654" transform="translate(-3.721 -12.768)" fill="#007bbe"/>
    <path id="Path_15148" data-name="Path 15148" d="M400.223,324.813a12.518,12.518,0,0,0,1.6-.1c.4,0,.423.238.423.4,0,.581-1.295,1.293-3.59,1.293a2.33,2.33,0,0,1-2.4-1.5,10.4,10.4,0,0,1-5.3,1.61c-5.408,0-6.78-2.35-8.47-3.113-1.293-.581-3.271.554-6.043-2.533a6.628,6.628,0,0,0,1.268.106c2.425,0,3.719-1.185,3.719-3.087a6.828,6.828,0,0,0-.053-.736,5.238,5.238,0,0,1,2.825,3.8c.052.264,1.134.5,1.819.5a2.147,2.147,0,0,0,2.349-1.952c3.167-.263,5.3-2.136,5.754-4.513a6.264,6.264,0,0,1,2.743,1.927,4.768,4.768,0,0,1,1.582-.238,10.177,10.177,0,0,1,2.929.5c.053-.342.106-.765.634-.765.791,0,.58.871.844,1.37.132.265.793.423.793.951a.677.677,0,0,1-.687.688,1.166,1.166,0,0,1-.317-.053c-.527.185-.554,3.982-2.77,3.982a4.441,4.441,0,0,1-3.8-3.032,1.131,1.131,0,0,0-.95-.819c-.421,0-.659.08-1.159.634a9.174,9.174,0,0,1-6.729,2.9c-.9,0-1.61-.081-1.8-.081-.106,0-.106.027-.106.053,0,.185.9.9,2.85.9,4.643,0,5.78-2.613,6.518-2.613a.612.612,0,0,1,.606.423A5.18,5.18,0,0,0,400.223,324.813Zm-2.046-5.273a1.055,1.055,0,1,0,1.056-1.057,1.059,1.059,0,0,0-1.056,1.057" transform="translate(-5.795 -14.346)" fill="#007bbe"/>
    <path id="Path_15149" data-name="Path 15149" d="M427.11,304.03c-.37,0-.765.291-.765,1a1.67,1.67,0,0,0,.95,1.449,1.621,1.621,0,0,0,.764.212c.766,0,1.375-.212,1.375-.846C429.433,305.034,428.244,304.03,427.11,304.03Zm-2.846,1.635c-.554,0-3.619,4.09-5.594,4.09-.475,0-.871-.9-.871-1.58,0-.37.237-.634,1.084-.819,4.536-1.029,3.532-4.434,7.409-4.434a4.428,4.428,0,0,1,4.514,4.724c0,3.483-4.958,7.81-5.7,7.81-.608,0-1.267-.87-1.267-1.45,0-.185.079-.423.608-.633,2.529-1,3.979-3.325,3.979-4.514a.468.468,0,0,0-.475-.525c-.447,0-2.369,4.378-4.508,4.378-1.48,0-2.985-1.342-2.985-1.977,0-1.056,4.278-3.008,4.278-4.487,0-.556-.263-.581-.475-.581" transform="translate(-13.831 -12.004)" fill="#007bbe"/>
    <path id="Path_15150" data-name="Path 15150" d="M360.064,262.117a3.169,3.169,0,0,1-1.715.579,1.984,1.984,0,0,1-2.032-2.03,2.225,2.225,0,0,1,1.4-2.085,2.544,2.544,0,0,0-.027.449A3.072,3.072,0,0,0,360.064,262.117Zm5.646,5.066a5.016,5.016,0,0,0-1.187,3.034,2.371,2.371,0,0,0,2.217,2.611,2,2,0,0,0,1.9-2.242A3.9,3.9,0,0,0,365.71,267.184Zm-8.758,1.055a.573.573,0,0,0-.079.291.562.562,0,0,0,.5.5c.211,0,.343-.052.448-.052.633,0,1.346.448,2.375.448a5.039,5.039,0,0,0,2.216-.632,5.507,5.507,0,0,0,2.639-3.7c0-.5-.4-.436-.74-.9s-.208-.867-.422-1.082c-.122-.123-.5-.131-.977-.185a5.815,5.815,0,0,0-.581-.027,5.351,5.351,0,0,0-3.06.845C356.982,265.214,357.32,267.632,356.952,268.238Zm6.2-3.272c.182.249.686.555.686.74,0,.368-.212.844-.634.844-.924,0-1.662-1.4-1.662-2.192,0-.5.291-.553.685-.553a.634.634,0,0,1,.4.105C362.861,264.044,362.861,264.571,363.152,264.966Zm-2.428,3.22a2.178,2.178,0,0,1-1.82-2.059c0-.527.4-1.188.686-1.188.106,0,.159.08.185.265a3,3,0,0,0,1.8,2.4c.079.052.132.079.132.131C361.7,267.922,361.2,268.186,360.723,268.186Zm2.244-6.65a5.2,5.2,0,0,0,.237-1.531c0-1.266-.582-3.192-2.375-3.192a1.758,1.758,0,0,0-1.769,1.794C359.06,260.693,361.145,261.536,362.967,261.536Zm-6.834,10.554c0,2,.608,2.955,1.688,2.955a5.908,5.908,0,0,0,3.324-1.769,11.691,11.691,0,0,1-2.532.4A2.774,2.774,0,0,1,356.133,272.09Zm.924-2.349a2.049,2.049,0,0,0-.026.4c0,1.24.658,1.927,1.529,1.927a2.838,2.838,0,0,0,2.109-1.267,5.568,5.568,0,0,1-.949.079A3.16,3.16,0,0,1,357.057,269.742Zm6.464-.369a2.509,2.509,0,0,0-1.874,2.216,1.554,1.554,0,0,0,1.662,1.557,1.723,1.723,0,0,0,1.029-.264,3.074,3.074,0,0,1-1-2.295A3.526,3.526,0,0,1,363.522,269.373Zm.949-7.23a1.056,1.056,0,1,0,1.055-1.056A1.059,1.059,0,0,0,364.471,262.143Zm1.371,2.375a1.056,1.056,0,1,0,1.057-1.055,1.06,1.06,0,0,0-1.057,1.055" transform="translate(-1.851 -3.047)" fill="#007bbe"/>
    <path id="Path_15151" data-name="Path 15151" d="M416.824,279.3a1.015,1.015,0,0,1,2.028,0,1.014,1.014,0,1,1-2.028,0Zm-9.264-8.127a1.056,1.056,0,1,0,1.055-1.055A1.059,1.059,0,0,0,407.56,271.178Zm-.9,3.72a1.5,1.5,0,1,0,1.5-1.5A1.518,1.518,0,0,0,406.664,274.9Zm3.325-1.689a1.609,1.609,0,1,0,1.605-1.609A1.6,1.6,0,0,0,409.989,273.21Zm.133-3.43a1,1,0,1,0,1-1A1,1,0,0,0,410.122,269.78Zm4.774-2.532a1,1,0,1,0,1-1A1,1,0,0,0,414.9,267.248Zm-1.98,3.245A1.69,1.69,0,1,0,414.6,268.8,1.7,1.7,0,0,0,412.916,270.493Zm-2.715,6.174a1.054,1.054,0,1,0,1.051-1.055A1.057,1.057,0,0,0,410.2,276.667Zm3.455-2.112a1.056,1.056,0,1,0,1.056-1.055A1.059,1.059,0,0,0,413.655,274.555Zm-.977,3.721a1.822,1.822,0,1,0,1.822-1.821A1.825,1.825,0,0,0,412.679,278.276Zm3.8-2.244a1.239,1.239,0,1,0,1.237-1.239A1.239,1.239,0,0,0,416.48,276.032Zm-.079-3.324a1.107,1.107,0,1,0,1.1-1.107,1.115,1.115,0,0,0-1.1,1.107" transform="translate(-11.667 -4.879)" fill="#007bbe"/>
    <path id="Path_15152" data-name="Path 15152" d="M419.789,316.541a7.767,7.767,0,0,1-4.959,1.714,6.536,6.536,0,0,1-2.271-.448c-.264,0-.554.263-.845.608a5.953,5.953,0,0,0-1.446,3.615,2.162,2.162,0,0,0,2.344,2.109c4.939,0,8.63-3.086,8.63-5.591C421.242,317.122,420.4,316.541,419.789,316.541Zm-1.372-.29a.968.968,0,0,0,.263-.766v-.607c0-.766-1.156-1.213-2.741-1.213-1.928,0-2.958.869-2.958,1.239v1.213c0,.5,1.163,1,2.589,1A4.4,4.4,0,0,0,418.417,316.251Zm-.213,2.612c.133,0,.29.078.29.555a2.313,2.313,0,0,1-1.209,1.95,5.078,5.078,0,0,1-2.878.844,6.209,6.209,0,0,0,.37-1.922,5.081,5.081,0,0,0-.052-.608h.343a5.955,5.955,0,0,0,3.136-.819" transform="translate(-12.368 -14.092)" fill="#007bbe"/>
    <path id="Path_15153" data-name="Path 15153" d="M407.2,280.1c.291,2.242,3.3,1.107,3.3,3.824,0,.4-.106.978-.106,1.478,0,.581.052,1.082.5,1.082s.554-.316.554-.739-.106-.95-.106-1.24a1.021,1.021,0,0,1,1.057-1.134c1,0,1.769,1.029,3.275,1.029-.344,1.689-3.83,1.24-3.83,3.088,0,.924.924,1.134,1.532,1.134.555,0,.74-.079.74-.553,0-.265-.053-.555-.053-.74a.209.209,0,0,1,.212-.212c.582,0,3.427,2.164,3.427,2.825,0,.606-3,1.213-3.876,1.213a.281.281,0,0,1-.317-.29c0-.185.449-.739.449-1.055,0-.238-.4-.4-1.453-.4-.5,0-.872.053-.872.45,0,.711,1.163,1.582,1.163,2.241,0,.529-.317.845-1.163.845-.712,0-1.79-.555-1.79-1.478,0-.739.761-1.476.761-1.926a.367.367,0,0,0-.417-.343c-.978,0-1.242,2.585-4.7,2.876a2.65,2.65,0,0,0,1.029-2.188c0-.554-.131-1-.131-1.61,0-.792.368-1.188.9-1.188.976,0,1.451,1.371,2.087,1.371a.762.762,0,0,0,.713-.79c0-2.005-3.855-1.715-3.855-4.539A6.54,6.54,0,0,1,407.2,280.1Zm12.586,7.731c0,.658.213,1.424.873,1.424.554,0,1.03-.843,1.03-1.767,0-1.056-.185-1.874-.185-2.3,0-.184.08-.263.185-.263.4.027.765,1.108,1.188,1.108.475,0,1.184-.872,1.473-.872.08,0,.106.106.106.132,0,.4-.608,1.268-.608,1.611,0,.29,1.533.342,1.533.607,0,.4-1.606.4-2.371.74-.739.316-1.189.711-1.189,1.24s.529.632,1.268.632c1.764,0,3-.949,3.4-.949a.124.124,0,0,1,.131.131c0,.264-.9,1.134-.9,1.531,0,.448,1.637.974,1.611,1.239-.027.079-.132.1-.317.1-.292,0-.74-.079-1.084-.079a.611.611,0,0,0-.476.131c-.182.212.054,1.611-.313,1.611-.344,0-1.242-3.113-3.269-3.113-.291,0-.5.238-.5.633a3.973,3.973,0,0,0,2.007,2.849c.442.291,1.183.581,1.183.74,0,.315-1.685.026-1.685.553,0,.475.211,1.189.211,1.61,0,.132-.027.289-.184.289-.317,0-1.084-1.45-1.453-1.45-.317,0-1,.87-1.295.87a.147.147,0,0,1-.131-.157c0-.608.977-1.979.977-3.325,0-.633-.079-2.005-.846-2.005-.633,0-1.347,1-1.664,2.005-.184.58-.053,2.823-.475,2.823-.4,0-.29-1.5-.819-1.5-.389,0-1.234.711-1.524.711-.054,0-.106-.027-.106-.079,0-.316.766-1.346.766-1.557,0-.4-1.743-.448-1.743-.765,0-.185.686-.317,1.32-.423,1.342-.238,3.322-1.213,3.322-2.585,0-1.53-1.479-2.191-2.45-2.824-.5-.317-1.056-.579-1.056-.79s.633-.212.9-.212c.4,0,.786-.027.786-.342,0-.238-.053-.712-.053-1.082,0-.264.026-.475.133-.475.4,0,.949,1.293,1.215,1.293.421,0,1-1.055,1.4-1.055.13,0,.184.08.184.317,0,.976-.5,2.084-.5,3.035" transform="translate(-11.438 -7.571)" fill="#007bbe"/>
    <path id="Path_15154" data-name="Path 15154" d="M406.609,298.285c1.215.159,1.507.58,1.507.924,0,.581-.529.765-1.032.765-.368,0-.791-.079-1.24-.079a2,2,0,0,0-1.636.686c.342.053.844.292.844.819,0,1.53-4.249.262-4.249,4.2,0,2.084,2.164,4.354,5.435,4.354,1.691,0,2.774-.554,2.774-1.188,0-.5-.9-.16-.9-.581,0-.184.316-.529.316-.82,0-.127-.106-.367-.316-.367-.477,0-1.375.764-3.2.764-1.425,0-2.824-.815-2.824-1.925,0-.237.106-.37.264-.37s.369.106.554.106c.159,0,.185-.106.185-.4s0-1.109.5-1.109,1.453,1.848,5.1,1.848c1.209,0,3.56-.236,4.432-1.03a6.859,6.859,0,0,1-7.046,6.729,7.446,7.446,0,0,1-7.573-7.6,7.768,7.768,0,0,1,7.811-7.7c1.16,0,2.138.395,2.138.9C408.457,297.891,406.741,297.468,406.609,298.285Zm8.1,1.4a1.568,1.568,0,0,1,.264.843c0,.74-.5,1.425-.5,2.192a1.574,1.574,0,0,0,1.659,1.581,1.825,1.825,0,0,0,1.822-1.9C417.954,301,416.687,299.817,414.711,299.685Zm-8.736,1.688a1.064,1.064,0,0,1,.343.791c0,.4-.185.819-.185,1.267a1.159,1.159,0,0,0,1.16,1.186,1.23,1.23,0,0,0,1.243-1.265A2.318,2.318,0,0,0,405.976,301.373Zm3.507-4.486a4.879,4.879,0,0,1,4.277,4.565,2.387,2.387,0,0,1-2.323,2.584,2.233,2.233,0,0,1-2.319-2.4c0-1.108.865-2.269.865-3.4A2.043,2.043,0,0,0,409.483,296.887Zm1.373,3.51a.632.632,0,0,0,.634.66.726.726,0,0,0,.686-.792c0-.553-.5-1.319-.977-1.319-.212,0-.132.317-.185.66-.027.263-.158.579-.158.791" transform="translate(-10.083 -10.72)" fill="#007bbe"/>
    <path id="Path_15155" data-name="Path 15155" d="M376.632,265.93c.9,0,1.924-4.855,1.924-5.674,0-.211-.077-.37-.263-.37-.819,0-1.952,4.618-1.952,5.648C376.341,265.719,376.393,265.93,376.632,265.93Zm6.464,1.451c.658,0,1.4-2.534,1.4-4.117,0-.343-.052-.711-.211-.711-.554,0-1.478,2.612-1.478,4.037C382.8,267.143,382.938,267.381,383.1,267.381Zm-4.3-2.349c.291,0,.661-.317,1.348-1.081a6.791,6.791,0,0,0,.052-1.056c0-.527-.211-1.108-.528-1.108-.793,0-1.187,2.111-1.187,2.666C378.479,264.768,378.636,265.032,378.793,265.032Zm3.616-1.081c0-.45-.106-.555-.211-.555-.264,0-.554.317-.976,1.03.052.95.211,1.372.475,1.372C381.987,265.8,382.409,264.874,382.409,263.951Zm2.032-3.114c1.742,0,2.532,1.5,2.532,3.193,0,.738-.21,1.821-.553,1.821s-.29-.608-.343-1.162c-.052-.712-.185-.87-.423-.87-.449,0-.738,1.055-.738,2.032,0,.606.106,1.292.579,1.292a.962.962,0,0,0,.661-.29,2.362,2.362,0,0,1-2.271,2.27c-2.321,0-3.192-2.719-3.456-4.3-1.4,1.478-2.69,2.56-5.013,2.56a2.971,2.971,0,0,1-3.14-3.087c0-.45.159-1.61.713-1.61.659,0,.079,2.163,1.371,2.163.318,0,.9-.264,1.214-1.134a4.895,4.895,0,0,0,.29-1.557c0-.713-.158-1.16-.685-1.16a2.068,2.068,0,0,0-1.188.527,3.975,3.975,0,0,1,3.851-2.876c2.087,0,3.194,1.847,3.194,3.905a5.2,5.2,0,0,1-.079.9c.9-1.478,2.138-2.612,3.483-2.612" transform="translate(-4.987 -3.403)" fill="#007bbe"/>
    <path id="Path_15156" data-name="Path 15156" d="M379.3,270.173c-1.134,0-1.187,1.375-1.187,4.143-.845-1.82-2.242-3.773-3.879-3.773-1.108,0-1.53.74-1.53,2.031a4.952,4.952,0,0,0,.079.9,1,1,0,0,1,1.081-.632,4.81,4.81,0,0,1,3.4,2.059,17.542,17.542,0,0,0-2.875-.37,3.316,3.316,0,0,0-1.4.238,3.508,3.508,0,0,0-1.794,3.193,5.282,5.282,0,0,0,.08.87,5.68,5.68,0,0,1,4.96-2.982,5,5,0,0,1,.739.053,4.3,4.3,0,0,0-1.056,2.9c-.026.422-.185.45-.475.45,0,.869.687,2.163.687,2.823a.56.56,0,0,1-.264.5c0,1.161,1.16,2.005,1.16,2.743a.616.616,0,0,1-.133.423c.081.475,1.357,1.274,1.522,1.674.2.487.431.569.563.569.449,0,1.16-.529,1.16-1a.629.629,0,0,0-.236-.422,3.888,3.888,0,0,1-.977-1.687.494.494,0,0,1-.508-.389c-.144-.546-.151-1.564-.363-2.171-.343-.079-.5-.211-.5-.923,0-.343.212-1.69.212-2.165a.374.374,0,0,1-.369-.422c0-.844.844-1.5,1.081-2.585a3.88,3.88,0,0,1,1.873,3.245,6.921,6.921,0,0,1-.185,1.5c1.109-.555,2.771-1.373,2.771-3.035,0-.977-.448-2.059-3.43-2.481a9.324,9.324,0,0,1,3.06-.527c1.69,0,2.665.527,2.876,1.714a3.289,3.289,0,0,0,.608-1.688,2.231,2.231,0,0,0-2.454-2.137,8.421,8.421,0,0,0-4.565,1.873c.687-1.424,1.16-2.269,2.006-2.269a2.029,2.029,0,0,1,.4.053c-.317-1.161-1.5-2.3-2.138-2.3" transform="translate(-4.777 -5.643)" fill="#007bbe"/>
    <path id="Path_15157" data-name="Path 15157" d="M435.268,293.785c1.321,0,2.377,1.715,2.377,3.721a8.29,8.29,0,0,1-2.794,6.041c-.027-3.561-4.386-2.426-4.386-5.012a1.752,1.752,0,0,1,1.744-1.848,2.674,2.674,0,0,1,1.98.714,2.341,2.341,0,0,1-.713-1.69,1.793,1.793,0,0,1,1.79-1.927" transform="translate(-16.291 -10.23)" fill="#007bbe"/>
    <path id="Path_15158" data-name="Path 15158" d="M407.02,261.619a2.807,2.807,0,0,0,2.033.949c.292,0,.636-.078.821-.078.237,0,.395.1.395.289a1.661,1.661,0,0,1-.58,1.031,2.653,2.653,0,0,0,1.03.185,3.105,3.105,0,0,0,3.216-3.324,3.528,3.528,0,0,1,.5,1.689,3.784,3.784,0,0,1-4.062,3.984,5.686,5.686,0,0,1-2.062-.423c-.5,0-.474,1-.817.977-.608-.106-1.16-1.451-1.16-2.876A4.206,4.206,0,0,1,407.02,261.619ZM411,259.692a1.97,1.97,0,0,0-1.367-.527,2.133,2.133,0,0,0-2.113,1.557,2.477,2.477,0,0,1-.185-.9,2.55,2.55,0,0,1,2.721-2.586,4.633,4.633,0,0,1,2.582.9c.263,0,.528-.264.74-.264.29,0,.29.449.29.766,0,1.055-.475,2.876-1.664,3.536a2.692,2.692,0,0,0-1.316-1.267.418.418,0,0,1-.263-.4,1.065,1.065,0,0,1,.576-.819" transform="translate(-11.604 -3.13)" fill="#007bbe"/>
    <path id="Path_15159" data-name="Path 15159" d="M378.98,250.817c0,.923,3.3,5.435,3.932,5.435.529,0,.923-.923.923-1.716a1.078,1.078,0,0,0-.157-.579c-.475-.66-3.826-3.3-4.566-3.3A.148.148,0,0,0,378.98,250.817ZM359.586,248.1c0,.529-2,2.3-2.716,2.3-.263,0-.343-.316-.343-.606a2.343,2.343,0,0,1,.529-1.505,2.947,2.947,0,0,1,1.74-.473C359.164,247.811,359.586,247.888,359.586,248.1Zm24.092,1.531c0-1.584-4.282-4.46-4.328-5.7a.466.466,0,0,1,.153-.327c.733-.773,3.779-1.337,3.779-2,0-.342-.635-.342-.951-.342-2.453,0-6.042.9-6.042,1.767,0,.9,3.219,3.088,3.219,4.17,0,.29-.185.4-.475.4-.9,0-2.849-1.083-3.772-1.083-.423,0-.582.29-.582.714,0,1.266,1.5,3.667,1.5,4.378,0,.08-.027.185-.132.185-.475,0-2.716-2.637-3.51-2.637-.289,0-.316.395-.316.976v.9c0,.607-.027.977-.315.977-.687,0-1-1.926-1.663-1.926-.686,0-.819,3.429-1.477,3.429-.766,0-.106-3.773-.845-3.773-.818,0-1.742,2.507-2.323,2.507-.21,0-.263-.212-.263-.4,0-.765.447-2,.447-2.743,0-.371-.106-.581-.421-.581-.819,0-2.613,1.319-3.3,1.319-.1,0-.237-.052-.237-.159,0-.632,2.876-2.638,2.876-3.535,0-.872-3.959-.29-3.959-1.294,0-.844,2.826-1.715,2.826-2.586,0-.765-3.352-1.107-4.644-1.107-1.557,0-2.4.183-2.4.632,0,.686,3.536.9,3.536,1.5,0,.581-3.669,2.138-3.669,3.034,0,.792,5.171.052,5.171.872,0,.9-4.51,4.774-4.51,6.067,0,.291.211.423.5.423,1.372,0,4.933-2.612,5.91-2.612.343,0,.37.421.37.791,0,.686-.237,1.741-.237,2.507,0,.606.158,1.028.684,1.028.978,0,1.874-1.662,2.535-1.662.844,0,.342,4.881,1.609,4.881,1.081,0,1.53-5.277,2.216-5.277s1.242,1.53,1.874,1.53c.791,0,.422-2.665,1.267-2.665.922,0,3.561,3.167,4.748,3.167.369,0,.5-.291.5-.661,0-1.4-1.951-4.564-1.951-5.566,0-.263.078-.343.368-.343,1.03,0,4.038,1.425,5.463,1.425C383.388,250.237,383.678,249.973,383.678,249.63Zm-2.745-5.224c0,.475,1.662,1.5,2.428,1.5.448,0,.58-.608.58-1.241,0-.791-.342-.818-1.029-.818C382.042,243.851,380.933,244.089,380.933,244.406Zm-6.2-2.692c0-.159-.791-.317-1.873-.317-1.715,0-1.478,1.427-2.8,1.427-1.372,0-1.031-1.479-2.772-1.479-1.056,0-2.031.185-2.031.422,0,.317,1.239.185,1.239,1.057,0,.923-2.665,1.187-2.665,1.741,0,.184.21.263.475.263.581,0,1.5-.263,2.163-.263.37,0,.713.078.713.421,0,.66-1.426,1.848-1.426,2.375,0,.159.132.212.264.212.529,0,1.425-1.346,2.27-1.346,1.4,0,.476,2.981,1.24,2.981.791,0,.449-2.93,1.583-2.93.925,0,1.61,2.032,2.243,2.032a.3.3,0,0,0,.29-.317c0-.553-.791-1.689-.791-2.427,0-.449.317-.661.739-.661.606,0,1.425.37,1.872.37.159,0,.317-.052.317-.237,0-.633-2.346-1.319-2.346-2.137s1.292-.819,1.292-1.188" transform="translate(-1.901 -0.006)" fill="#007bbe"/>
    <path id="Path_15160" data-name="Path 15160" d="M434.713,246c0,2.347-1.711,4.141-4.8,4.643.344.026.661.026.978.026,3.612,0,4.934-1.635,4.934-3.006A1.678,1.678,0,0,0,434.713,246Zm-4.457,2.664c0-1.873-4.482-2.349-4.482-2.77,0-.342,2.5-.924,3.8-.951-1.979-2.532-4.8-2.268-4.8-2.717,0-.264,2.112-.793,4.062-.793,1.636,0,3.167.37,3.167,1.61,0,.687-.554,1.4-.554,2.454a.976.976,0,0,0,1.056,1.082c.819,0,1-.87,1-1.8,0-.764-.131-1.345-.131-1.715a1.754,1.754,0,0,1,1.843-1.846c.9,0,1.11.394,2.43.394a2.014,2.014,0,0,0-.977,1.557c0,1.109.714,1.874.714,4.144,0,4.167-3.9,5.645-8.683,5.645a27.37,27.37,0,0,1-4.088-.316c-.21-.027-.264-.079-.264-.211,0-.343,1.876-.529,1.876-2.216a13.124,13.124,0,0,0-.212-1.53.209.209,0,0,1,.212-.212c.4,0,1.188,1.53,2.661,1.53A1.257,1.257,0,0,0,430.255,248.666Zm4.3-5.83a.66.66,0,1,0,.66-.661.653.653,0,0,0-.66.661" transform="translate(-15.103 -0.019)" fill="#007bbe"/>
    <path id="Path_15161" data-name="Path 15161" d="M431.516,272.126c0-.554-1.4-.606-1.532-2.163-.027-.237-.106-.658-.4-.658-.475,0-.106,1.451-.633,1.451-1.213,0-1.609-2.375-2.058-2.375-.106,0-.232.079-.232.4,0,.291.053.475.053.817s-.08.582-.4.582c-.713,0-1.347-1.663-1.955-1.663a.24.24,0,0,0-.263.212c0,.317.528.9.528,1.187,0,.634-1.716.29-1.716.819,0,.238.237.316.554.316.556,0,1.427-.236,1.876-.236.264,0,.661.052.661.394,0,.37-.951.844-.951,1.188a.265.265,0,0,0,.29.237c.713,0,1.975-1.239,2.873-1.239.158,0,.553.079.553.317,0,.342-.9.948-.9,1.45a.267.267,0,0,0,.238.29c.472,0,1.106-1.239,2-1.239.343,0,.845.132,1.11.132C431.437,272.338,431.516,272.206,431.516,272.126Zm.686,12.8a16.042,16.042,0,0,1,1.816-3.668c-.865-.447-3.163-1.4-3.163-2.955,0-1.821,2.27-3.245,2.74-3.245.212,0,.265.185.265.529,0,.949-.449,2.479-.449,3.3,0,.738.475,1.452.9,1.452.449,0,1.69-1.583,1.69-3.141a3.556,3.556,0,0,0-3.216-3.641c-.713,0-2.008,1.16-5.043,1.16-5.672,0-6.966-5.618-6.966-8.073,0-.106.026-.132.052-.132a4.027,4.027,0,0,0,2.482.687c.924,0,1.769-.239,3.117-.239,3.161,0,4.561,2.192,6.516,4.987,1.182.738,4.009,1.926,4.009,5.277,0,2.955-3.143,4.591-3.9,7.758,1.209-.131,1.922-2.3,3.163-2.3.634,0,.924.5.924,1.295a5.743,5.743,0,0,1-1.928,3.984,1.742,1.742,0,0,0,.027-.4c0-.738-.29-1.793-1.136-1.793-1.314,0-1.737,1.425-2.476,2.611-.766-2.69-1.8-5.119-3.643-6.6-1.869-1.5-5.092-.686-5.092-3.43,0-.74.476-1.794.476-2.639a1.24,1.24,0,0,0-.212-.765c2.536.951,1.637,2.638,3.2,4.38.971,1.11,3.664,2.164,5.222,6.729a5,5,0,0,0,.052-.711c0-3.905-5.17-7.733-5.617-9.316,3,.343,3.53,1.083,4.957,5.041a16.5,16.5,0,0,1,1.242,3.852" transform="translate(-14.409 -4.93)" fill="#007bbe"/>
    <path id="Path_15162" data-name="Path 15162" d="M414.9,252.077c-1.849,0-3.063-.923-3.063-1.4a.367.367,0,0,1,.371-.395c.58,0,1.848.9,2.269.9.107,0,.186-.052.186-.21,0-.475-.449-1.267-.449-1.661,0-.106.08-.185.238-.185.712,0,1.769.29,2.325.29.184,0,.237-.106.237-.212,0-.58-1.717-1.715-1.717-2.058,0-.317,2.134-.793,2.134-1.292,0-.529-2.9-.159-2.9-.661,0-.369.555-1,.555-1.292,0-.132-.106-.185-.29-.185a20.813,20.813,0,0,1-2.034.5c-.264,0-.581-.052-.581-.423,0-.607,1.03-1.266,2.641-1.266,2.609,0,4.167,1.794,4.167,4.8C418.989,251.128,416.327,252.077,414.9,252.077Zm-5.144-5.012c0-.291-1.031-.844-1.031-1.161,0-.052.052-.079.131-.079.292,0,.794.106,1.19.106.343,0,.4-1.478.655-1.478.184,0,.5,1.4.793,1.4.342,0,.976-.4,1.24-.4.053,0,.106.026.106.08,0,.185-.66.9-.66,1.107,0,.238,1.479.529,1.479.74,0,.264-1.506.238-1.506.475,0,.183.555.923.555,1.16a.071.071,0,0,1-.079.08c-.212,0-1.031-.371-1.268-.371-.291,0-.761,1.082-1,1.082-.079,0-.131-.106-.131-.238l-.053-1.055a.187.187,0,0,0-.184-.212c-.318,0-.925-.027-1.111-.027-.132,0-.184-.026-.184-.079C408.7,247.987,409.757,247.249,409.757,247.065Zm-.768,4.325c.424,0,.5,1.031.583,1.636.052.317.1.343.238.343.317,0,.817-1.213,1.156-1.213.5,0,1.848,1.4,4.092,1.4a6.012,6.012,0,0,0,6.2-6.2c0-3.826-2.694-6.07-6.413-6.07-1.768,0-3.063.871-3.75.871-.416.027-1.05-1.028-1.367-1.028-.131,0-.264.262-.264.711,0,.291,0,1.213-.317,1.213-.635,0-3.088-1.819-3.088-1.161,0,.608,1.634,2.455,1.634,2.93s-1.608.924-1.608,1.24c0,.58,1.715.686,1.715,1.425s-1.794,1.319-1.794,1.873c0,.448,1.794.132,1.794.686s-1.318,2.4-1.318,2.927c0,.133.026.133.13.133.5,0,2.005-1.716,2.375-1.716" transform="translate(-11.54 0)" fill="#007bbe"/>
    <path id="Path_15163" data-name="Path 15163" d="M392.844,310.9a1.21,1.21,0,0,1-.291.765,1.943,1.943,0,0,0-1.478-.79c-2.718,0-1.689,3.932-4.592,3.932a13.76,13.76,0,0,1-1.767-.159c-.185,0-.291.079-.291.237,0,.687.977,2.375,3.694,2.375s5.331-1.661,5.331-3.722a2.754,2.754,0,0,0-.238-1.08.771.771,0,0,1,.608-.264c.421,0,.659.476,1.054.476a.722.722,0,0,0,.74-.74.8.8,0,0,0-.5-.741.907.907,0,0,0,.369-.711.837.837,0,0,0-.845-.87.753.753,0,0,0-.579.261c-.052-.472-.317-.921-.819-.921a.681.681,0,0,0-.687.74c0,.419.291.764.291,1.212" transform="translate(-7.347 -13.176)" fill="#007bbe"/>
    <path id="Path_15164" data-name="Path 15164" d="M376.464,304.7c2.111.525,3.166,1.66,3.377,3.007a5.863,5.863,0,0,0,.976,2.876,4.558,4.558,0,0,0,3.088,1.4c.95,0,1.714-.313,1.714-1.184a3.62,3.62,0,0,0-3.192-3.088c-.184,0-.422.027-.686.027a1.271,1.271,0,0,1-.792-.238c-.421-.371-.553-2.35-1.346-3.536a3.319,3.319,0,0,0-3.113-1.689c-.923,0-1.953.5-1.953,1.24C374.537,303.957,374.775,304.273,376.464,304.7Zm7.362,5.909c-.793,0-1.98-.846-1.98-1.321a.639.639,0,0,1,.659-.608c.661,0,1.847.819,1.847,1.506,0,.184-.132.422-.526.422" transform="translate(-5.426 -11.878)" fill="#007bbe"/>
    <path id="Path_15165" data-name="Path 15165" d="M382.943,285.642c0-1.689,4.012-2.586,4.012-4.671a3.451,3.451,0,0,0-.37-1.4c1.4.765,2.427,2.059,2.427,3.113,0,1.821-1.9,2.665-1.9,3.8,0,1.319,2.031,1.53,2.031,3.166,0,1.345-1.926,2.9-1.926,4.643a2.635,2.635,0,0,0,2.4,2.638,6.1,6.1,0,0,1-1.345.185c-2.666,0-5.41-2.189-5.41-4.8a4.5,4.5,0,0,1,1.4-3.244,3.772,3.772,0,0,0,1.954,1.055c.422,0,.608-.21.608-.527C386.822,288.623,382.943,287.727,382.943,285.642Zm8.417,13.325c-.9.413-1.266.342-1.266,1.267,0,.342-.08.789-.08,1.027,0,.317.053.5.422.5.95,0,2.454-1.609,2.454-2.982,0-.371-.211-.526-.449-.526C392.23,298.255,391.994,298.676,391.36,298.967Zm-.106-1.9c0-1.187-2.454-1.213-2.454-3.008a4.121,4.121,0,0,1,.871-2.033,2.864,2.864,0,0,0,1.98,2.535c2.347.869,2.665,2.188,2.665,3.589,0,2.375-1.663,5.33-5.937,5.33a6.009,6.009,0,0,1-5.885-5.647c0-.712.185-1.5.633-1.5.4,0,.528.316.844.632a5.494,5.494,0,0,0,4.354,1.505c1.689,0,2.929-.686,2.929-1.4" transform="translate(-6.972 -7.469)" fill="#007bbe"/>
    <path id="Path_15166" data-name="Path 15166" d="M368.984,301.178a1,1,0,1,1-1.113-.883A1,1,0,0,1,368.984,301.178Zm-4.931,1.038a1.722,1.722,0,0,0,1.9,1.479,2.171,2.171,0,0,0,.872-.263,1.624,1.624,0,0,0,1.877,1.261,1.673,1.673,0,0,0,1.528-1.869,1.91,1.91,0,0,0-.159-.608s.129-.013.226-.031a1.755,1.755,0,0,0,1.515-1.868,1.713,1.713,0,0,0-1.844-1.545,1.663,1.663,0,0,0-.873.358,1.777,1.777,0,0,0-2-1.31,1.786,1.786,0,0,0-1.3,2.445l-.263.039a1.777,1.777,0,0,0-1.48,1.914" transform="translate(-3.387 -11.008)" fill="#007bbe"/>
  </g>
</svg>
