<svg xmlns="http://www.w3.org/2000/svg" width="54.1" height="83.343" viewBox="0 0 54.1 83.343">
  <g id="Group_5756" data-name="Group 5756" transform="translate(-838 217.411)">
    <g id="Group_5752" data-name="Group 5752" transform="translate(675 -398)">
      <path id="Path_3869" data-name="Path 3869" d="M1.4,1.936,34.8,3.41,46.1,25.932H-6.613Z" transform="translate(171 238)" fill="#e0e0e0"/>
      <g id="Group_3743" data-name="Group 3743">
        <g id="Group_3740" data-name="Group 3740">
          <g id="Group_3734" data-name="Group 3734">
            <g id="Group_3733" data-name="Group 3733" transform="translate(81)">
              <g id="Group_3731" data-name="Group 3731">
                <g id="Group_3728" data-name="Group 3728" transform="translate(-70)">
                  <path id="Path_3846" data-name="Path 3846" d="M8.592,0H38.558L46.5,7.177H.5Z" transform="translate(151.5 206.823)" fill="#e6992f"/>
                </g>
                <path id="Path_3847" data-name="Path 3847" d="M-476,1065l8.442-7.285V1065Z" transform="translate(558 -851)" fill="#d58f34"/>
                <path id="Path_3849" data-name="Path 3849" d="M-467.984,1064.633l-8.016-6.918v6.918Z" transform="translate(595.984 -850.817)" fill="#d58f34"/>
                <g id="flat" transform="translate(76.849 177.589)">
                  <path id="Path_3834" data-name="Path 3834" d="M33.244,24.428H21.817c-1.56,0-2.429-2.34-1.9-3.809,0,0,1.27-3.809,1.9-5.079.691-1.382.994-2.539,2.539-2.539H30.7c1.545,0,1.849,1.157,2.539,2.539.635,1.27,1.9,5.079,1.9,5.079C35.673,22.088,34.8,24.428,33.244,24.428Z" transform="translate(0 -3.651)" fill="#e8e8e8"/>
                  <path id="Path_3835" data-name="Path 3835" d="M35.872,50.046H20L21.9,31H33.332Z" transform="translate(-0.088 -10.224)" fill="#d3d2c1"/>
                  <path id="Path_3836" data-name="Path 3836" d="M25,5.539a1.27,1.27,0,1,1,2.539,0V4.491a1.59,1.59,0,0,1,3.174,0V5.539a1.27,1.27,0,1,1,2.539,0V8.024a1.221,1.221,0,0,1-1.27,1.325h-1.27v3.423a1.615,1.615,0,0,1-1.751,1.651,1.7,1.7,0,0,1-1.423-1.745V9.349h-1.27A1.221,1.221,0,0,1,25,8.024Z" transform="translate(-1.911)" fill="#e33e5c"/>
                  <path id="Path_3840" data-name="Path 3840" d="M30,31h3.809v4.444a1.9,1.9,0,0,1-3.809,0Z" transform="translate(-4.739 -10.224)" fill="#e33e5c"/>
                  <path id="Path_3841" data-name="Path 3841" d="M33.349,28.809l-3.174,3.809L27,28.809C27,27.056,28.421,25,30.174,25S33.349,27.056,33.349,28.809Z" transform="translate(-2.644 -8.033)" fill="#f9bb4b"/>
                  <g id="Group_3760" data-name="Group 3760" transform="translate(-4.733 -0.947)">
                    <path id="Path_3874" data-name="Path 3874" d="M1.947,0A1.947,1.947,0,1,1,0,1.947,1.947,1.947,0,0,1,1.947,0Z" transform="translate(36.723 14.411)"/>
                    <path id="Path_3875" data-name="Path 3875" d="M1.947,0A1.947,1.947,0,1,1,0,1.947,1.947,1.947,0,0,1,1.947,0Z" transform="translate(23.151 14.411)"/>
                  </g>
                </g>
                <path id="Path_3854" data-name="Path 3854" d="M0,0H46V43a3,3,0,0,1-3,3H3a3,3,0,0,1-3-3Z" transform="translate(82 214)" fill="#ffb552"/>
                <path id="Path_3855" data-name="Path 3855" d="M2.5,0h15a2.5,2.5,0,0,1,0,5H2.5a2.5,2.5,0,0,1,0-5Z" transform="translate(95 227)" fill="#d89130"/>
                <path id="Path_3856" data-name="Path 3856" d="M-476,1068.081h46.043l2.771,15.06h-45.3Z" transform="translate(558 -854)" fill="#ffd191"/>
              </g>
            </g>
          </g>
        </g>
      </g>
    </g>
    <g id="Group_5753" data-name="Group 5753" transform="translate(664 -391)">
      <g id="Path_9380" data-name="Path 9380" transform="translate(188 236)" fill="#fff">
        <path d="M 14 5.5 L 3 5.5 C 1.621500015258789 5.5 0.5 4.378499984741211 0.5 3 C 0.5 1.621500015258789 1.621500015258789 0.5 3 0.5 L 14 0.5 C 15.37849998474121 0.5 16.5 1.621500015258789 16.5 3 C 16.5 4.378499984741211 15.37849998474121 5.5 14 5.5 Z" stroke="none"/>
        <path d="M 3 1 C 1.897199630737305 1 1 1.897200107574463 1 3 C 1 4.102799892425537 1.897199630737305 5 3 5 L 14 5 C 15.1028003692627 5 16 4.102799892425537 16 3 C 16 1.897200107574463 15.1028003692627 1 14 1 L 3 1 M 3 0 L 14 0 C 15.65684986114502 0 17 1.34315013885498 17 3 C 17 4.65684986114502 15.65684986114502 6 14 6 L 3 6 C 1.34315013885498 6 0 4.65684986114502 0 3 C 0 1.34315013885498 1.34315013885498 0 3 0 Z" stroke="none" fill="#a2a2a2"/>
      </g>
      <circle id="Ellipse_327" data-name="Ellipse 327" cx="5" cy="5" r="5" transform="translate(198 234)" fill="#00a651"/>
    </g>
  </g>
</svg>
