<svg xmlns="http://www.w3.org/2000/svg" width="70.1" height="83.343" viewBox="0 0 70.1 83.343">
  <g id="Group_5755" data-name="Group 5755" transform="translate(-821 308.411)">
    <g id="Group_5750" data-name="Group 5750" transform="translate(768 -489)">
      <path id="Path_3870" data-name="Path 3870" d="M1.4,1.936,34.8,3.41,46.1,25.932H-6.613Z" transform="translate(77 238)" fill="#e0e0e0"/>
      <g id="Group_3745" data-name="Group 3745" transform="translate(-12)">
        <g id="Group_3744" data-name="Group 3744">
          <g id="Group_3737" data-name="Group 3737">
            <g id="Group_3731" data-name="Group 3731">
              <g id="Group_3728" data-name="Group 3728" transform="translate(-70)">
                <path id="Path_3846" data-name="Path 3846" d="M8.592,0H38.558L46.5,7.177H.5Z" transform="translate(151.5 206.823)" fill="#e6992f"/>
              </g>
              <path id="Path_3847" data-name="Path 3847" d="M-476,1065l8.442-7.285V1065Z" transform="translate(558 -851)" fill="#d58f34"/>
              <path id="Path_3849" data-name="Path 3849" d="M-467.984,1064.633l-8.016-6.918v6.918Z" transform="translate(595.984 -850.817)" fill="#d58f34"/>
              <path id="Path_3854" data-name="Path 3854" d="M0,0H46V43a3,3,0,0,1-3,3H3a3,3,0,0,1-3-3Z" transform="translate(82 214)" fill="#ffb552"/>
              <path id="Path_3855" data-name="Path 3855" d="M2.5,0h15a2.5,2.5,0,0,1,0,5H2.5a2.5,2.5,0,0,1,0-5Z" transform="translate(95 227)" fill="#d89130"/>
              <g id="flat" transform="translate(76.849 177.589)">
                <path id="Path_3834" data-name="Path 3834" d="M33.244,24.428H21.817c-1.56,0-2.429-2.34-1.9-3.809,0,0,1.27-3.809,1.9-5.079.691-1.382.994-2.539,2.539-2.539H30.7c1.545,0,1.849,1.157,2.539,2.539.635,1.27,1.9,5.079,1.9,5.079C35.673,22.088,34.8,24.428,33.244,24.428Z" transform="translate(0 -3.651)" fill="#e8e8e8"/>
                <path id="Path_3835" data-name="Path 3835" d="M35.872,50.046H20L21.9,31H33.332Z" transform="translate(-0.088 -10.224)" fill="#d3d2c1"/>
                <path id="Path_3836" data-name="Path 3836" d="M25,5.539a1.27,1.27,0,1,1,2.539,0V4.491a1.59,1.59,0,0,1,3.174,0V5.539a1.27,1.27,0,1,1,2.539,0V8.024a1.221,1.221,0,0,1-1.27,1.325h-1.27v3.423a1.615,1.615,0,0,1-1.751,1.651,1.7,1.7,0,0,1-1.423-1.745V9.349h-1.27A1.221,1.221,0,0,1,25,8.024Z" transform="translate(-1.911)" fill="#e33e5c"/>
                <path id="Path_3840" data-name="Path 3840" d="M30,31h3.809v4.444a1.9,1.9,0,0,1-3.809,0Z" transform="translate(-4.739 -10.224)" fill="#e33e5c"/>
                <path id="Path_3841" data-name="Path 3841" d="M33.349,28.809l-3.174,3.809L27,28.809C27,27.056,28.421,25,30.174,25S33.349,27.056,33.349,28.809Z" transform="translate(-2.644 -8.033)" fill="#f9bb4b"/>
                <g id="Group_3739" data-name="Group 3739" transform="translate(-4.733 -0.947)">
                  <path id="Path_3874" data-name="Path 3874" d="M1.947,0A1.947,1.947,0,1,1,0,1.947,1.947,1.947,0,0,1,1.947,0Z" transform="translate(36.723 14.411)"/>
                  <path id="Path_3875" data-name="Path 3875" d="M1.947,0A1.947,1.947,0,1,1,0,1.947,1.947,1.947,0,0,1,1.947,0Z" transform="translate(23.151 14.411)"/>
                </g>
              </g>
              <path id="Path_3856" data-name="Path 3856" d="M-476,1068.081h46.043l2.771,15.06h-45.3Z" transform="translate(558 -854)" fill="#ffd191"/>
            </g>
          </g>
        </g>
        <g id="Group_3738" data-name="Group 3738" transform="translate(3)">
          <g id="check_2_" data-name="check (2)" transform="translate(95 238)">
            <path id="Path_3865" data-name="Path 3865" d="M8.377,0a8.377,8.377,0,1,0,8.377,8.377A8.386,8.386,0,0,0,8.377,0Zm0,0" fill="#fff503"/>
          </g>
          <g id="history_1_" data-name="history (1)" transform="translate(-135 38.97)">
            <g id="Group_1242" data-name="Group 1242" transform="translate(232 202.03)">
              <g id="Group_1241" data-name="Group 1241">
                <path id="Path_2965" data-name="Path 2965" d="M234.667,138.667v2.923l2.5,1.485.421-.71-2.046-1.213v-2.484Z" transform="translate(-228.236 -135.744)"/>
                <path id="Path_2966" data-name="Path 2966" d="M7.012,32a5.257,5.257,0,0,0-5.258,5.261H0l2.277,2.277.041.085,2.359-2.362H2.923a4.1,4.1,0,1,1,1.2,2.891l-.827.827A5.26,5.26,0,1,0,7.012,32Z" transform="translate(0 -32)"/>
              </g>
            </g>
          </g>
        </g>
      </g>
    </g>
    <g id="Group_5751" data-name="Group 5751" transform="translate(748 -483)">
      <rect id="Rectangle_1680" data-name="Rectangle 1680" width="19" height="2" transform="translate(73 225)"/>
      <rect id="Rectangle_1681" data-name="Rectangle 1681" width="19" height="2" transform="translate(78 236)"/>
      <rect id="Rectangle_1682" data-name="Rectangle 1682" width="19" height="2" transform="translate(73 247)"/>
    </g>
  </g>
</svg>
