<svg xmlns="http://www.w3.org/2000/svg" width="53.1" height="93.655" viewBox="0 0 53.1 93.655">
  <g id="Group_5757" data-name="Group 5757" transform="translate(-838 126.723)">
    <g id="Group_5754" data-name="Group 5754" transform="translate(557 -290)">
      <g id="Group_4538" data-name="Group 4538" transform="translate(7)">
        <g id="Group_4537" data-name="Group 4537">
          <g id="Group_3751" data-name="Group 3751" transform="translate(19 -7)">
            <g id="Group_3746" data-name="Group 3746" transform="translate(-3)">
              <g id="Group_3742" data-name="Group 3742" transform="translate(14)">
                <path id="Path_3868" data-name="Path 3868" d="M1.4,1.936,34.8,3.41,46.1,25.932H-6.613Z" transform="translate(251 238)" fill="#e0e0e0"/>
                <g id="Group_3741" data-name="Group 3741">
                  <g id="Group_3735" data-name="Group 3735" transform="translate(81)">
                    <g id="Group_3733" data-name="Group 3733" transform="translate(81)">
                      <g id="Group_3731" data-name="Group 3731">
                        <g id="Group_3728" data-name="Group 3728" transform="translate(-70)">
                          <path id="Path_3846" data-name="Path 3846" d="M8.592,0H38.558L46.5,7.177H.5Z" transform="translate(151.5 206.823)" fill="#e6992f"/>
                        </g>
                        <path id="Path_3847" data-name="Path 3847" d="M-476,1065l8.442-7.285V1065Z" transform="translate(558 -851)" fill="#d58f34"/>
                        <path id="Path_3849" data-name="Path 3849" d="M-467.984,1064.633l-8.016-6.918v6.918Z" transform="translate(595.984 -850.817)" fill="#d58f34"/>
                        <path id="Path_3854" data-name="Path 3854" d="M0,0H46V43a3,3,0,0,1-3,3H3a3,3,0,0,1-3-3Z" transform="translate(82 214)" fill="#ffb552"/>
                        <path id="Path_3855" data-name="Path 3855" d="M2.5,0h15a2.5,2.5,0,0,1,0,5H2.5a2.5,2.5,0,0,1,0-5Z" transform="translate(95 227)" fill="#d89130"/>
                        <g id="flat" transform="translate(76.849 177.589)">
                          <path id="Path_3834" data-name="Path 3834" d="M33.244,24.428H21.817c-1.56,0-2.429-2.34-1.9-3.809,0,0,1.27-3.809,1.9-5.079.691-1.382.994-2.539,2.539-2.539H30.7c1.545,0,1.849,1.157,2.539,2.539.635,1.27,1.9,5.079,1.9,5.079C35.673,22.088,34.8,24.428,33.244,24.428Z" transform="translate(0 -3.651)" fill="#e8e8e8"/>
                          <path id="Path_3835" data-name="Path 3835" d="M35.872,50.046H20L21.9,31H33.332Z" transform="translate(-0.088 -10.224)" fill="#d3d2c1"/>
                          <path id="Path_3836" data-name="Path 3836" d="M25,5.539a1.27,1.27,0,1,1,2.539,0V4.491a1.59,1.59,0,0,1,3.174,0V5.539a1.27,1.27,0,1,1,2.539,0V8.024a1.221,1.221,0,0,1-1.27,1.325h-1.27v3.423a1.615,1.615,0,0,1-1.751,1.651,1.7,1.7,0,0,1-1.423-1.745V9.349h-1.27A1.221,1.221,0,0,1,25,8.024Z" transform="translate(-1.911)" fill="#e33e5c"/>
                          <path id="Path_3840" data-name="Path 3840" d="M30,31h3.809v4.444a1.9,1.9,0,0,1-3.809,0Z" transform="translate(-4.739 -10.224)" fill="#e33e5c"/>
                          <path id="Path_3841" data-name="Path 3841" d="M33.349,28.809l-3.174,3.809L27,28.809C27,27.056,28.421,25,30.174,25S33.349,27.056,33.349,28.809Z" transform="translate(-2.644 -8.033)" fill="#f9bb4b"/>
                          <g id="Group_4539" data-name="Group 4539" transform="translate(-268.849 -170.589)">
                            <path id="Path_9378" data-name="Path 9378" d="M0,0H3.548V1.092H0Z" transform="translate(299.726 185.168)"/>
                            <path id="Path_9379" data-name="Path 9379" d="M0,0H3.548V1.092H0Z" transform="translate(289.726 185.168)"/>
                          </g>
                        </g>
                        <path id="Path_3856" data-name="Path 3856" d="M-476,1068.081h46.043l2.771,15.06h-45.3Z" transform="translate(558 -854)" fill="#ffd191"/>
                      </g>
                    </g>
                  </g>
                  <g id="cancel_1_" data-name="cancel (1)" transform="translate(259.623 237.623)">
                    <path id="Path_3860" data-name="Path 3860" d="M8.377,0a8.377,8.377,0,1,0,8.377,8.377A8.406,8.406,0,0,0,8.377,0Z" fill="#ff3636"/>
                    <path id="Path_3862" data-name="Path 3862" d="M134.346,132.962l2.778,2.778-1.384,1.384-2.778-2.778-2.778,2.778L128.8,135.74l2.778-2.778-2.778-2.778,1.384-1.384,2.778,2.778,2.778-2.778,1.384,1.384Z" transform="translate(-124.585 -124.585)" fill="#e7e7e7"/>
                  </g>
                </g>
              </g>
            </g>
          </g>
        </g>
      </g>
      <path id="Path_9383" data-name="Path 9383" d="M0,2,3.4,0V4.167L7.284,0" transform="matrix(0.719, 0.695, -0.695, 0.719, 302.208, 164.482)" fill="none" stroke="#000" stroke-width="1.5"/>
    </g>
    <path id="Path_11160" data-name="Path 11160" d="M0,2,3.4,0V4.167L7.284,0" transform="translate(871.659 -114.025) rotate(8)" fill="none" stroke="#000" stroke-width="1.5"/>
    <path id="Path_11159" data-name="Path 11159" d="M897.611-1158.754l3.4-2v4.167l3.881-4.167" transform="translate(-57.293 1049.948)" fill="none" stroke="#000" stroke-width="1.5"/>
  </g>
</svg>
