<svg xmlns="http://www.w3.org/2000/svg" width="135" height="60.207" viewBox="0 0 135 60.207">
  <g id="Group_4601" data-name="Group 4601" transform="translate(-131.616 -105.512)">
    <g id="Group_4571" data-name="Group 4571" transform="translate(131.198 105.463)">
      <g id="Component_7_448" data-name="Component 7 – 448" transform="translate(0.418 0.05)">
        <text id="Live_Bird" data-name="Live Bird" transform="translate(0 35)" fill="#fff" font-size="33" font-family="Roboto-Bold, Roboto" font-weight="700"><tspan x="0" y="0">Live Bird</tspan></text>
      </g>
    </g>
    <g id="Group_4575" data-name="Group 4575" transform="translate(155.66 149.175)">
      <g id="Group_4574" data-name="Group 4574" transform="translate(0 1.154)">
        <g id="Group_4573" data-name="Group 4573" transform="translate(-0.044 0.183)">
          <text id="Part_of" data-name="Part of" transform="translate(15 11)" fill="#fff" font-size="11" font-family="Roboto-Bold, Roboto" font-weight="700"><tspan x="-16.916" y="0">Part of</tspan></text>
        </g>
      </g>
      <g id="Layer_2" data-name="Layer 2" transform="translate(36.477 0)">
        <g id="Layer_1-2" data-name="Layer 1-2" transform="translate(0 0)">
          <circle id="Ellipse_331" data-name="Ellipse 331" cx="3.66" cy="3.66" r="3.66" transform="translate(6.098 0)" fill="#fbaa19"/>
          <path id="Path_9406" data-name="Path 9406" d="M8.121,30.031a9.34,9.34,0,0,0,1.664,1.108c-.4.218-.7.355-.7.355a8.677,8.677,0,0,1-4.215.744A6.113,6.113,0,0,1,1.027,30.46,3.878,3.878,0,0,1,.08,27.135,2.976,2.976,0,0,1,1.417,25.4a3.917,3.917,0,0,1,3.719.022c1.173.657,1.411,1.217,2.911,1.984a9.659,9.659,0,0,0,.91.422,1.089,1.089,0,0,0-.66,0,1.055,1.055,0,0,0-.513.4,1.292,1.292,0,0,0-.221.672A1.505,1.505,0,0,0,8.121,30.031Z" transform="translate(-0.014 -18.757)" fill="#27a9e0"/>
          <path id="Path_9407" data-name="Path 9407" d="M48.195,30.4a6.062,6.062,0,0,1-3.843,1.765,8.7,8.7,0,0,1-4.215-.744s-.3-.136-.7-.355a9.355,9.355,0,0,0,1.666-1.108,1.488,1.488,0,0,0,.545-1.138,1.267,1.267,0,0,0-.218-.672,1.055,1.055,0,0,0-.513-.4,1.1,1.1,0,0,0-.662,0,9.365,9.365,0,0,0,.91-.422c1.5-.764,1.736-1.324,2.913-1.984a3.917,3.917,0,0,1,3.719-.022,2.976,2.976,0,0,1,1.336,1.736A3.878,3.878,0,0,1,48.195,30.4Z" transform="translate(-29.665 -18.697)" fill="#a5cd39"/>
          <path id="Path_9408" data-name="Path 9408" d="M34.923,37.453a1.488,1.488,0,0,1-.545,1.138A9.23,9.23,0,0,1,32.712,39.7a9.126,9.126,0,0,1-1.664-1.108,1.505,1.505,0,0,1-.548-1.138,1.292,1.292,0,0,1,.221-.674,1.058,1.058,0,0,1,.511-.4,1.147,1.147,0,0,1,.689,0h0c.169.045.335.1.5.129h.062a1.646,1.646,0,0,0,.5,0,2.493,2.493,0,0,0,.508-.129h0a1.139,1.139,0,0,1,.687,0,1.049,1.049,0,0,1,.511.4A1.271,1.271,0,0,1,34.923,37.453Z" transform="translate(-22.941 -27.319)" fill="#008541"/>
          <path id="Path_9409" data-name="Path 9409" d="M104.1,17.733h-1.778a1.585,1.585,0,0,0-1.788-1.334c-1.6,0-1.51,1.217-1.51,1.217a1.138,1.138,0,0,0,.95,1.069c1.1.322,1.612.426,1.612.426a4.889,4.889,0,0,1,2.232,1.2,2.434,2.434,0,0,1,.558,1.641,2.948,2.948,0,0,1-.662,1.815,4.741,4.741,0,0,1-6.114-.109,3.119,3.119,0,0,1-.553-.935,2.006,2.006,0,0,1-.166-.764h1.765a1.932,1.932,0,0,0,2.145,1.488c1.54,0,1.736-.823,1.736-1.279s-.233-1.163-1.52-1.448a7.485,7.485,0,0,1-3.052-1.2,2.142,2.142,0,0,1-.761-1.743A2.618,2.618,0,0,1,97.9,16a3.6,3.6,0,0,1,2.727-.932,4.262,4.262,0,0,1,2.333.645A2.726,2.726,0,0,1,104.1,17.733Z" transform="translate(-72.863 -11.331)" fill="#fff"/>
          <path id="Path_9410" data-name="Path 9410" d="M133.634,31.616H132V24.53h.816s.836-.074.836,1.165a2.217,2.217,0,0,1,2.425-1.284v1.7a2.038,2.038,0,0,0-1.862.58,3.263,3.263,0,0,0-.56,2.018Z" transform="translate(-99.275 -18.331)" fill="#fff"/>
          <path id="Path_9411" data-name="Path 9411" d="M157.339,25.7a3.35,3.35,0,0,0-2.8-1.488,3.58,3.58,0,0,0-3.707,3.754,3.566,3.566,0,0,0,3.707,3.737,3.467,3.467,0,0,0,3.223-1.835l-1.384-.669a2.118,2.118,0,0,1-1.817,1.088,1.971,1.971,0,0,1-2.055-1.83h5.48A4.333,4.333,0,0,0,157.339,25.7Zm-4.84,1.537A2.006,2.006,0,0,1,154.41,25.6a1.888,1.888,0,0,1,1.909,1.639Z" transform="translate(-113.436 -18.207)" fill="#fff"/>
          <path id="Path_9412" data-name="Path 9412" d="M190.356,25.7a3.35,3.35,0,0,0-2.8-1.488,3.578,3.578,0,0,0-3.7,3.754,3.564,3.564,0,0,0,3.7,3.737,3.464,3.464,0,0,0,3.223-1.835L189.4,29.2a2.123,2.123,0,0,1-1.82,1.088,1.971,1.971,0,0,1-2.055-1.83H191A4.315,4.315,0,0,0,190.356,25.7Zm-4.84,1.537a2.006,2.006,0,0,1,1.912-1.639,1.888,1.888,0,0,1,1.909,1.639Z" transform="translate(-138.269 -18.207)" fill="#fff"/>
          <path id="Path_9413" data-name="Path 9413" d="M213.51,24.983l2.849,7-.434,1.061a1.411,1.411,0,0,1-1.888.646l-.031-.016v1.436s.206.211.992.211a2.145,2.145,0,0,0,1.639-.635,4.559,4.559,0,0,0,.992-1.584c.285-.684,3.35-8.123,3.35-8.123h-.722s-.947-.035-1.207.6c-.188.461-1.8,4.5-1.8,4.5l-1.636-4.294a1.208,1.208,0,0,0-.387-.533,1.711,1.711,0,0,0-.992-.28Z" transform="translate(-160.575 -18.784)" fill="#fff"/>
          <path id="Path_9414" data-name="Path 9414" d="M250.3,24.436a.87.87,0,0,0-.87.87h0v.1a2.875,2.875,0,0,0-2.479-1.155,3.591,3.591,0,0,0-3.427,3.737,3.593,3.593,0,0,0,3.427,3.739,2.978,2.978,0,0,0,2.479-1.158v.992h1.651V24.436Zm-2.938,5.785a2.231,2.231,0,0,1,0-4.463,2.162,2.162,0,0,1,2.07,1.622,2.3,2.3,0,0,1,0,1.215A2.162,2.162,0,0,1,247.358,30.22Z" transform="translate(-183.144 -18.237)" fill="#fff"/>
        </g>
      </g>
    </g>
  </g>
</svg>
