<svg xmlns="http://www.w3.org/2000/svg" viewBox="0 0 396 127"><g id="Layer_2" data-name="Layer 2"><g id="Layer_1-2" data-name="Layer 1"><g id="Group_6305" data-name="Group 6305"><g id="Group_6299" data-name="Group 6299"><g id="Group_6295" data-name="Group 6295"><g id="Group_5975" data-name="Group 5975"><path id="Subtraction_63-2" data-name="Subtraction 63-2" d="M118,127H6a6,6,0,0,1-6-6V6A6,6,0,0,1,6,0H118a9.93,9.93,0,0,0,2.93,7.07A9.93,9.93,0,0,0,128,10,10,10,0,0,0,138,0H390a6,6,0,0,1,6,6V121a6,6,0,0,1-6,6H138a10,10,0,0,0-20,0Z" fill="#fafbfb"/></g></g><g id="Group_6298" data-name="Group 6298"><g id="Group_6296" data-name="Group 6296"><g id="Group_5968" data-name="Group 5968"><rect id="Rectangle_4592" data-name="Rectangle 4592" x="126" y="19" width="4" height="10" fill="#f1f0f0"/><rect id="Rectangle_4593" data-name="Rectangle 4593" x="126" y="35" width="4" height="10" fill="#f1f0f0"/></g><g id="Group_5971" data-name="Group 5971"><rect id="Rectangle_4592-2" data-name="Rectangle 4592-2" x="126" y="83" width="4" height="10" fill="#f1f0f0"/><rect id="Rectangle_4593-2" data-name="Rectangle 4593-2" x="126" y="99" width="4" height="10" fill="#f1f0f0"/></g><g id="Group_5969" data-name="Group 5969"><rect id="Rectangle_4592-3" data-name="Rectangle 4592-3" x="126" y="51" width="4" height="10" fill="#f1f0f0"/><rect id="Rectangle_4593-3" data-name="Rectangle 4593-3" x="126" y="67" width="4" height="10" fill="#f1f0f0"/></g></g><g id="Group_6161" data-name="Group 6161"><g id="Group_6007" data-name="Group 6007"><g id="Group_6005" data-name="Group 6005"><g id="Group_6001" data-name="Group 6001"><g id="Group_5999" data-name="Group 5999"><g id="Group_5997" data-name="Group 5997"><path id="Path_11214" data-name="Path 11214" d="M27.73,47.92a3.29,3.29,0,1,1-3.29,3.28h0A3.28,3.28,0,0,1,27.73,47.92Z" fill="#f1f0f0"/><path id="Path_11215" data-name="Path 11215" d="M27.73,57.78a3.29,3.29,0,1,1-3.29,3.28h0A3.28,3.28,0,0,1,27.73,57.78Z" fill="#f1f0f0"/></g><g id="Group_5998" data-name="Group 5998"><path id="Path_11214-2" data-name="Path 11214-2" d="M27.73,67.64a3.29,3.29,0,1,1-3.29,3.28h0A3.28,3.28,0,0,1,27.73,67.64Z" fill="#f1f0f0"/><path id="Path_11215-2" data-name="Path 11215-2" d="M27.73,77.5a3.29,3.29,0,1,1-3.29,3.28h0A3.28,3.28,0,0,1,27.73,77.5Z" fill="#f1f0f0"/></g></g><g id="Group_6000" data-name="Group 6000"><g id="Group_5997-2" data-name="Group 5997-2"><path id="Path_11214-3" data-name="Path 11214-3" d="M27.73,87.36a3.29,3.29,0,1,1-3.29,3.28h0A3.28,3.28,0,0,1,27.73,87.36Z" fill="#f1f0f0"/><path id="Path_11215-3" data-name="Path 11215-3" d="M27.73,97.22a3.29,3.29,0,1,1-3.29,3.28h0A3.28,3.28,0,0,1,27.73,97.22Z" fill="#f1f0f0"/></g><g id="Group_5998-2" data-name="Group 5998-2"><path id="Path_11214-4" data-name="Path 11214-4" d="M27.73,107.08a3.29,3.29,0,1,1-3.29,3.28h0A3.28,3.28,0,0,1,27.73,107.08Z" fill="#f1f0f0"/><path id="Path_11215-4" data-name="Path 11215-4" d="M27.73,116.94a3.29,3.29,0,1,1-3.29,3.28h0A3.28,3.28,0,0,1,27.73,116.94Z" fill="#f1f0f0"/></g></g></g><g id="Group_6002" data-name="Group 6002"><g id="Group_5999-2" data-name="Group 5999-2"><g id="Group_5997-3" data-name="Group 5997-3"><path id="Path_11215-5" data-name="Path 11215-5" d="M37.59,57.78a3.29,3.29,0,1,1-3.29,3.28h0A3.28,3.28,0,0,1,37.59,57.78Z" fill="#f1f0f0"/></g><g id="Group_5998-3" data-name="Group 5998-3"><path id="Path_11214-5" data-name="Path 11214-5" d="M37.59,67.64a3.29,3.29,0,1,1-3.29,3.28h0A3.28,3.28,0,0,1,37.59,67.64Z" fill="#f1f0f0"/><path id="Path_11215-6" data-name="Path 11215-6" d="M37.59,77.5a3.29,3.29,0,1,1-3.29,3.28h0A3.28,3.28,0,0,1,37.59,77.5Z" fill="#f1f0f0"/></g></g><g id="Group_6000-2" data-name="Group 6000-2"><g id="Group_5997-4" data-name="Group 5997-4"><path id="Path_11214-6" data-name="Path 11214-6" d="M37.59,87.36a3.29,3.29,0,1,1-3.29,3.28h0A3.28,3.28,0,0,1,37.59,87.36Z" fill="#f1f0f0"/><path id="Path_11215-7" data-name="Path 11215-7" d="M37.59,97.22a3.29,3.29,0,1,1-3.29,3.28h0A3.28,3.28,0,0,1,37.59,97.22Z" fill="#f1f0f0"/></g><g id="Group_5998-4" data-name="Group 5998-4"><path id="Path_11214-7" data-name="Path 11214-7" d="M37.59,107.08a3.29,3.29,0,1,1-3.29,3.28h0A3.28,3.28,0,0,1,37.59,107.08Z" fill="#f1f0f0"/><path id="Path_11215-8" data-name="Path 11215-8" d="M37.59,116.94a3.29,3.29,0,1,1-3.29,3.28h0A3.28,3.28,0,0,1,37.59,116.94Z" fill="#f1f0f0"/></g></g></g></g><g id="Group_6004" data-name="Group 6004"><g id="Group_6001-2" data-name="Group 6001-2"><g id="Group_5999-3" data-name="Group 5999-3"><g id="Group_5997-5" data-name="Group 5997-5"><path id="Path_11214-8" data-name="Path 11214-8" d="M8,47.92A3.29,3.29,0,1,1,4.72,51.2h0A3.28,3.28,0,0,1,8,47.92Z" fill="#f1f0f0"/><path id="Path_11215-9" data-name="Path 11215-9" d="M8,57.78a3.29,3.29,0,1,1-3.29,3.28h0A3.28,3.28,0,0,1,8,57.78Z" fill="#f1f0f0"/></g><g id="Group_6026" data-name="Group 6026"><path id="Path_11214-9" data-name="Path 11214-9" d="M8,28.49a3.29,3.29,0,1,1-3.29,3.29h0A3.29,3.29,0,0,1,8,28.49Z" fill="#f1f0f0"/><path id="Path_11215-10" data-name="Path 11215-10" d="M8,38.35a3.29,3.29,0,1,1-3.29,3.29h0A3.29,3.29,0,0,1,8,38.35Z" fill="#f1f0f0"/></g><g id="Group_5998-5" data-name="Group 5998-5"><path id="Path_11214-10" data-name="Path 11214-10" d="M8,67.64a3.29,3.29,0,1,1-3.29,3.28h0A3.28,3.28,0,0,1,8,67.64Z" fill="#f1f0f0"/><path id="Path_11215-11" data-name="Path 11215-11" d="M8,77.5a3.29,3.29,0,1,1-3.29,3.28h0A3.28,3.28,0,0,1,8,77.5Z" fill="#f1f0f0"/></g></g><g id="Group_6000-3" data-name="Group 6000-3"><g id="Group_5997-6" data-name="Group 5997-6"><path id="Path_11214-11" data-name="Path 11214-11" d="M8,87.36a3.29,3.29,0,1,1-3.29,3.28h0A3.28,3.28,0,0,1,8,87.36Z" fill="#f1f0f0"/><path id="Path_11215-12" data-name="Path 11215-12" d="M8,97.22a3.29,3.29,0,1,1-3.29,3.28h0A3.28,3.28,0,0,1,8,97.22Z" fill="#f1f0f0"/></g><g id="Group_5998-6" data-name="Group 5998-6"><path id="Path_11214-12" data-name="Path 11214-12" d="M8,107.08a3.29,3.29,0,1,1-3.29,3.28h0A3.28,3.28,0,0,1,8,107.08Z" fill="#f1f0f0"/><path id="Path_11215-13" data-name="Path 11215-13" d="M8,116.94a3.29,3.29,0,1,1-3.29,3.28h0A3.28,3.28,0,0,1,8,116.94Z" fill="#f1f0f0"/></g></g></g><g id="Group_6002-2" data-name="Group 6002-2"><g id="Group_5999-4" data-name="Group 5999-4"><g id="Group_5997-7" data-name="Group 5997-7"><path id="Path_11214-13" data-name="Path 11214-13" d="M17.87,47.92a3.29,3.29,0,1,1-3.29,3.28h0A3.28,3.28,0,0,1,17.87,47.92Z" fill="#f1f0f0"/><path id="Path_11215-14" data-name="Path 11215-14" d="M17.87,57.78a3.29,3.29,0,1,1-3.29,3.28h0A3.28,3.28,0,0,1,17.87,57.78Z" fill="#f1f0f0"/></g><g id="Group_5998-7" data-name="Group 5998-7"><path id="Path_11214-14" data-name="Path 11214-14" d="M17.87,67.64a3.29,3.29,0,1,1-3.29,3.28h0A3.28,3.28,0,0,1,17.87,67.64Z" fill="#f1f0f0"/><path id="Path_11215-15" data-name="Path 11215-15" d="M17.87,77.5a3.29,3.29,0,1,1-3.29,3.28h0A3.28,3.28,0,0,1,17.87,77.5Z" fill="#f1f0f0"/></g></g><g id="Group_6000-4" data-name="Group 6000-4"><g id="Group_5997-8" data-name="Group 5997-8"><path id="Path_11214-15" data-name="Path 11214-15" d="M17.87,87.36a3.29,3.29,0,1,1-3.29,3.28h0A3.28,3.28,0,0,1,17.87,87.36Z" fill="#f1f0f0"/><path id="Path_11215-16" data-name="Path 11215-16" d="M17.87,97.22a3.29,3.29,0,1,1-3.29,3.28h0A3.28,3.28,0,0,1,17.87,97.22Z" fill="#f1f0f0"/></g><g id="Group_5998-8" data-name="Group 5998-8"><path id="Path_11214-16" data-name="Path 11214-16" d="M17.87,107.08a3.29,3.29,0,1,1-3.29,3.28h0A3.28,3.28,0,0,1,17.87,107.08Z" fill="#f1f0f0"/><path id="Path_11215-17" data-name="Path 11215-17" d="M17.87,116.94a3.29,3.29,0,1,1-3.29,3.28h0A3.28,3.28,0,0,1,17.87,116.94Z" fill="#f1f0f0"/></g></g></g></g><g id="Group_6006" data-name="Group 6006"><g id="Group_6001-3" data-name="Group 6001-3"><g id="Group_5999-5" data-name="Group 5999-5"><g id="Group_5997-9" data-name="Group 5997-9"><path id="Path_11214-17" data-name="Path 11214-17" d="M27.73,47.92a3.29,3.29,0,1,1-3.29,3.28h0A3.28,3.28,0,0,1,27.73,47.92Z" fill="#f1f0f0"/><path id="Path_11215-18" data-name="Path 11215-18" d="M27.73,57.78a3.29,3.29,0,1,1-3.29,3.28h0A3.28,3.28,0,0,1,27.73,57.78Z" fill="#f1f0f0"/></g><g id="Group_5998-9" data-name="Group 5998-9"><path id="Path_11214-18" data-name="Path 11214-18" d="M27.73,67.64a3.29,3.29,0,1,1-3.29,3.28h0A3.28,3.28,0,0,1,27.73,67.64Z" fill="#f1f0f0"/><path id="Path_11215-19" data-name="Path 11215-19" d="M27.73,77.5a3.29,3.29,0,1,1-3.29,3.28h0A3.28,3.28,0,0,1,27.73,77.5Z" fill="#f1f0f0"/></g></g><g id="Group_6000-5" data-name="Group 6000-5"><g id="Group_5997-10" data-name="Group 5997-10"><path id="Path_11214-19" data-name="Path 11214-19" d="M27.73,87.36a3.29,3.29,0,1,1-3.29,3.28h0A3.28,3.28,0,0,1,27.73,87.36Z" fill="#f1f0f0"/><path id="Path_11215-20" data-name="Path 11215-20" d="M27.73,97.22a3.29,3.29,0,1,1-3.29,3.28h0A3.28,3.28,0,0,1,27.73,97.22Z" fill="#f1f0f0"/></g><g id="Group_5998-10" data-name="Group 5998-10"><path id="Path_11214-20" data-name="Path 11214-20" d="M27.73,107.08a3.29,3.29,0,1,1-3.29,3.28h0A3.28,3.28,0,0,1,27.73,107.08Z" fill="#f1f0f0"/><path id="Path_11215-21" data-name="Path 11215-21" d="M27.73,116.94a3.29,3.29,0,1,1-3.29,3.28h0A3.28,3.28,0,0,1,27.73,116.94Z" fill="#f1f0f0"/></g></g></g><g id="Group_6002-3" data-name="Group 6002-3"><g id="Group_5999-6" data-name="Group 5999-6"><g id="Group_5997-11" data-name="Group 5997-11"><path id="Path_11215-22" data-name="Path 11215-22" d="M37.59,57.78a3.29,3.29,0,1,1-3.29,3.28h0A3.28,3.28,0,0,1,37.59,57.78Z" fill="#f1f0f0"/></g><g id="Group_5998-11" data-name="Group 5998-11"><path id="Path_11214-21" data-name="Path 11214-21" d="M37.59,67.64a3.29,3.29,0,1,1-3.29,3.28h0A3.28,3.28,0,0,1,37.59,67.64Z" fill="#f1f0f0"/><path id="Path_11215-23" data-name="Path 11215-23" d="M37.59,77.5a3.29,3.29,0,1,1-3.29,3.28h0A3.28,3.28,0,0,1,37.59,77.5Z" fill="#f1f0f0"/></g></g><g id="Group_6000-6" data-name="Group 6000-6"><g id="Group_5997-12" data-name="Group 5997-12"><path id="Path_11214-22" data-name="Path 11214-22" d="M37.59,87.36a3.29,3.29,0,1,1-3.29,3.28h0A3.28,3.28,0,0,1,37.59,87.36Z" fill="#f1f0f0"/><path id="Path_11215-24" data-name="Path 11215-24" d="M37.59,97.22a3.29,3.29,0,1,1-3.29,3.28h0A3.28,3.28,0,0,1,37.59,97.22Z" fill="#f1f0f0"/></g><g id="Group_5998-12" data-name="Group 5998-12"><path id="Path_11214-23" data-name="Path 11214-23" d="M37.59,107.08a3.29,3.29,0,1,1-3.29,3.28h0A3.28,3.28,0,0,1,37.59,107.08Z" fill="#f1f0f0"/><path id="Path_11215-25" data-name="Path 11215-25" d="M37.59,116.94a3.29,3.29,0,1,1-3.29,3.28h0A3.28,3.28,0,0,1,37.59,116.94Z" fill="#f1f0f0"/></g></g></g></g></g><g id="Group_6017" data-name="Group 6017"><g id="Group_6013" data-name="Group 6013"><g id="Group_6008" data-name="Group 6008"><g id="Group_6004-2" data-name="Group 6004-2"><g id="Group_6001-4" data-name="Group 6001-4"><g id="Group_5999-7" data-name="Group 5999-7"><g id="Group_5997-13" data-name="Group 5997-13"><path id="Path_11215-26" data-name="Path 11215-26" d="M46,59.15a2,2,0,1,1-2,2h0A2,2,0,0,1,46,59.15Z" fill="#f1f0f0"/></g><g id="Group_5998-13" data-name="Group 5998-13"><path id="Path_11214-24" data-name="Path 11214-24" d="M46,68.78a2,2,0,1,1-2,2h0A2,2,0,0,1,46,68.78Z" fill="#f1f0f0"/><path id="Path_11215-27" data-name="Path 11215-27" d="M46,78.89a2,2,0,1,1-2,2h0A2,2,0,0,1,46,78.89Z" fill="#f1f0f0"/></g></g><g id="Group_6000-7" data-name="Group 6000-7"><g id="Group_5997-14" data-name="Group 5997-14"><path id="Path_11214-25" data-name="Path 11214-25" d="M46,88.52a2,2,0,1,1-2,2h0A2,2,0,0,1,46,88.52Z" fill="#f1f0f0"/><path id="Path_11215-28" data-name="Path 11215-28" d="M46,98.63a2,2,0,1,1-2,2h0A2,2,0,0,1,46,98.63Z" fill="#f1f0f0"/></g><g id="Group_5998-14" data-name="Group 5998-14"><path id="Path_11214-26" data-name="Path 11214-26" d="M46,109.4a2,2,0,1,1-2,2h0A2,2,0,0,1,46,109.4Z" fill="#f1f0f0"/><path id="Path_11215-29" data-name="Path 11215-29" d="M46,118.36a2,2,0,1,1-2,2h0A2,2,0,0,1,46,118.36Z" fill="#f1f0f0"/></g></g></g></g></g></g><g id="Group_6014" data-name="Group 6014"><g id="Group_6008-2" data-name="Group 6008-2"><g id="Group_6004-3" data-name="Group 6004-3"><g id="Group_6001-5" data-name="Group 6001-5"><g id="Group_5999-8" data-name="Group 5999-8"><g id="Group_5997-15" data-name="Group 5997-15"><path id="Path_11215-30" data-name="Path 11215-30" d="M53.27,59.15a2,2,0,1,1-2,2h0A2,2,0,0,1,53.27,59.15Z" fill="#f1f0f0"/></g><g id="Group_5998-15" data-name="Group 5998-15"><path id="Path_11214-27" data-name="Path 11214-27" d="M53.27,68.78a2,2,0,1,1-2,2h0A2,2,0,0,1,53.27,68.78Z" fill="#f1f0f0"/><path id="Path_11215-31" data-name="Path 11215-31" d="M53.27,78.89a2,2,0,1,1-2,2h0A2,2,0,0,1,53.27,78.89Z" fill="#f1f0f0"/></g></g><g id="Group_6000-8" data-name="Group 6000-8"><g id="Group_5997-16" data-name="Group 5997-16"><path id="Path_11214-28" data-name="Path 11214-28" d="M53.27,88.52a2,2,0,1,1-2,2h0A2,2,0,0,1,53.27,88.52Z" fill="#f1f0f0"/><path id="Path_11215-32" data-name="Path 11215-32" d="M53.27,98.63a2,2,0,1,1-2,2h0A2,2,0,0,1,53.27,98.63Z" fill="#f1f0f0"/></g><g id="Group_5998-16" data-name="Group 5998-16"><path id="Path_11214-29" data-name="Path 11214-29" d="M53.27,109.4a2,2,0,1,1-2,2h0A2,2,0,0,1,53.27,109.4Z" fill="#f1f0f0"/><path id="Path_11215-33" data-name="Path 11215-33" d="M53.27,118.36a2,2,0,1,1-2,2h0A2,2,0,0,1,53.27,118.36Z" fill="#f1f0f0"/></g></g></g></g></g></g><g id="Group_6015" data-name="Group 6015"><g id="Group_6008-3" data-name="Group 6008-3"><g id="Group_6004-4" data-name="Group 6004-4"><g id="Group_6001-6" data-name="Group 6001-6"><g id="Group_5999-9" data-name="Group 5999-9"><g id="Group_5998-17" data-name="Group 5998-17"><path id="Path_11215-34" data-name="Path 11215-34" d="M60.5,78.89a2,2,0,1,1-2,2h0A2,2,0,0,1,60.5,78.89Z" fill="#f1f0f0"/></g></g><g id="Group_6024" data-name="Group 6024"><g id="Group_5998-18" data-name="Group 5998-18"><path id="Path_11215-35" data-name="Path 11215-35" d="M67.72,78.89a2,2,0,1,1-2,2h0A2,2,0,0,1,67.72,78.89Z" fill="#f1f0f0"/></g></g><g id="Group_6000-9" data-name="Group 6000-9"><g id="Group_5997-17" data-name="Group 5997-17"><path id="Path_11214-30" data-name="Path 11214-30" d="M60.5,88.51a2,2,0,1,1-2,2h0A2,2,0,0,1,60.5,88.51Z" fill="#f1f0f0"/><path id="Path_11215-36" data-name="Path 11215-36" d="M60.5,98.63a2,2,0,1,1-2,2h0A2,2,0,0,1,60.5,98.63Z" fill="#f1f0f0"/></g><g id="Group_5998-19" data-name="Group 5998-19"><path id="Path_11214-31" data-name="Path 11214-31" d="M60.5,109.39a2,2,0,1,1-2,2h0A2,2,0,0,1,60.5,109.39Z" fill="#f1f0f0"/><path id="Path_11215-37" data-name="Path 11215-37" d="M60.5,118.36a2,2,0,1,1-2,2h0A2,2,0,0,1,60.5,118.36Z" fill="#f1f0f0"/></g></g></g></g></g></g><g id="Group_6016" data-name="Group 6016"><g id="Group_6008-4" data-name="Group 6008-4"><g id="Group_6004-5" data-name="Group 6004-5"><g id="Group_6001-7" data-name="Group 6001-7"><g id="Group_6000-10" data-name="Group 6000-10"><g id="Group_5997-18" data-name="Group 5997-18"><path id="Path_11214-32" data-name="Path 11214-32" d="M67.73,88.52a2,2,0,1,1-2,2h0A2,2,0,0,1,67.73,88.52Z" fill="#f1f0f0"/><path id="Path_11215-38" data-name="Path 11215-38" d="M67.73,98.63a2,2,0,1,1-2,2h0A2,2,0,0,1,67.73,98.63Z" fill="#f1f0f0"/></g><g id="Group_5998-20" data-name="Group 5998-20"><path id="Path_11214-33" data-name="Path 11214-33" d="M67.73,109.4a2,2,0,1,1-2,2h0A2,2,0,0,1,67.73,109.4Z" fill="#f1f0f0"/><path id="Path_11215-39" data-name="Path 11215-39" d="M67.73,118.36a2,2,0,1,1-2,2h0A2,2,0,0,1,67.73,118.36Z" fill="#f1f0f0"/></g></g></g></g></g></g></g><g id="Group_6022" data-name="Group 6022"><g id="Group_6018" data-name="Group 6018"><g id="Group_6013-2" data-name="Group 6013-2"><g id="Group_6008-5" data-name="Group 6008-5"><g id="Group_6004-6" data-name="Group 6004-6"><g id="Group_6001-8" data-name="Group 6001-8"><g id="Group_6000-11" data-name="Group 6000-11"><g id="Group_5997-19" data-name="Group 5997-19"><path id="Path_11215-40" data-name="Path 11215-40" d="M75,99.67a1,1,0,1,1-1,1,1,1,0,0,1,1-1Z" fill="#f1f0f0"/></g><g id="Group_5998-21" data-name="Group 5998-21"><path id="Path_11214-34" data-name="Path 11214-34" d="M75,110.54a1,1,0,1,1-1,1,1,1,0,0,1,1-1Z" fill="#f1f0f0"/><path id="Path_11215-41" data-name="Path 11215-41" d="M75,119.16a1,1,0,1,1-1,1,1,1,0,0,1,1-1Z" fill="#f1f0f0"/></g></g></g></g></g></g></g><g id="Group_6019" data-name="Group 6019"><g id="Group_6013-3" data-name="Group 6013-3"><g id="Group_6008-6" data-name="Group 6008-6"><g id="Group_6004-7" data-name="Group 6004-7"><g id="Group_6001-9" data-name="Group 6001-9"><g id="Group_6000-12" data-name="Group 6000-12"><g id="Group_5998-22" data-name="Group 5998-22"><path id="Path_11214-35" data-name="Path 11214-35" d="M81.53,110.54a1,1,0,1,1-1,1,1,1,0,0,1,1-1Z" fill="#f1f0f0"/><path id="Path_11215-42" data-name="Path 11215-42" d="M81.53,119.16a1,1,0,1,1-1,1,1,1,0,0,1,1-1Z" fill="#f1f0f0"/></g></g></g></g></g></g></g><g id="Group_6020" data-name="Group 6020"><g id="Group_6013-4" data-name="Group 6013-4"><g id="Group_6008-7" data-name="Group 6008-7"><g id="Group_6004-8" data-name="Group 6004-8"><g id="Group_6001-10" data-name="Group 6001-10"><g id="Group_6000-13" data-name="Group 6000-13"><g id="Group_5998-23" data-name="Group 5998-23"><path id="Path_11214-36" data-name="Path 11214-36" d="M88.1,110.54a1.05,1.05,0,1,1-1,1,1,1,0,0,1,1-1Z" fill="#f1f0f0"/><path id="Path_11215-43" data-name="Path 11215-43" d="M88.1,119.16a1,1,0,1,1-1,1,1,1,0,0,1,1-1Z" fill="#f1f0f0"/></g></g></g></g></g></g></g><g id="Group_6021" data-name="Group 6021"><g id="Group_6013-5" data-name="Group 6013-5"><g id="Group_6008-8" data-name="Group 6008-8"><g id="Group_6004-9" data-name="Group 6004-9"><g id="Group_6001-11" data-name="Group 6001-11"><g id="Group_6000-14" data-name="Group 6000-14"><g id="Group_5998-24" data-name="Group 5998-24"><path id="Path_11215-44" data-name="Path 11215-44" d="M94.68,119.16a1,1,0,1,1-1.05,1,1,1,0,0,1,1.05-1Z" fill="#f1f0f0"/></g></g></g></g></g></g></g></g></g><g id="Group_6297" data-name="Group 6297"><g id="Group_6028" data-name="Group 6028"><path id="Path_11203" data-name="Path 11203" d="M183,91H396v17H183Z" fill="#f1f0f0"/></g><rect id="Rectangle_4663" data-name="Rectangle 4663" x="146" y="14" width="185" height="16" rx="1" fill="#f1f0f0"/><rect id="Rectangle_4664" data-name="Rectangle 4664" x="146" y="39" width="97" height="16" rx="1" fill="#f1f0f0"/><rect id="Rectangle_4665" data-name="Rectangle 4665" x="146" y="60" width="97" height="16" rx="1" fill="#f1f0f0"/></g></g></g><g id="Group_6283" data-name="Group 6283"><g id="Group_6279" data-name="Group 6279"><path id="Path_11531" data-name="Path 11531" d="M30.3,59.65l32.6-6.56L99,58.47,70.56,65.55Z" fill="#ededed"/><path id="Path_11532" data-name="Path 11532" d="M62.89,53.09l.93,42.19,31.39,5.36L99,58.47Z" fill="#ededed"/><path id="Path_11533" data-name="Path 11533" d="M70.56,109.93,35,101.68l-4.72-42,40.26,5.9Z" fill="#ededed"/><path id="Path_11534" data-name="Path 11534" d="M70.56,65.55,99,58.47l-3.78,42.17-24.65,9.29Z" fill="#ededed"/><path id="Path_11535" data-name="Path 11535" d="M80.46,106.2l6.05-2.28,4.8-43.58-6.24,1.6Z" fill="#ededed"/><path id="Path_11536" data-name="Path 11536" d="M46.17,104.27l-4.57-43,7.72,1.15,3.18,43.29Z" fill="#ededed"/></g><g id="Group_6282" data-name="Group 6282"><path id="Path_11538" data-name="Path 11538" d="M93,44.65,66.42,54.82l.52,9.57L92.6,53.64Z" fill="#ededed"/><path id="Path_11539" data-name="Path 11539" d="M93,44.65,65.14,42.81l-9.33-.62L20.56,53.27l45.86,1.55Z" fill="#ededed"/><path id="Path_11540" data-name="Path 11540" d="M22.61,61.76l44.33,2.63-.52-9.57L20.56,53.27Z" fill="#ededed"/><path id="Path_11541" data-name="Path 11541" d="M31.58,53.62l9.26.42,2,8.92-8.2-.48Z" fill="#ededed"/><path id="Path_11542" data-name="Path 11542" d="M31.58,53.62,65.14,42.8l7.77.52L40.84,54Z" fill="#ededed"/><path id="Path_11543" data-name="Path 11543" d="M79.49,49.93,79,59.35,84.69,57l.62-9.35Z" fill="#ededed"/><path id="Path_11544" data-name="Path 11544" d="M85.31,47.6,44.37,45.79l-6.61,2.07,41.73,2.08Z" fill="#ededed"/><g id="Group_6280" data-name="Group 6280"><path id="Path_11545" data-name="Path 11545" d="M30.74,35.07s10.39,12,23,12.48a10.3,10.3,0,0,0,4.24-1.17L39.81,34.63h0a21.11,21.11,0,0,1,5.7-10.29h0a1.53,1.53,0,0,0,0-2.17,1.55,1.55,0,0,0-1.66-.35l-5.19,2.06-5.33,5.19Z" fill="#ededed"/><path id="Path_11546" data-name="Path 11546" d="M56.61,47.24,46.41,28.91a1.39,1.39,0,0,0-1-.7,15.42,15.42,0,0,0-7.8,1,14.12,14.12,0,0,0-6.85,5.82l2.6-6a13.71,13.71,0,0,1,3.17-4.51h0a17.58,17.58,0,0,1,9-4.56l3.05-.54a2.59,2.59,0,0,1,2.91,1.75l7.82,24.27Z" fill="#ededed"/></g><g id="Group_6281" data-name="Group 6281"><path id="Path_11547" data-name="Path 11547" d="M82.1,29.61s-7.63,14-19.81,17a10.49,10.49,0,0,1-4.39-.25l15.24-15.3h0a21,21,0,0,0-7.73-8.86h0a1.54,1.54,0,0,1,1.09-2.81l5.5.92,6.3,3.95Z" fill="#ededed"/><path id="Path_11548" data-name="Path 11548" d="M59.37,47l6.12-20.07a1.43,1.43,0,0,1,.85-.9,15.48,15.48,0,0,1,7.84-.62,14.08,14.08,0,0,1,7.92,4.25L78.3,24.3a13.81,13.81,0,0,0-4-3.76h0A17.7,17.7,0,0,0,64.46,18l-3.1.11a2.59,2.59,0,0,0-2.48,2.32L56.33,45.79Z" fill="#ededed"/></g></g></g></g></g></g></svg>