<svg xmlns="http://www.w3.org/2000/svg" viewBox="0 0 167.77 181.48"><g id="Layer_2" data-name="Layer 2"><g id="Layer_1-2" data-name="Layer 1"><g id="Group_10175" data-name="Group 10175"><g id="Group_10170" data-name="Group 10170"><g id="clipboard"><g id="Group_10168" data-name="Group 10168"><path id="Path_17580" data-name="Path 17580" d="M127.89,38.42V153.64a12.07,12.07,0,0,1-12.07,12.07H16.89A12.06,12.06,0,0,1,4.83,153.64h0V38.42A12.06,12.06,0,0,1,16.89,26.36H36.6V40.43H95.91V26.36h19.91a12.07,12.07,0,0,1,12.07,12.06Z" style="fill:#d5e1f3"/><path id="Path_17581" data-name="Path 17581" d="M95.92,26.36V40.44H36.6V15.3H51.28A15.26,15.26,0,0,1,66.16,3.24,15.08,15.08,0,0,1,81,15.3H95.92Z" style="fill:#40beac"/></g><g id="Group_10169" data-name="Group 10169"><path id="Path_17582" data-name="Path 17582" d="M115.82,22.14H100.54V15.3c0-2.21-2.41-3.22-4.62-3.22H84.06A18.1,18.1,0,0,0,66.15,0,18.29,18.29,0,0,0,48.26,12.08H36.6c-2.21,0-4.43,1-4.43,3.22v6.84H16.89A17.09,17.09,0,0,0,0,38.42V153.64c0,8.85,8,15.28,16.89,15.28h98.93c8.85,0,16.89-6.43,16.89-15.28V38.42A17.08,17.08,0,0,0,115.82,22.14Zm-75.6-2H51.28a4.23,4.23,0,0,0,3.82-3.62,11.66,11.66,0,0,1,11.05-9A11.45,11.45,0,0,1,77,16.51a4.44,4.44,0,0,0,4,3.62H92.5V36.21H40.22Zm84.45,133.51c0,4.43-4.42,7.24-8.85,7.24H16.89c-4.42,0-8.85-2.81-8.85-7.24V38.42a9,9,0,0,1,8.85-8.24H32.17V40.44a4.24,4.24,0,0,0,4.43,3.82H95.92a4.43,4.43,0,0,0,4.62-3.82V30.18h15.28a9,9,0,0,1,8.85,8.24V153.64Z" style="fill:#163962"/><path id="Path_17583" data-name="Path 17583" d="M32.37,111.62a3.62,3.62,0,0,1-2.81-1.21L21.31,102a4.24,4.24,0,0,1,0-5.83,4,4,0,0,1,5.63.2L32.37,102,45.24,89.7a4,4,0,0,1,5.63.2,3.82,3.82,0,0,1,.24,5.4h0a2.5,2.5,0,0,1-.23.23L35.19,110.41A4,4,0,0,1,32.37,111.62Z" style="fill:#163962"/><path id="Path_17584" data-name="Path 17584" d="M108.58,106.59H62.33a4,4,0,0,1,0-8h46.25a4,4,0,0,1,0,8Z" style="fill:#163962"/><path id="Path_17585" data-name="Path 17585" d="M32.37,79.44a3.58,3.58,0,0,1-2.81-1.2l-8.25-8.45a4.24,4.24,0,0,1,0-5.83,4,4,0,0,1,5.63.2l5.43,5.63L45.24,57.53a4,4,0,0,1,5.63.2,3.81,3.81,0,0,1,.24,5.39h0a2.5,2.5,0,0,1-.23.23L35.19,78.24A4,4,0,0,1,32.37,79.44Z" style="fill:#163962"/><path id="Path_17586" data-name="Path 17586" d="M108.58,74.42H62.33a4,4,0,0,1,0-8h46.25a4,4,0,0,1,0,8Z" style="fill:#163962"/><path id="Path_17587" data-name="Path 17587" d="M32.37,143.79a3.62,3.62,0,0,1-2.81-1.21l-8.25-8.44a4.24,4.24,0,0,1,0-5.83,4,4,0,0,1,5.63.2l5.43,5.63,12.87-12.27a4,4,0,0,1,5.63.2,3.82,3.82,0,0,1,.24,5.4h0a2.5,2.5,0,0,1-.23.23L35.19,142.58A4,4,0,0,1,32.37,143.79Z" style="fill:#163962"/><path id="Path_17588" data-name="Path 17588" d="M108.58,138.76H62.33a4,4,0,0,1-.12-8h46.37a4,4,0,0,1,0,8Z" style="fill:#163962"/></g></g></g><g id="cancel"><circle id="Ellipse_1698" data-name="Ellipse 1698" cx="132.71" cy="146.41" r="35.06" style="fill:#e14c4b"/><path id="Path_17589" data-name="Path 17589" d="M167.77,146.41a35.15,35.15,0,0,1-35.06,35.06,34.51,34.51,0,0,1-27.39-13.14A34.63,34.63,0,0,0,127.23,176a35.17,35.17,0,0,0,35.06-35.06A34.56,34.56,0,0,0,154.62,119,34.49,34.49,0,0,1,167.77,146.41Z" style="fill:#d1403e"/><path id="Path_17590" data-name="Path 17590" d="M148.71,162.41a3.45,3.45,0,0,1-4.82,0l-11.18-11.18-11.17,11.18a3.41,3.41,0,0,1-4.82-4.82l11.18-11.18-11.18-11.17a3.41,3.41,0,0,1,4.82-4.82l11.17,11.18,11.18-11.18a3.41,3.41,0,0,1,4.82,4.82l-11.18,11.18,11.18,11.17A3.45,3.45,0,0,1,148.71,162.41Z" style="fill:#fff"/></g></g></g></g></svg>