<svg xmlns="http://www.w3.org/2000/svg" viewBox="0 0 132.71 168.92"><g id="Layer_2" data-name="Layer 2"><g id="Layer_1-2" data-name="Layer 1"><g id="Group_10178" data-name="Group 10178"><g id="Group_10177" data-name="Group 10177"><g id="Group_10170-2" data-name="Group 10170-2"><g id="clipboard-2"><g id="Group_10168-2" data-name="Group 10168-2"><path id="Path_17580-2" data-name="Path 17580-2" d="M127.89,38.42V153.64a12.07,12.07,0,0,1-12.07,12.07H16.89A12.06,12.06,0,0,1,4.83,153.64h0V38.42A12.06,12.06,0,0,1,16.89,26.36H36.6V40.43H95.91V26.36h19.91a12.07,12.07,0,0,1,12.07,12.06Z" style="fill:#d5e1f3"/><path id="Path_17581-2" data-name="Path 17581-2" d="M95.92,26.36V40.44H36.6V15.3H51.28A15.26,15.26,0,0,1,66.16,3.24,15.08,15.08,0,0,1,81,15.3H95.92Z" style="fill:#40beac"/></g><g id="Group_10169-2" data-name="Group 10169-2"><path id="Path_17582-2" data-name="Path 17582-2" d="M115.82,22.14H100.54V15.3c0-2.21-2.41-3.22-4.62-3.22H84.06A18.1,18.1,0,0,0,66.15,0,18.29,18.29,0,0,0,48.26,12.08H36.6c-2.21,0-4.43,1-4.43,3.22v6.84H16.89A17.09,17.09,0,0,0,0,38.42V153.64c0,8.85,8,15.28,16.89,15.28h98.93c8.85,0,16.89-6.43,16.89-15.28V38.42A17.08,17.08,0,0,0,115.82,22.14Zm-75.6-2H51.28a4.23,4.23,0,0,0,3.82-3.62,11.66,11.66,0,0,1,11.05-9A11.45,11.45,0,0,1,77,16.51a4.44,4.44,0,0,0,4,3.62H92.5V36.21H40.22Zm84.45,133.51c0,4.43-4.42,7.24-8.85,7.24H16.89c-4.42,0-8.85-2.81-8.85-7.24V38.42a9,9,0,0,1,8.85-8.24H32.17V40.44a4.24,4.24,0,0,0,4.43,3.82H95.92a4.43,4.43,0,0,0,4.62-3.82V30.18h15.28a9,9,0,0,1,8.85,8.24V153.64Z" style="fill:#163962"/></g></g></g></g><g id="cancel_2_2" data-name="cancel 2 2"><circle id="Ellipse_1698-2" data-name="Ellipse 1698-2" cx="66.36" cy="97.3" r="25.44" style="fill:#e14c4b"/><path id="Path_17589-2" data-name="Path 17589-2" d="M91.79,97.3a25.51,25.51,0,0,1-25.43,25.44,25.06,25.06,0,0,1-19.88-9.54,25.13,25.13,0,0,0,15.9,5.57A25.52,25.52,0,0,0,87.82,93.33a25.05,25.05,0,0,0-5.57-15.9A25,25,0,0,1,91.79,97.3Z" style="fill:#d1403e"/><path id="Path_17590-2" data-name="Path 17590-2" d="M78,108.91a2.51,2.51,0,0,1-3.5,0l-8.11-8.11-8.1,8.11a2.47,2.47,0,0,1-3.5-3.5l8.1-8.11-8.1-8.11a2.47,2.47,0,0,1,3.5-3.5l8.1,8.11,8.11-8.11a2.47,2.47,0,0,1,3.5,3.5L69.85,97.3,78,105.41A2.49,2.49,0,0,1,78,108.91Z" style="fill:#fff"/></g></g></g></g></svg>