<svg xmlns="http://www.w3.org/2000/svg" viewBox="0 0 248.82 139.34"><g id="Layer_2" data-name="Layer 2"><g id="Layer_1-2" data-name="Layer 1"><g id="Group_10180" data-name="Group 10180"><ellipse id="Ellipse_1699" data-name="Ellipse 1699" cx="124.41" cy="132.02" rx="124.41" ry="7.32" style="fill:#c7c7c6"/><g id="Group_10179" data-name="Group 10179"><g id="Group_10138" data-name="Group 10138"><path id="Path_17501" data-name="Path 17501" d="M182.21,114.62h56.62c2.75,0,6.6-23.25,3.85-25.41s1.65-23.79-1.65-31.9-19.29-42.17-30.81-47S150.53,0,109.2,0,26.09,1.62,21.69,6,5.2,46.5,5.2,62.17V100c0,4.33,14.29,14.6,23.08,14.6Z" style="fill:#4281c3"/><path id="Path_17502" data-name="Path 17502" d="M29.93,81.64c8.25,0,4.4,8.65,10.45,8.65H243.27c1.46,5.11-1.94,24.33-4.44,24.33H28.28c-8.8,0-23.08-10.27-23.08-14.6V81.64Z" style="fill:#2972b9"/><path id="Path_17503" data-name="Path 17503" d="M237.48,82.18c3.9-2.67,2.6-10.81-1.95-14.06s-10.39-6.85-11,0S233.31,85,237.48,82.18Z" style="fill:#fdf164"/><path id="Path_17504" data-name="Path 17504" d="M216.11,53c9.71.17-5.32-31.53-16-34.06s-25.75-4.35-29.31-3.24c-1.75.54-2.61,34.78,0,35.32C179.79,52.85,211.47,52.9,216.11,53Z" style="fill:#4e5457"/><path id="Path_17505" data-name="Path 17505" d="M159.43,15.37a1.63,1.63,0,0,1,1.6,1.54C161.42,23.53,162.88,51,161,51c-2.2,0-44.35.36-46.18,0s-1.83-35.87,0-36C116.44,14.79,151.46,15,159.43,15.37Z" style="fill:#4e5457"/><path id="Path_17506" data-name="Path 17506" d="M104.62,15.37a1.63,1.63,0,0,1,1.6,1.54c.39,6.62,1.85,34.09-.08,34.09-2.2,0-44.34.36-46.18,0s-1.83-35.87,0-36S96.65,15,104.62,15.37Z" style="fill:#4e5457"/><path id="Path_17507" data-name="Path 17507" d="M50.46,15.49c2.93.19,3.48,34.39,1.28,35.67s-32.62-.2-34.45,0S25.35,16.93,28.65,16,50.46,15.49,50.46,15.49Z" style="fill:#4e5457"/><path id="Path_17508" data-name="Path 17508" d="M172.72,60.28h8.53a1.5,1.5,0,0,0,1.51-1.48h0a1.5,1.5,0,0,0-1.51-1.49h-8.53a1.5,1.5,0,0,0-1.51,1.49h0A1.5,1.5,0,0,0,172.72,60.28Z" style="fill:#e6e7e8"/><path id="Path_17509" data-name="Path 17509" d="M116.1,60.28h8.52a1.49,1.49,0,0,0,1.51-1.48h0a1.49,1.49,0,0,0-1.51-1.49H116.1a1.5,1.5,0,0,0-1.51,1.49h0A1.5,1.5,0,0,0,116.1,60.28Z" style="fill:#e6e7e8"/><path id="Path_17510" data-name="Path 17510" d="M5.2,73.45h7.33c4,0,3.3,15,0,15H5.2Z" style="fill:#eb2027"/><g id="Group_10138-2" data-name="Group 10138-2"><path id="Path_17511" data-name="Path 17511" d="M200.16,18.92c8.36,2,19.43,22,19.06,30.4l-29.95-32.5C193,17.4,196.81,18.13,200.16,18.92Z" style="fill:none"/><path id="Path_17512" data-name="Path 17512" d="M185.24,16.23l32.86,36.1a2.76,2.76,0,0,1-1.84.64L181.8,15.82C182.91,15.94,184.06,16.08,185.24,16.23Z" style="fill:none"/><path id="Path_17513" data-name="Path 17513" d="M198.86,52.75c-10.6-.23-23-.7-28-1.75-2-.41-2-20.5-1.06-30.19Z" style="fill:none"/><path id="Path_17514" data-name="Path 17514" d="M170.85,15.68a4.4,4.4,0,0,1,.49-.12l34.52,37.31-3.1,0L170.21,17.5C170.4,16.42,170.62,15.75,170.85,15.68Z" style="fill:none"/><path id="Path_17515" data-name="Path 17515" d="M181.8,15.82,216.26,53h-.15c-1.4,0-5.28,0-10.25-.11L171.34,15.56C173.25,15.19,177.15,15.33,181.8,15.82Z" style="fill:#fff"/><path id="Path_17516" data-name="Path 17516" d="M170.21,17.5l32.55,35.32-3.89-.07L169.8,20.81C169.92,19.49,170.06,18.36,170.21,17.5Z" style="fill:#fff"/><path id="Path_17517" data-name="Path 17517" d="M189.27,16.81l29.95,32.5a4.13,4.13,0,0,1-1.12,3L185.24,16.23C186.56,16.41,187.91,16.6,189.27,16.81Z" style="fill:#fff"/></g><g id="Group_10139" data-name="Group 10139"><path id="Path_17518" data-name="Path 17518" d="M114.15,16.68,146,51.1H143l-29.12-31.6C113.92,18.38,114,17.43,114.15,16.68Z" style="fill:none"/><path id="Path_17519" data-name="Path 17519" d="M139.13,51.13c-11.5,0-23.4.06-24.36-.13-1.26-.25-1.65-17.35-1.17-27.91Z" style="fill:none"/><path id="Path_17520" data-name="Path 17520" d="M125.77,14.91,158.64,51l-2.39,0L122.73,14.9Z" style="fill:none"/><path id="Path_17521" data-name="Path 17521" d="M159.43,15.37a1.63,1.63,0,0,1,1.6,1.54c.34,5.83,1.52,27.77.48,33L129.3,14.93C140.46,15,154.7,15.16,159.43,15.37Z" style="fill:none"/><path id="Path_17522" data-name="Path 17522" d="M114.77,15c.47,0,3.57-.06,8,0L156.25,51,146,51.1,114.15,16.68C114.33,15.61,114.54,15,114.77,15Z" style="fill:#fff"/><path id="Path_17523" data-name="Path 17523" d="M113.83,19.51,143,51.11l-3.82,0-25.53-28C113.67,21.78,113.74,20.57,113.83,19.51Z" style="fill:#fff"/><path id="Path_17524" data-name="Path 17524" d="M129.3,14.93l32.21,35c-.14.72-.33,1.12-.56,1.12l-2.31,0-32.86-36.1Z" style="fill:#fff"/></g><g id="Group_10140" data-name="Group 10140"><path id="Path_17525" data-name="Path 17525" d="M77.43,15,107,47.41a21.12,21.12,0,0,1-.26,2.38L74.38,14.93Z" style="fill:none"/><path id="Path_17526" data-name="Path 17526" d="M90.72,51.1c-13,.07-29.62.13-30.75-.1-1.6-.31-1.8-27.3-.62-34.37Z" style="fill:none"/><path id="Path_17527" data-name="Path 17527" d="M104.63,15.37a1.65,1.65,0,0,1,1.6,1.54c.25,4.37,1,17.8.88,26.44L81,15C90.63,15.05,100.78,15.2,104.63,15.37Z" style="fill:none"/><path id="Path_17528" data-name="Path 17528" d="M64.13,14.9,97.58,51.06l-3,0L61.22,14.92Z" style="fill:none"/><path id="Path_17529" data-name="Path 17529" d="M74.38,14.93l32.34,34.86c-.14.78-.33,1.21-.57,1.21l-8.57.06L64.13,14.9Z" style="fill:#fff"/><path id="Path_17530" data-name="Path 17530" d="M60,15l1.25,0L94.54,51.08l-3.82,0L59.35,16.64C59.53,15.59,59.73,15,60,15Z" style="fill:#fff"/><path id="Path_17531" data-name="Path 17531" d="M81,15l26.14,28.37c0,1.53,0,2.91-.13,4.06L77.43,15Z" style="fill:#fff"/></g><g id="Group_10141" data-name="Group 10141"><path id="Path_17532" data-name="Path 17532" d="M22.57,29.23,43.35,51.69l-3.07,0L21.8,31.61C22.05,30.81,22.31,30,22.57,29.23Z" style="fill:none"/><path id="Path_17533" data-name="Path 17533" d="M28.65,16c3.3-.9,21.81-.54,21.81-.54,2.12.14,3,18.17,2.47,28.55L27.81,16.78A2,2,0,0,1,28.65,16Z" style="fill:none"/><path id="Path_17534" data-name="Path 17534" d="M36.39,51.61c-8.74-.17-18.11-.56-19.1-.45s1-8.1,3.59-16.6Z" style="fill:none"/><path id="Path_17535" data-name="Path 17535" d="M26.45,19.14,52.63,47.9a17.51,17.51,0,0,1-.39,2.26L25.48,21.32C25.82,20.52,26.14,19.79,26.45,19.14Z" style="fill:none"/><path id="Path_17536" data-name="Path 17536" d="M25.48,21.32,52.24,50.16a1.8,1.8,0,0,1-.5,1c-.68.4-4,.53-8.39.53L22.57,29.23C23.55,26.3,24.55,23.55,25.48,21.32Z" style="fill:#fff"/><path id="Path_17537" data-name="Path 17537" d="M21.8,31.61,40.27,51.67l-3.88-.06-15.51-17C21.18,33.58,21.48,32.6,21.8,31.61Z" style="fill:#fff"/><path id="Path_17538" data-name="Path 17538" d="M27.81,16.78,52.93,44c-.07,1.47-.17,2.77-.3,3.86L26.46,19.14A14.12,14.12,0,0,1,27.81,16.78Z" style="fill:#fff"/></g><path id="Path_17539" data-name="Path 17539" d="M165.91,114.62a28.09,28.09,0,0,1-1.25-8.29,29.14,29.14,0,0,1,58.27,0,28.08,28.08,0,0,1-1.24,8.29Z" style="fill:#016862"/><g id="Group_10142" data-name="Group 10142"><ellipse id="Ellipse_1694" data-name="Ellipse 1694" cx="193.8" cy="106.33" rx="26.57" ry="26.13" style="fill:#262626"/><path id="Path_17543" data-name="Path 17543" d="M210,103.75a16.38,16.38,0,0,0-18.82-13.34,16.16,16.16,0,0,0-13.58,18.39l0,.11a16.36,16.36,0,0,0,18.81,13.34A16.16,16.16,0,0,0,210,103.86Z" style="fill:#d0d2d3"/><path id="Path_17540" data-name="Path 17540" d="M185.64,106.33a8.16,8.16,0,1,0,8.29-8h-.13a8.09,8.09,0,0,0-8.16,8Z" style="fill:#f2f1f2"/></g><path id="Path_17541" data-name="Path 17541" d="M64.61,77.67a28.91,28.91,0,0,1,29.14,28.66,28.42,28.42,0,0,1-1.24,8.29H36.72a28.42,28.42,0,0,1-1.24-8.29A28.9,28.9,0,0,1,64.61,77.67Z" style="fill:#016862"/><g id="Group_10143" data-name="Group 10143"><ellipse id="Ellipse_1696" data-name="Ellipse 1696" cx="64.61" cy="106.33" rx="26.57" ry="26.13" style="fill:#262626"/><path id="Path_17544" data-name="Path 17544" d="M80.8,103.73A16.38,16.38,0,0,0,62,90.41a16.16,16.16,0,0,0-13.56,18.4l0,.11a16.36,16.36,0,0,0,18.82,13.33,16.17,16.17,0,0,0,13.57-18.4Z" style="fill:#d0d2d3"/><path id="Path_17542" data-name="Path 17542" d="M56.46,106.33a8.16,8.16,0,1,0,8.29-8h-.14A8.08,8.08,0,0,0,56.46,106.33Z" style="fill:#f2f1f2"/></g></g></g></g></g></g></svg>