<svg xmlns="http://www.w3.org/2000/svg" width="111.764" height="95.166" viewBox="0 0 111.764 95.166">
  <g id="Group_6928" data-name="Group 6928" transform="translate(-148.846 -100.733)">
    <g id="Group_3191" data-name="Group 3191" transform="translate(-127.61 4.719)">
      <path id="Path_3642" data-name="Path 3642" d="M52.821,0C81.9,0,105.471,13.7,105.471,30.593S81.9,61.187,52.821,61.187C36.335,61.187,32.489,53.23,23,46.58,16.316,41.907,2.351,40.041.172,30.593-4.861,8.775,23.744,0,52.821,0Z" transform="translate(282.75 122)" fill="#f5f5f5"/>
      <ellipse id="Ellipse_306" data-name="Ellipse 306" cx="13.518" cy="9.249" rx="13.518" ry="9.249" transform="matrix(0.951, 0.309, -0.309, 0.951, 282.173, 165.233)" fill="#f5f5f5"/>
    </g>
    <g id="Group_6928-2" data-name="Group 6928" transform="translate(-2653.033 1123.733)">
      <g id="notes_1_" data-name="notes (1)" transform="translate(2829 -1023)">
        <path id="Path_11170" data-name="Path 11170" d="M57.066,36.7v6.551L52.7,47.615H4.367L0,43.247V36.7A6.668,6.668,0,0,1,6.551,30H50.515A6.668,6.668,0,0,1,57.066,36.7Z" transform="translate(0 -25.633)" fill="#4d5a68"/>
        <path id="Path_11172" data-name="Path 11172" d="M57.066,121v50.223a6.668,6.668,0,0,1-6.551,6.7H6.551A6.668,6.668,0,0,1,0,171.223V121Z" transform="translate(0 -103.385)" fill="#ffca42"/>
        <path id="Path_11174" data-name="Path 11174" d="M62.184,13.247A2.182,2.182,0,0,1,60,11.064V2.184a2.184,2.184,0,1,1,4.367,0v8.88A2.182,2.182,0,0,1,62.184,13.247Z" transform="translate(-51.265)" fill="#cad4e4"/>
        <path id="Path_11175" data-name="Path 11175" d="M123.184,13.247A2.182,2.182,0,0,1,121,11.064V2.184a2.184,2.184,0,1,1,4.367,0v8.88A2.182,2.182,0,0,1,123.184,13.247Z" transform="translate(-103.385)" fill="#cad4e4"/>
        <path id="Path_11176" data-name="Path 11176" d="M185.367,2.184v8.88a2.184,2.184,0,1,1-4.367,0V2.184a2.184,2.184,0,1,1,4.367,0Z" transform="translate(-154.651)" fill="#cad4e4"/>
        <path id="Path_11177" data-name="Path 11177" d="M244.184,13.247A2.182,2.182,0,0,1,242,11.064V2.184a2.184,2.184,0,1,1,4.367,0v8.88A2.182,2.182,0,0,1,244.184,13.247Z" transform="translate(-206.771)" fill="#cad4e4"/>
        <path id="Path_11178" data-name="Path 11178" d="M304.184,13.247A2.182,2.182,0,0,1,302,11.064V2.184a2.184,2.184,0,1,1,4.367,0v8.88A2.182,2.182,0,0,1,304.184,13.247Z" transform="translate(-258.036)" fill="#cad4e4"/>
      </g>
      <path id="Path_11191" data-name="Path 11191" d="M2.329,0H41.343a2.329,2.329,0,0,1,0,4.658H2.329A2.329,2.329,0,0,1,2.329,0Z" transform="translate(2835.697 -997.961)" fill="#dd864d"/>
      <path id="Path_11192" data-name="Path 11192" d="M1.871,0H33.214a2.138,2.138,0,0,1,1.871,2.329,2.138,2.138,0,0,1-1.871,2.329H1.871A2.138,2.138,0,0,1,0,2.329,2.138,2.138,0,0,1,1.871,0Z" transform="translate(2835.697 -986.024)" fill="#dd864d"/>
      <path id="Path_11193" data-name="Path 11193" d="M2.329,0H41.343a2.329,2.329,0,0,1,0,4.658H2.329A2.329,2.329,0,0,1,2.329,0Z" transform="translate(2835.697 -974.087)" fill="#dd864d"/>
    </g>
  </g>
</svg>
