<svg xmlns="http://www.w3.org/2000/svg" viewBox="0 0 414.1 79.28"><g id="Layer_2" data-name="Layer 2"><g id="Layer_1-2" data-name="Layer 1"><g id="Group_8771" data-name="Group 8771"><g id="Group_8749" data-name="Group 8749"><g id="Group_5733" data-name="Group 5733"><g id="Group_3868" data-name="Group 3868"><rect id="Rectangle_331-2" data-name="Rectangle 331-2" y="0.18" width="414" height="79" fill="#fff"/></g></g></g><path id="Subtraction_1" data-name="Subtraction 1" d="M414.1,79.28,82,79.18l21-79L414,0Z" fill="#17abb9"/><g id="Group_8759" data-name="Group 8759" opacity="0.3"><rect id="Rectangle_4577" data-name="Rectangle 4577" x="362" y="52.18" width="12" height="12" fill="#fff"/><rect id="Rectangle_4587" data-name="Rectangle 4587" x="391" y="36.18" width="12" height="12" fill="#fff"/><rect id="Rectangle_4580" data-name="Rectangle 4580" x="402" y="67.18" width="12" height="12" fill="#fff"/><rect id="Rectangle_4581" data-name="Rectangle 4581" x="402" y="52.18" width="12" height="12" fill="#fff"/><rect id="Rectangle_4582" data-name="Rectangle 4582" x="369" y="67.18" width="12" height="12" fill="#fff" opacity="0.75" style="isolation:isolate"/><rect id="Rectangle_4579" data-name="Rectangle 4579" x="382" y="49.18" width="8" height="8" fill="#fff" opacity="0.8" style="isolation:isolate"/><rect id="Rectangle_4595" data-name="Rectangle 4595" x="331" y="54.18" width="8" height="8" fill="#fff" opacity="0.8" style="isolation:isolate"/><rect id="Rectangle_4588" data-name="Rectangle 4588" x="406" y="31.18" width="8" height="8" fill="#fff" opacity="0.8" style="isolation:isolate"/><rect id="Rectangle_4583" data-name="Rectangle 4583" x="341" y="71.18" width="8" height="8" fill="#fff" opacity="0.8" style="isolation:isolate"/><rect id="Rectangle_4591" data-name="Rectangle 4591" x="312" y="67.18" width="8" height="8" fill="#fff" opacity="0.8" style="isolation:isolate"/><rect id="Rectangle_4584" data-name="Rectangle 4584" x="406" y="46.18" width="8" height="8" fill="#fff" opacity="0.8" style="isolation:isolate"/><rect id="Rectangle_4585" data-name="Rectangle 4585" x="401" y="42.18" width="6" height="6" fill="#fff" opacity="0.3" style="isolation:isolate"/><rect id="Rectangle_4589" data-name="Rectangle 4589" x="379" y="42.18" width="6" height="6" fill="#fff" opacity="0.3" style="isolation:isolate"/><rect id="Rectangle_4602" data-name="Rectangle 4602" x="406" y="9.18" width="6" height="6" fill="#fff" opacity="0.3" style="isolation:isolate"/><rect id="Rectangle_4592" data-name="Rectangle 4592" x="408" y="22.18" width="6" height="6" fill="#fff" opacity="0.3" style="isolation:isolate"/><rect id="Rectangle_4586" data-name="Rectangle 4586" x="347" y="62.18" width="6" height="6" fill="#fff" opacity="0.3" style="isolation:isolate"/><rect id="Rectangle_4594" data-name="Rectangle 4594" x="298" y="73.18" width="6" height="6" fill="#fff" opacity="0.3" style="isolation:isolate"/><rect id="Rectangle_4603" data-name="Rectangle 4603" x="291" y="63.18" width="6" height="6" fill="#fff" opacity="0.3" style="isolation:isolate"/><rect id="Rectangle_4597" data-name="Rectangle 4597" x="285" y="75.18" width="4" height="4" fill="#fff" opacity="0.81" style="isolation:isolate"/><rect id="Rectangle_4604" data-name="Rectangle 4604" x="272" y="75.18" width="4" height="4" fill="#fff" opacity="0.81" style="isolation:isolate"/><rect id="Rectangle_4598" data-name="Rectangle 4598" x="335" y="65.18" width="4" height="4" fill="#fff" opacity="0.81" style="isolation:isolate"/><rect id="Rectangle_4599" data-name="Rectangle 4599" x="357" y="42.18" width="4" height="4" fill="#fff" opacity="0.81" style="isolation:isolate"/><rect id="Rectangle_4600" data-name="Rectangle 4600" x="386" y="31.18" width="4" height="4" fill="#fff" opacity="0.81" style="isolation:isolate"/><rect id="Rectangle_4601" data-name="Rectangle 4601" x="410" y="13.18" width="4" height="4" fill="#fff" opacity="0.81" style="isolation:isolate"/><rect id="Rectangle_4606" data-name="Rectangle 4606" x="401" y="26.18" width="4" height="4" fill="#fff" opacity="0.81" style="isolation:isolate"/><rect id="Rectangle_4605" data-name="Rectangle 4605" x="410" y="5.18" width="4" height="4" fill="#fff" opacity="0.81" style="isolation:isolate"/><rect id="Rectangle_4593" data-name="Rectangle 4593" x="346" y="50.18" width="6" height="6" fill="#fff" opacity="0.3" style="isolation:isolate"/><rect id="Rectangle_4596" data-name="Rectangle 4596" x="320" y="52.18" width="6" height="6" fill="#fff" opacity="0.3" style="isolation:isolate"/><rect id="Rectangle_4590" data-name="Rectangle 4590" x="329" y="73.18" width="6" height="6" fill="#fff" opacity="0.3" style="isolation:isolate"/><rect id="Rectangle_4578" data-name="Rectangle 4578" x="382" y="62.18" width="12" height="12" fill="#fff" opacity="0.57" style="isolation:isolate"/></g><g id="Group_8765" data-name="Group 8765"><g id="Group_8766" data-name="Group 8766"><rect id="Rectangle_5053" data-name="Rectangle 5053" x="85" y="46.18" width="10" height="3" fill="#fff"/><rect id="Rectangle_5056" data-name="Rectangle 5056" x="85" y="46.18" width="5" height="3" fill="#17abb9"/></g><g id="Group_8767" data-name="Group 8767"><rect id="Rectangle_5053-2" data-name="Rectangle 5053-2" x="81" y="62.18" width="10" height="3" fill="#fff"/><rect id="Rectangle_5056-2" data-name="Rectangle 5056-2" x="81" y="62.18" width="5" height="3" fill="#17abb9"/></g><g id="Group_8769" data-name="Group 8769"><rect id="Rectangle_5053-3" data-name="Rectangle 5053-3" x="94" y="14.18" width="10" height="3" fill="#fff"/><rect id="Rectangle_5056-3" data-name="Rectangle 5056-3" x="94" y="14.18" width="5" height="3" fill="#17abb9"/></g><g id="Group_8770" data-name="Group 8770"><rect id="Rectangle_5053-4" data-name="Rectangle 5053-4" x="89" y="30.18" width="10" height="3" fill="#fff"/><rect id="Rectangle_5056-4" data-name="Rectangle 5056-4" x="89" y="30.18" width="5" height="3" fill="#17abb9"/></g></g></g></g></g></svg>