<svg xmlns="http://www.w3.org/2000/svg" width="14.926" height="14.926" viewBox="0 0 14.926 14.926">
  <g id="Group_8178" data-name="Group 8178" transform="translate(-123.537 -654.537)">
    <g id="symbol" transform="translate(123.537 654.537)">
      <path id="Path_13456" data-name="Path 13456" d="M176.622,64a.622.622,0,0,0-.622.622v4.353a.622.622,0,0,0,.622.622h3.11a.622.622,0,0,0,0-1.244h-2.488V64.622A.622.622,0,0,0,176.622,64Zm0,0" transform="translate(-169.159 -61.512)" fill="#17a651"/>
    </g>
    <path id="Path_13455" data-name="Path 13455" d="M13.355,3.927a.622.622,0,0,0-.289.831,6.156,6.156,0,0,1,.616,2.705A6.219,6.219,0,1,1,7.463,1.244a6.144,6.144,0,0,1,3.861,1.342.622.622,0,1,0,.774-.974,7.464,7.464,0,1,0,2.828,5.851,7.387,7.387,0,0,0-.74-3.247A.621.621,0,0,0,13.355,3.927Zm0,0" transform="translate(123.537 654.537)" fill="#17a651"/>
  </g>
</svg>
