<svg xmlns="http://www.w3.org/2000/svg" xmlns:xlink="http://www.w3.org/1999/xlink" width="83" height="81" viewBox="0 0 83 81">
  <defs>
    <filter id="Rectangle_4611" x="0" y="17" width="64" height="64" filterUnits="userSpaceOnUse">
      <feOffset dy="3" input="SourceAlpha"/>
      <feGaussianBlur stdDeviation="3" result="blur"/>
      <feFlood flood-opacity="0.161"/>
      <feComposite operator="in" in2="blur"/>
      <feComposite in="SourceGraphic"/>
    </filter>
    <filter id="Rectangle_4612" x="7" y="0" width="76" height="76" filterUnits="userSpaceOnUse">
      <feOffset dy="3" input="SourceAlpha"/>
      <feGaussianBlur stdDeviation="3" result="blur-2"/>
      <feFlood flood-opacity="0.161"/>
      <feComposite operator="in" in2="blur-2"/>
      <feComposite in="SourceGraphic"/>
    </filter>
  </defs>
  <g id="Group_7075" data-name="Group 7075" transform="translate(1 -349)">
    <g id="Group_7074" data-name="Group 7074" transform="translate(-49 186)">
      <g id="Group_7071" data-name="Group 7071" transform="translate(49 89)">
        <g id="Group_7070" data-name="Group 7070">
          <g transform="matrix(1, 0, 0, 1, -1, 74)" filter="url(#Rectangle_4611)">
            <rect id="Rectangle_4611-2" data-name="Rectangle 4611" width="46" height="46" transform="translate(9 23)" fill="#fff"/>
          </g>
          <g transform="matrix(1, 0, 0, 1, -1, 74)" filter="url(#Rectangle_4612)">
            <rect id="Rectangle_4612-2" data-name="Rectangle 4612" width="58" height="58" transform="translate(16 6)" fill="#fff"/>
          </g>
        </g>
      </g>
    </g>
    <g id="history_1_" data-name="history (1)" transform="translate(3.518 362)">
      <circle id="Ellipse_1648" data-name="Ellipse 1648" cx="13.89" cy="13.89" r="13.89" transform="translate(26.257 10.025)" fill="#f5a800"/>
      <path id="Path_13571" data-name="Path 13571" d="M129.841,159.845a12.12,12.12,0,1,1,12.12-12.12A12.134,12.134,0,0,1,129.841,159.845Z" transform="translate(-89.694 -123.811)" fill="#fdd93b"/>
      <path id="Path_13572" data-name="Path 13572" d="M54.6,9.414A20.419,20.419,0,0,0,41.5,3.44l2.5-2.5L43.067,0,38.882,4.185l4.185,4.185.938-.938L41.333,4.76a19.244,19.244,0,1,1-20.524,19.2c0-.427.014-.858.042-1.282l-1.324-.087c-.03.453-.045.914-.045,1.37A20.572,20.572,0,1,0,54.6,9.414Z"/>
      <path id="Path_13573" data-name="Path 13573" d="M54.134,142.67l-1.095-.75c-.258.376-.506.765-.737,1.156l1.142.676C53.661,143.386,53.893,143.022,54.134,142.67Z" transform="translate(-29.965 -129.576)"/>
      <path id="Path_13574" data-name="Path 13574" d="M71.986,118.058,71,117.169c-.3.338-.6.691-.884,1.048l1.043.821C71.422,118.7,71.7,118.374,71.986,118.058Z" transform="translate(-46.23 -106.978)"/>
      <path id="Path_13575" data-name="Path 13575" d="M23.081,228.752l-1.3-.262c-.09.446-.166.9-.226,1.353l1.316.175C22.926,229.6,23,229.17,23.081,228.752Z" transform="translate(-1.892 -208.617)"/>
      <path id="Path_13576" data-name="Path 13576" d="M93.085,96.23l-.86-1.011c-.347.295-.688.6-1.014.922l.925.952C92.441,96.8,92.761,96.506,93.085,96.23Z" transform="translate(-65.49 -86.937)"/>
      <path id="Path_13577" data-name="Path 13577" d="M39.861,169.64l-1.185-.6c-.205.407-.4.826-.577,1.244l1.222.517C39.487,170.412,39.669,170.021,39.861,169.64Z" transform="translate(-16.998 -154.339)"/>
      <path id="Path_13578" data-name="Path 13578" d="M29.445,198.506l-1.254-.434c-.149.43-.285.871-.405,1.311l1.28.349C29.179,199.321,29.306,198.908,29.445,198.506Z" transform="translate(-7.582 -180.844)"/>
      <path id="Path_13579" data-name="Path 13579" d="M104.3,136.738a14.553,14.553,0,1,0-14.553-14.553A14.569,14.569,0,0,0,104.3,136.738Zm0-27.779a13.226,13.226,0,1,1-13.226,13.226A13.241,13.241,0,0,1,104.3,108.959Z" transform="translate(-64.152 -98.27)"/>
      <rect id="Rectangle_4573" data-name="Rectangle 4573" width="1.327" height="1.327" transform="translate(39.39 12.237)"/>
      <rect id="Rectangle_4574" data-name="Rectangle 4574" width="1.327" height="1.327" transform="translate(39.39 34.18)"/>
      <rect id="Rectangle_4575" data-name="Rectangle 4575" width="1.327" height="1.327" transform="translate(28.418 23.208)"/>
      <rect id="Rectangle_4576" data-name="Rectangle 4576" width="1.327" height="1.327" transform="translate(50.361 23.208)"/>
      <path id="Path_13580" data-name="Path 13580" d="M253.441,195.513,249.7,191.77v-7.334h-1.327v7.884l4.132,4.132Z" transform="translate(-208.981 -168.394)"/>
    </g>
  </g>
</svg>
