<svg xmlns="http://www.w3.org/2000/svg" xmlns:xlink="http://www.w3.org/1999/xlink" width="83" height="81" viewBox="0 0 83 81">
  <defs>
    <filter id="Rectangle_4611" x="0" y="17" width="64" height="64" filterUnits="userSpaceOnUse">
      <feOffset dy="3" input="SourceAlpha"/>
      <feGaussianBlur stdDeviation="3" result="blur"/>
      <feFlood flood-opacity="0.161"/>
      <feComposite operator="in" in2="blur"/>
      <feComposite in="SourceGraphic"/>
    </filter>
    <filter id="Rectangle_4612" x="7" y="0" width="76" height="76" filterUnits="userSpaceOnUse">
      <feOffset dy="3" input="SourceAlpha"/>
      <feGaussianBlur stdDeviation="3" result="blur-2"/>
      <feFlood flood-opacity="0.161"/>
      <feComposite operator="in" in2="blur-2"/>
      <feComposite in="SourceGraphic"/>
    </filter>
  </defs>
  <g id="Group_7072" data-name="Group 7072" transform="translate(1 -163)">
    <g id="Group_7071" data-name="Group 7071" transform="translate(0 89)">
      <g id="Group_7070" data-name="Group 7070">
        <g transform="matrix(1, 0, 0, 1, -1, 74)" filter="url(#Rectangle_4611)">
          <rect id="Rectangle_4611-2" data-name="Rectangle 4611" width="46" height="46" transform="translate(9 23)" fill="#fff"/>
        </g>
        <g transform="matrix(1, 0, 0, 1, -1, 74)" filter="url(#Rectangle_4612)">
          <rect id="Rectangle_4612-2" data-name="Rectangle 4612" width="58" height="58" transform="translate(16 6)" fill="#fff"/>
        </g>
      </g>
    </g>
    <g id="wrench" transform="translate(24 177.578)">
      <g id="Group_7038" data-name="Group 7038" transform="translate(0.589 1.011)">
        <path id="Path_13533" data-name="Path 13533" d="M7.621,13.447a6.421,6.421,0,0,0,9.012,7.029l2.582,2.577h3.44l-.134-3.582-2.439-2.436a6.416,6.416,0,0,0-7.045-8.992c-2.124.4-.517,1.516-.289,1.744l2.732,2.726A2.561,2.561,0,0,1,15.6,16a2.575,2.575,0,0,1-3.5-.118L9.369,13.159c-.228-.228-1.347-1.831-1.748.288Z" transform="translate(-7.508 -7.931)" fill="#c1eaf4" fill-rule="evenodd"/>
      </g>
      <g id="Group_7039" data-name="Group 7039" transform="translate(16.068 15.588)">
        <path id="Path_13534" data-name="Path 13534" d="M206.04,199.262l1.421,4.189,6.385,3.6,1.929,1.925a6.416,6.416,0,0,0,7.045,8.992c2.124-.4.517-1.516.289-1.744l-2.732-2.726a2.392,2.392,0,1,1,3.379-3.372l2.732,2.726c.228.228,1.347,1.831,1.748-.288a6.421,6.421,0,0,0-9.012-7.029l-1.987-1.983a1.86,1.86,0,0,1-1.8-3.11l1.17-1.17a2.128,2.128,0,0,1-3.4-2.481c-.756.982-4.4-2.574-4.554-2.731C207.074,192.8,202.764,195.7,206.04,199.262Z" transform="translate(-204.842 -193.76)" fill="#c1eaf4" fill-rule="evenodd"/>
      </g>
      <g id="Group_7040" data-name="Group 7040" transform="translate(26.117 18.916)">
        <path id="Path_13535" data-name="Path 13535" d="M333.494,239.537a1.86,1.86,0,0,0,1.8,3.11,1.84,1.84,0,0,0,.835-.48l2.82-2.813a1.863,1.863,0,0,0-2.638-2.63l-.043.042-1.6,1.6Z" transform="translate(-332.95 -236.181)" fill="#fed1a3" fill-rule="evenodd"/>
      </g>
      <g id="Group_7041" data-name="Group 7041" transform="translate(21.217 12.265)">
        <path id="Path_13536" data-name="Path 13536" d="M271.676,153.618l-.613.612-.383.556c-.855,1.237,1.179,3.686,3.086,2.845l1.714-.438.248-1.608.564-.563a2.128,2.128,0,1,0-3.012-3.005l-1.11,1.108Z" transform="translate(-270.48 -151.398)" fill="#fed1a3" fill-rule="evenodd"/>
      </g>
      <g id="Group_7042" data-name="Group 7042" transform="translate(18.3 9.26)">
        <path id="Path_13537" data-name="Path 13537" d="M236,113.7l-2.218,2.213c-1.533,1.53.841,4.042,3.012,3.005l1.781-.531.436-1.681A2.128,2.128,0,1,0,236,113.7Z" transform="translate(-233.294 -113.082)" fill="#fed1a3" fill-rule="evenodd"/>
      </g>
      <g id="Group_7043" data-name="Group 7043" transform="translate(6.402 11.207)">
        <path id="Path_13538" data-name="Path 13538" d="M87.075,144.97c.1,1.661-.674,3.34-2.97,5.629l-2.493,2.487,1.379,5.477,6.908,2.791,4-3.988c1.5-1.494,1.788-1.172,3.556-.92a4.886,4.886,0,0,0,2.831-.866l-7.806-7.791a3.739,3.739,0,0,0,.157-4.332c-.011-.013,0-.02.007-.011l1.385,1.382c1.327,1.279,4.178,2.365,5.619.491.022-.04.045-.083.069-.123.217-.583-.819-1.518-1.882-2.581l-.821-.819L94,138.792l-.555-.554a1.151,1.151,0,0,0-1.618,0l-1.014,1.012-2.609,2.6a3.66,3.66,0,0,0-.7.978A4.308,4.308,0,0,0,87.075,144.97Z" transform="translate(-81.612 -137.906)" fill="#ffe5c1" fill-rule="evenodd"/>
      </g>
      <g id="Group_7044" data-name="Group 7044" transform="translate(5.032 1.011)">
        <path id="Path_13539" data-name="Path 13539" d="M69.462,11.074a5.947,5.947,0,0,1,1.186,6.632c-.161.409.074.574.389.889L73.19,20.74l.009.246,1.517-1.514-2.439-2.436a6.416,6.416,0,0,0-7.045-8.992c-1.309.246-1.2.766-.87,1.181a6.435,6.435,0,0,1,5.1,1.849Z" transform="translate(-64.147 -7.931)" fill="#99cfe0" fill-rule="evenodd"/>
      </g>
      <g id="Group_7045" data-name="Group 7045" transform="translate(20.715 9.281)">
        <path id="Path_13540" data-name="Path 13540" d="M264.082,118.086l1.085,1.083.613-.612.495-.493,1.11-1.108a2.121,2.121,0,0,0-1.208-3.6,2.131,2.131,0,0,1-.17,2.813l-1.11,1.105Z" transform="translate(-264.082 -113.352)" fill="#ffbc85" fill-rule="evenodd"/>
      </g>
      <g id="Group_7046" data-name="Group 7046" transform="translate(23.624 12.293)">
        <path id="Path_13541" data-name="Path 13541" d="M303.134,154.423l-1.965,1.96c.609.636,1.025,1.186.879,1.574a2.151,2.151,0,0,1,.316-.4l2.211-2.206a2.12,2.12,0,0,0-1.168-3.6,2.129,2.129,0,0,1-.273,2.671Z" transform="translate(-301.169 -151.752)" fill="#ffbc85" fill-rule="evenodd"/>
      </g>
      <g id="Group_7047" data-name="Group 7047" transform="translate(26.267 18.958)">
        <path id="Path_13542" data-name="Path 13542" d="M334.861,242.087a1.832,1.832,0,0,0,.394.578,1.87,1.87,0,0,0,1.8.48,1.84,1.84,0,0,0,.835-.48l2.82-2.813a1.862,1.862,0,0,0,0-2.63,1.837,1.837,0,0,0-.92-.5,1.863,1.863,0,0,1-.394,2.052l-2.82,2.813a1.829,1.829,0,0,1-.835.48A1.9,1.9,0,0,1,334.861,242.087Z" transform="translate(-334.861 -236.721)" fill="#ffbc85" fill-rule="evenodd"/>
      </g>
      <g id="Group_7048" data-name="Group 7048" transform="translate(18.625 17.832)">
        <path id="Path_13543" data-name="Path 13543" d="M249.452,233.759c4.209-1.159,7.112,1.09,8.822,5.169a6.421,6.421,0,0,0-9.012-7.029l-1.987-1.983a1.87,1.87,0,0,1-1.8-.48,1.833,1.833,0,0,1-.394-.578,1.863,1.863,0,0,1,.394-2.052l1.17-1.17a2.14,2.14,0,0,1-3.012,0,2.064,2.064,0,0,1-.289-.357,2.137,2.137,0,0,1-.1-2.123c-1.441,1.873-6.888-1.827-5.619-.491l9.809,10.3C248.492,234.078,248.121,234.125,249.452,233.759Z" transform="translate(-237.437 -222.366)" fill="#99cfe0" fill-rule="evenodd"/>
      </g>
      <g id="Group_7049" data-name="Group 7049" transform="translate(17.026 15.197)">
        <path id="Path_13544" data-name="Path 13544" d="M218.848,191.707c1.327,1.279,4.178,2.365,5.619.491.022-.04.045-.083.069-.123.145-.389-.271-.938-.879-1.574a2.689,2.689,0,0,1-1.891.605l-.085,0a5.553,5.553,0,0,1-3.267-1.492l-.289-.288c-.2-.194-.224-.226-.463-.462-.145-.181-.424-.033-.469.058a1.028,1.028,0,0,0-.1.793,1.112,1.112,0,0,0,.375.614C217.922,190.774,218.821,191.68,218.848,191.707Z" transform="translate(-217.059 -188.774)" fill="#fed1a3" fill-rule="evenodd"/>
      </g>
      <g id="Group_7050" data-name="Group 7050" transform="translate(1.114 25.997)">
        <path id="Path_13545" data-name="Path 13545" d="M14.6,331.727,22.884,340a1.323,1.323,0,0,0,.741.373h.414a1.315,1.315,0,0,0,.741-.373l3-2.994a1.339,1.339,0,0,0,0-1.891l-8.287-8.268a1.346,1.346,0,0,0-1.9,0l-3,2.994a1.339,1.339,0,0,0,0,1.891Z" transform="translate(-14.206 -326.451)" fill="#6bd9e7" fill-rule="evenodd"/>
      </g>
      <g id="Group_7051" data-name="Group 7051" transform="translate(7.409 32.275)">
        <path id="Path_13546" data-name="Path 13546" d="M94.45,411.375l2.383,2.378a1.323,1.323,0,0,0,.741.373h.414a1.315,1.315,0,0,0,.741-.373l3-2.994a1.339,1.339,0,0,0,0-1.891l-2.386-2.38a1.339,1.339,0,0,1,0,1.891l-3,2.994a1.335,1.335,0,0,1-.738.375h-.416A1.345,1.345,0,0,1,94.45,411.375Z" transform="translate(-94.45 -406.487)" fill="#00c7dd" fill-rule="evenodd"/>
      </g>
      <g id="Group_7052" data-name="Group 7052" transform="translate(12.849 27.046)">
        <path id="Path_13547" data-name="Path 13547" d="M167.8,341.611l-4,3.988,1.84,1.833,4-3.988c1.5-1.494,1.788-1.172,3.556-.92a4.886,4.886,0,0,0,2.831-.866l-1.837-1.835a7.476,7.476,0,0,1-.723.391,4.058,4.058,0,0,1-2.11.476C169.591,340.436,169.3,340.117,167.8,341.611Z" transform="translate(-163.804 -339.822)" fill="#fed1a3" fill-rule="evenodd"/>
      </g>
      <g id="Group_7053" data-name="Group 7053" transform="translate(23.635 15.833)">
        <path id="Path_13548" data-name="Path 13548" d="M301.549,200.234a2.128,2.128,0,0,0,3.4,2.478l1.535-.52.674-1.684a2.128,2.128,0,0,0-3.012-3.005l-2.209,2.2a2.09,2.09,0,0,0-.318.4A.513.513,0,0,1,301.549,200.234Z" transform="translate(-301.311 -196.884)" fill="#fed1a3" fill-rule="evenodd"/>
      </g>
      <g id="Group_7054" data-name="Group 7054" transform="translate(23.969 15.841)">
        <path id="Path_13549" data-name="Path 13549" d="M309.768,196.984a2.129,2.129,0,0,1-.289,2.648l-2.209,2.206a2.134,2.134,0,0,1-1.707.61,1.981,1.981,0,0,0,.289.357,2.136,2.136,0,0,0,3.012,0l2.209-2.2a2.124,2.124,0,0,0-1.3-3.617Z" transform="translate(-305.563 -196.984)" fill="#ffbc85" fill-rule="evenodd"/>
      </g>
      <path id="Path_13550" data-name="Path 13550" d="M38.114,28.235a7.072,7.072,0,0,0-7.529-1.566l-1.13-1.128a2.454,2.454,0,0,0,.258-.223l2.82-2.813a2.451,2.451,0,0,0,0-3.463h0a2.45,2.45,0,0,0-1.869-.712,2.769,2.769,0,0,0,.026-.374,2.711,2.711,0,0,0-2.59-2.709,2.71,2.71,0,0,0-2.89-3.552,2.783,2.783,0,0,0,.018-.312,2.692,2.692,0,0,0-.794-1.919,2.725,2.725,0,0,0-3.843,0l-1.8,1.8-.139-.139a1.736,1.736,0,0,0-2.449,0l-.6.6L13.859,9.98A7,7,0,0,0,6.009.546C5.681.608,4.682.8,4.477,1.56c-.2.747.512,1.359.855,1.654.035.03,2.814,2.8,2.814,2.8a1.971,1.971,0,0,1,.117,2.656A1.984,1.984,0,0,1,5.6,8.55s-2.774-2.773-2.8-2.808C2.5,5.4,1.885,4.69,1.137,4.89.374,5.1.186,6.091.124,6.418A7,7,0,0,0,2.05,12.687a7.072,7.072,0,0,0,7.529,1.566L11.6,16.266a4.867,4.867,0,0,0-.319,2.04c.1,1.578-.741,3.127-2.8,5.177L6.336,25.621a1.934,1.934,0,0,0-2.246.349l-3,2.994a1.927,1.927,0,0,0,0,2.724l8.287,8.268a1.933,1.933,0,0,0,2.727,0l3-2.994a1.93,1.93,0,0,0,.352-2.243L19.1,31.084c1.08-1.078,1.256-1.049,2.4-.858.193.032.411.069.656.1a5.087,5.087,0,0,0,2.817-.716l1.33,1.327a7.078,7.078,0,0,0-.473,2.859.588.588,0,0,0,.587.564h.025a.588.588,0,0,0,.563-.612,5.875,5.875,0,0,1,.528-2.7.588.588,0,0,0-.119-.663L18,20.994a5.157,5.157,0,0,0,.623-2.242,6.451,6.451,0,0,0,2.44,1.291,4.28,4.28,0,0,0,1.981.1c0,.007,0,.013,0,.02a2.711,2.711,0,0,0,2.588,2.707,2.464,2.464,0,0,0-.106.718,2.444,2.444,0,0,0,2.45,2.447,2.462,2.462,0,0,0,.286-.017l1.769,1.765a.588.588,0,0,0,.661.118,5.889,5.889,0,0,1,6.588,1.168,5.826,5.826,0,0,1,1.6,5.217,2.016,2.016,0,0,1-.173.568,2.53,2.53,0,0,1-.45-.442c-.051-.059-2.863-2.872-2.863-2.872a3.164,3.164,0,0,0-4.3-.145.6.6,0,0,0-.056.056,3.15,3.15,0,0,0,.146,4.294l3.319,3.3a2.037,2.037,0,0,1-.569.172,5.827,5.827,0,0,1-6.3-3.062.588.588,0,1,0-1.047.537A6.994,6.994,0,0,0,32.835,40.5a7.117,7.117,0,0,0,1.319-.124c.328-.062,1.326-.25,1.531-1.013.2-.747-.512-1.359-.855-1.654-.035-.03-2.814-2.8-2.814-2.8a1.805,1.805,0,1,1,2.548-2.539s2.774,2.773,2.8,2.808c.3.342.91,1.052,1.656.852.764-.205.952-1.2,1.014-1.528a7,7,0,0,0-1.926-6.269ZM26.614,13.3a1.543,1.543,0,0,1,.021,2.152L24.744,17.34c-.325-.47-2.111-2.242-2.111-2.242l1.8-1.8A1.546,1.546,0,0,1,26.614,13.3Zm-5.193-3a1.546,1.546,0,0,1,2.181,0,1.54,1.54,0,0,1,0,2.173l-1.8,1.8-2.179-2.174ZM10.129,13.14a.588.588,0,0,0-.661-.118,5.889,5.889,0,0,1-6.588-1.168,5.826,5.826,0,0,1-1.6-5.217,2.017,2.017,0,0,1,.173-.568,2.53,2.53,0,0,1,.45.442c.051.059,2.863,2.872,2.863,2.872a3.164,3.164,0,0,0,4.3.145.6.6,0,0,0,.056-.056,3.15,3.15,0,0,0-.146-4.294s-3.263-3.219-3.319-3.3A2.037,2.037,0,0,1,6.227,1.7a5.828,5.828,0,0,1,6.4,8.168.588.588,0,0,0,.119.662l2.022,2.02-2.192,2.187a4.127,4.127,0,0,0-.39.454Zm13.713,5.1a2.728,2.728,0,0,0-.394.5c-1.253.777-3.235-.079-4.221-1.029l-.122-.122c-.9-.9-1.381-1.377-1.425-1.422l0,0-.006-.007-.009-.008a.588.588,0,0,0-.834.829l.012.012a2.23,2.23,0,0,1,.614,1.623,4.55,4.55,0,0,1-1.422,3.079.588.588,0,0,0,.831.833,6.692,6.692,0,0,0,.476-.531L24.1,28.739a3.55,3.55,0,0,1-1.774.426c-.232-.033-.443-.068-.63-.1-1.363-.227-1.974-.262-3.425,1.185l-3.581,3.573-2.959-2.952a.588.588,0,1,0-.831.833l3.373,3.366h0a.751.751,0,0,1,0,1.058l-3,2.994a.755.755,0,0,1-1.064,0L1.921,30.856a.751.751,0,0,1,0-1.058l3-2.994a.755.755,0,0,1,1.064,0l2.967,2.961a.588.588,0,1,0,.831-.833l-2.55-2.544L9.31,24.316c2.32-2.313,3.26-4.131,3.142-6.081a3.549,3.549,0,0,1,.956-2.663l3.623-3.615a.565.565,0,0,1,.787,0l.554.553,3.834,3.826.309.306A9.69,9.69,0,0,1,23.9,18.187ZM25.764,21.7a1.536,1.536,0,0,1-1.091-2.622l2.209-2.2a1.546,1.546,0,0,1,2.181,0h0a1.536,1.536,0,0,1,0,2.172h0l-2.209,2.2a1.53,1.53,0,0,1-1.09.449Zm1.313,2.791a1.274,1.274,0,0,1,0-1.8l2.817-2.813a1.282,1.282,0,0,1,1.807,0h0a1.274,1.274,0,0,1,0,1.8l-2.82,2.813a1.28,1.28,0,0,1-1.805,0Z" transform="translate(0 0)"/>
    </g>
  </g>
</svg>
