<svg id="pencil" xmlns="http://www.w3.org/2000/svg" width="17.951" height="19.193" viewBox="0 0 17.951 19.193">
  <g id="Group_8468" data-name="Group 8468" transform="translate(0.281 0.281)">
    <path id="Path_15113" data-name="Path 15113" d="M106.907,104.334v13.758a1.242,1.242,0,0,0,1.242,1.242h11.8a1.242,1.242,0,0,0,1.242-1.242V104.334Z" transform="translate(-103.801 -100.704)" fill="#f9f5f3"/>
    <path id="Path_15114" data-name="Path 15114" d="M433.05,104.334v13.758a1.242,1.242,0,0,1-1.242,1.242h.862a1.242,1.242,0,0,0,1.242-1.242V104.334Z" transform="translate(-416.523 -100.704)" fill="#f9eae0"/>
    <g id="Group_8466" data-name="Group 8466" transform="translate(0 8.693)">
      <path id="Path_15115" data-name="Path 15115" d="M55.852,269.456l-4.847-4.847-1.756,1.756,4.847,4.847a.3.3,0,0,0,.212.088h.268l1.365-1.365v-.268A.3.3,0,0,0,55.852,269.456Z" transform="translate(-48.304 -263.664)" fill="#a0c8ff"/>
      <path id="Path_15116" data-name="Path 15116" d="M89.907,269.456l-4.847-4.847-.43.43,5.016,5.016a.3.3,0,0,1,.081.149l.268-.268v-.268A.3.3,0,0,0,89.907,269.456Z" transform="translate(-82.359 -263.664)" fill="#91b2fa"/>
      <path id="Path_15117" data-name="Path 15117" d="M183.146,398.206v-1.332a.3.3,0,0,0-.019-.1l-1.718,1.718a.3.3,0,0,0,.1.019h1.332A.3.3,0,0,0,183.146,398.206Z" transform="translate(-175.51 -390.87)" fill="#f9eae0"/>
      <path id="Path_15118" data-name="Path 15118" d="M25.108,239.59l-.878.878a.621.621,0,0,0,0,.878l.878.878,1.756-1.756-.878-.878A.621.621,0,0,0,25.108,239.59Z" transform="translate(-24.047 -239.408)" fill="#fa8ebb"/>
      <path id="Path_15119" data-name="Path 15119" d="M52.567,239.587l.009.008,1.308,1.308.43-.43-.878-.878A.621.621,0,0,0,52.567,239.587Z" transform="translate(-51.498 -239.414)" fill="#f57fb0"/>
    </g>
    <path id="Path_15120" data-name="Path 15120" d="M119.947,40.634h-11.8a1.242,1.242,0,0,0-1.242,1.242v1.863h14.283V41.876A1.242,1.242,0,0,0,119.947,40.634Z" transform="translate(-103.8 -39.392)" fill="#ffce69"/>
    <path id="Path_15121" data-name="Path 15121" d="M432.67,40.634h-.862a1.242,1.242,0,0,1,1.242,1.242v1.863h.862V41.876A1.242,1.242,0,0,0,432.67,40.634Z" transform="translate(-416.523 -39.392)" fill="#ffbd61"/>
    <g id="Group_8467" data-name="Group 8467" transform="translate(4.969)">
      <path id="Path_15122" data-name="Path 15122" d="M156.607,9.363a.621.621,0,1,0,1.242,0V8.121a.621.621,0,1,0-1.242,0Z" transform="translate(-156.607 -7.5)" fill="#bdd3dd"/>
      <path id="Path_15123" data-name="Path 15123" d="M405.107,9.363a.621.621,0,0,0,1.242,0V8.121a.621.621,0,0,0-1.242,0Z" transform="translate(-395.792 -7.5)" fill="#bdd3dd"/>
      <path id="Path_15124" data-name="Path 15124" d="M239.44,9.363a.621.621,0,1,0,1.242,0V8.121a.621.621,0,1,0-1.242,0Z" transform="translate(-236.335 -7.5)" fill="#bdd3dd"/>
      <path id="Path_15125" data-name="Path 15125" d="M322.274,9.363a.621.621,0,1,0,1.242,0V8.121a.621.621,0,1,0-1.242,0Z" transform="translate(-316.064 -7.5)" fill="#bdd3dd"/>
    </g>
    <path id="Path_15126" data-name="Path 15126" d="M410.605,7.5a.619.619,0,0,0-.431.175.619.619,0,0,1,.19.446V9.363a.619.619,0,0,1-.19.446.621.621,0,0,0,1.052-.446V8.121A.621.621,0,0,0,410.605,7.5Z" transform="translate(-395.7 -7.5)" fill="#abc4d6"/>
    <path id="Path_15127" data-name="Path 15127" d="M327.772,7.5a.618.618,0,0,0-.431.175.619.619,0,0,1,.19.446V9.363a.619.619,0,0,1-.19.446.621.621,0,0,0,1.052-.446V8.121A.621.621,0,0,0,327.772,7.5Z" transform="translate(-315.972 -7.5)" fill="#abc4d6"/>
    <path id="Path_15128" data-name="Path 15128" d="M244.939,7.5a.619.619,0,0,0-.431.175.619.619,0,0,1,.19.446V9.363a.619.619,0,0,1-.19.446.621.621,0,0,0,1.052-.446V8.121A.621.621,0,0,0,244.939,7.5Z" transform="translate(-236.244 -7.5)" fill="#abc4d6"/>
    <path id="Path_15129" data-name="Path 15129" d="M162.105,7.5a.619.619,0,0,0-.431.175.619.619,0,0,1,.19.446V9.363a.619.619,0,0,1-.19.446.621.621,0,0,0,1.052-.446V8.121A.621.621,0,0,0,162.105,7.5Z" transform="translate(-156.515 -7.5)" fill="#abc4d6"/>
  </g>
  <g id="Group_8469" data-name="Group 8469" transform="translate(0 0)">
    <path id="Path_15130" data-name="Path 15130" d="M32.987,1.242h-.34V.9a.9.9,0,0,0-1.8,0v.34h-1.3V.9a.9.9,0,1,0-1.8,0v.34h-1.3V.9a.9.9,0,0,0-1.8,0v.34h-1.3V.9a.9.9,0,1,0-1.8,0v.34h-.34a1.525,1.525,0,0,0-1.523,1.523v6.88l-.688-.688a.9.9,0,0,0-1.276,0l-.878.878a.9.9,0,0,0,0,1.276l2.842,2.842v3.716a1.525,1.525,0,0,0,1.523,1.523h9.564a.281.281,0,0,0,0-.562H21.188a.962.962,0,0,1-.961-.961V14.515l2.293,2.293.021.019.015.011.007.005.02.012,0,0,.022.01,0,0,.022.008,0,0,.021.005h.006l.02,0h1.674l.357.357a.281.281,0,1,0,.4-.4l-.357-.357v-1.64q0-.014,0-.028V14.82c0-.007,0-.014,0-.021v-.005c0-.007,0-.014-.005-.021v0c0-.007,0-.015-.008-.022v0l-.011-.022,0,0L24.71,14.7l0-.006-.012-.016-.019-.021-2.294-2.294h9.674a.281.281,0,0,0,0-.562H22.119a.28.28,0,0,0-.208.093l-1.684-1.684v-5.3H33.948V6.827a.281.281,0,0,0,.562,0V2.765A1.525,1.525,0,0,0,32.987,1.242ZM24.195,16.329h-.8l.8-.8Zm-5.9-4.538.481-.481L23.2,15.732l-.481.481Zm5.3,3.543-4.422-4.422.481-.481,4.422,4.422Zm-6.377-5.1.878-.878a.34.34,0,0,1,.481,0l.679.679-.679.679h0l-.679.679-.679-.679A.34.34,0,0,1,17.22,10.233ZM31.745.562a.34.34,0,0,1,.34.34V2.144a.34.34,0,0,1-.68,0V1.524h0V.9A.34.34,0,0,1,31.745.562Zm-3.105,0a.34.34,0,0,1,.34.34V2.144a.34.34,0,0,1-.68,0V1.524h0V.9A.34.34,0,0,1,28.64.562ZM25.195.9a.34.34,0,0,1,.68,0v.621h0v.621a.34.34,0,0,1-.68,0ZM22.43.562a.34.34,0,0,1,.34.34v.621h0v.621a.34.34,0,1,1-.68,0V1.524h0V.9A.34.34,0,0,1,22.43.562Zm-2.2,3.785V2.765a.962.962,0,0,1,.961-.961h.34v.34a.9.9,0,1,0,1.8,0V1.8h1.3v.34a.9.9,0,1,0,1.8,0V1.8h1.3v.34a.9.9,0,1,0,1.8,0V1.8h1.3v.34a.9.9,0,1,0,1.8,0V1.8h.34a.962.962,0,0,1,.961.961V4.347Z" transform="translate(-16.559 0)"/>
    <path id="Path_15131" data-name="Path 15131" d="M420.308,204.619a.281.281,0,0,0-.281.281v9.718a.962.962,0,0,1-.961.961h-1.111a.281.281,0,1,0,0,.562h1.111a1.525,1.525,0,0,0,1.523-1.523V204.9A.281.281,0,0,0,420.308,204.619Z" transform="translate(-402.638 -196.949)"/>
    <path id="Path_15132" data-name="Path 15132" d="M157.671,166.229h9.936a.281.281,0,0,0,0-.562h-9.936a.281.281,0,0,0,0,.562Z" transform="translate(-152.111 -159.457)"/>
    <path id="Path_15133" data-name="Path 15133" d="M157.671,215.929h9.936a.281.281,0,0,0,0-.562h-9.936a.281.281,0,1,0,0,.562Z" transform="translate(-152.111 -207.294)"/>
    <path id="Path_15134" data-name="Path 15134" d="M157.671,265.629h9.936a.281.281,0,1,0,0-.562h-9.936a.281.281,0,1,0,0,.562Z" transform="translate(-152.111 -255.131)"/>
    <path id="Path_15135" data-name="Path 15135" d="M255.591,364.748a.281.281,0,0,0-.281-.281h-6.521a.281.281,0,1,0,0,.562h6.521A.281.281,0,0,0,255.591,364.748Z" transform="translate(-239.813 -350.805)"/>
  </g>
</svg>
